<?xml version="1.0" encoding="UTF-8" standalone="no"?>
<!-- Created with Inkscape (http://www.inkscape.org/) -->

<svg
   xmlns:dc="http://purl.org/dc/elements/1.1/"
   xmlns:cc="http://creativecommons.org/ns#"
   xmlns:rdf="http://www.w3.org/1999/02/22-rdf-syntax-ns#"
   xmlns:svg="http://www.w3.org/2000/svg"
   xmlns="http://www.w3.org/2000/svg"
   xmlns:sodipodi="http://sodipodi.sourceforge.net/DTD/sodipodi-0.dtd"
   xmlns:inkscape="http://www.inkscape.org/namespaces/inkscape"
   width="800"
   height="700"
   id="svg6777"
   version="1.1"
   inkscape:version="0.48.4 r9939"
   sodipodi:docname="anid.svg">
  <defs
     id="defs6779" />
  <sodipodi:namedview
     id="base"
     pagecolor="#ffffff"
     bordercolor="#666666"
     borderopacity="1.0"
     inkscape:pageopacity="0.0"
     inkscape:pageshadow="2"
     inkscape:zoom="0.35"
     inkscape:cx="350"
     inkscape:cy="520"
     inkscape:document-units="px"
     inkscape:current-layer="g6043"
     showgrid="false"
     inkscape:window-width="1600"
     inkscape:window-height="837"
     inkscape:window-x="-8"
     inkscape:window-y="-8"
     inkscape:window-maximized="1" />
  <metadata
     id="metadata6782">
    <rdf:RDF>
      <cc:Work
         rdf:about="">
        <dc:format>image/svg+xml</dc:format>
        <dc:type
           rdf:resource="http://purl.org/dc/dcmitype/StillImage" />
        <dc:title />
      </cc:Work>
    </rdf:RDF>
  </metadata>
  <g
     inkscape:label="Camada 1"
     inkscape:groupmode="layer"
     id="layer1"
     transform="translate(0,-352.36217)">
    <g
       style="fill-rule:evenodd"
       id="g6039"
       transform="matrix(3.5513998,0,0,3.5513998,10618.517,2325.7192)">
      <g
         id="g6041"
         transform="translate(-3539.591,-1324.9925)">
        <g
           id="g6043"
           transform="matrix(0.300928,0,0,0.300928,561.65896,692.47025)">
          <g
             id="g3004"
             transform="matrix(1.1625533,0,0,1.144964,27.827366,95.994056)">
            <path
               id="path6045"
               d="m 365.75354,339.79775 c 1.642,-1.443 6.279,-8.284 8.211,-10.656 2.298,-2.823 7.595,-5.894 10.797,-9.292 7.113,-7.55 10.622,-19.834 7.525,-29.819 -3.108,-10.023 -10.785,-17.051 -21.054,-19.125 l -37.272,-0.111 c -0.17,3.672 5.535,12.372 4.244,19.925 -1.525,8.92 -2.438,13.428 1.625,22.072 2.688,5.721 7.654,10.29 13.573,12.629 9.255,3.656 6.712,9.418 12.351,14.377 z"
               style="fill:#bcbbbb;stroke:none"
               inkscape:connector-curvature="0" />
            <path
               id="path6047"
               d="m 181.97954,472.56175 c -2.981,9.82 -1.486,39.171 10.609,51.232 14.288,14.249 35.161,9.888 44.565,0.448 17.987,-18.055 9.653,-50.696 -24.244,-52.213 -5.481,-0.246 -26.831,-0.624 -30.93,0.533 z"
               style="fill:#bcbbbb;stroke:none"
               inkscape:connector-curvature="0" />
            <path
               id="path6049"
               d="m 173.94454,340.67175 c -12.207,-3.446 -42.535,-2.218 -53.277,5.068 -13.86,9.403 -12.733,32.232 -1.449,43.543 18.263,18.308 48.381,7.618 53.284,-19.657 1.094,-6.089 2.974,-23.527 1.442,-28.954 z"
               style="fill:#bcbbbb;stroke:none"
               inkscape:connector-curvature="0" />
            <path
               id="path6051"
               d="m 172.19754,269.04775 c -11.046,-3.117 -40.057,-2.661 -52.941,5.405 -14.045,8.794 -12.938,32.057 -1.785,43.207 19.618,19.614 49.173,5.951 53.402,-19.539 1.119,-6.745 3.05,-22.957 1.324,-29.073 z"
               style="fill:#bcbbbb;stroke:none"
               inkscape:connector-curvature="0" />
            <path
               id="path6053"
               d="m 363.83254,351.15275 c -4.272,2.404 -12.71,12.401 -15.912,16.581 -25.795,33.678 -0.113,56.763 22.222,56.288 26.394,-0.563 38.724,-35.308 11.475,-56.94 -4.425,-3.514 -14.317,-14.515 -17.785,-15.929 z"
               style="fill:#bcbbbb;stroke:none"
               inkscape:connector-curvature="0" />
            <path
               id="path6055"
               d="m 183.02854,334.20775 c 10.224,3.553 43.459,-0.906 53.296,-7.321 14.483,-9.446 12.18,-30.717 1.673,-42.407 -10.737,-11.946 -32.703,-10.858 -42.721,1.358 -5.835,7.115 -7.859,12.151 -9.345,21.226 -0.796,4.856 -4.073,23.74 -2.903,27.144 z"
               style="fill:#bcbbbb;stroke:none"
               inkscape:connector-curvature="0" />
            <path
               id="path6057"
               d="m 325.05154,261.01275 c 1.312,-4.65 -1.558,-20.526 -2.601,-26.049 -7.758,-41.0908 -42.791,-31.8938 -52.131,-21.695 -12.202,13.324 -15.365,49.227 25.558,49.142 6.548,-0.014 24.215,1.185 29.174,-1.398 z"
               style="fill:#bcbbbb;stroke:none"
               inkscape:connector-curvature="0" />
            <path
               id="path6059"
               d="m 173.77054,464.35075 c 1.373,-3.951 -0.943,-21.51 -1.978,-26.322 -7.585,-35.254 -41.773,-32.255 -52.986,-19.032 -10.499,12.38 -10.524,31.921 3.242,41.7 7.178,5.1 14.967,6.128 23.608,6.113 3.91,-0.007 25.446,-1.531 28.114,-2.459 z"
               style="fill:#bcbbbb;stroke:none"
               inkscape:connector-curvature="0" />
            <path
               id="path6061"
               d="m 183.02854,261.71075 c 1.522,0.53 24.255,1.523 27.231,1.593 39.393,0.931 38.57,-35.254 25.144,-47.853 -11.946,-11.2099 -29.077,-11.9197 -40.191,0.448 -6.767,7.529 -15.213,37.097 -12.184,45.812 z"
               style="fill:#bcbbbb;stroke:none"
               inkscape:connector-curvature="0" />
            <path
               id="path6063"
               d="m 284.52354,472.91175 c -39.56,9.287 -22.847,61.192 11.009,53.808 36.44,-7.948 23.626,-61.941 -11.009,-53.808 z"
               style="fill:#bcbbbb;stroke:none"
               inkscape:connector-curvature="0" />
            <path
               id="path6065"
               d="m 472.13954,623.31875 6.987,-57.124 c 18.537,-6.441 32.8,8.351 28.317,30.937 -3.894,19.615 -13.941,29.721 -35.304,26.187 z m -25.854,-57.124 -6.988,57.124 c -7.86,0.34 -12.714,-0.373 -13.915,7.852 -1.233,8.443 8.53,11.213 14.612,11.191 12.789,-0.044 35.056,1.317 46.66,-0.51 15.163,-2.388 20.761,-3.842 33.196,-13.096 34.136,-25.401 20.845,-79.568 -20.456,-80.731 l -46.303,-0.878 c -6.383,-0.026 -13.796,0.269 -16.628,6.967 -3.988,9.436 4.622,10.274 9.822,12.081 z"
               style="fill:#000000;stroke:none"
               inkscape:connector-curvature="0" />
            <path
               id="path6067"
               d="m 238.92954,599.90975 -38.913,-52.719 -23.452,0.313 c -3.024,4.174 -9.52,71.402 -11.054,82.405 -0.874,6.275 -2.353,15.469 7.18,15.085 12.182,-0.49 10.368,-18.935 12.619,-34.592 l 2.785,-20.798 39.13,52.407 24.457,-0.175 c 1.999,-6.335 8.867,-72.694 10.498,-82.962 3.074,-19.352 -15.451,-19.607 -17.715,-0.244 -0.668,5.718 -3.948,38.901 -5.535,41.28 z"
               style="fill:#000000;stroke:none"
               inkscape:connector-curvature="0" />
            <path
               id="path6069"
               d="m 63.870036,594.78375 -35.441756,-0.289 c 1.5774,-10.364 1.2968,-11.821 3.5127,-20.419 9.446681,-14.053 26.012656,-13.264 31.869256,-0.987 2.2572,4.733 2.1252,12.22 0.0598,21.695 z m -54.3082559,-0.289 c -4.2421,0.8 -5.5719,-0.27 -10.11209999,2.14 -1.45360001,0.771 -3.08360001,4.148 -2.86180001,6.771 -0.391,5.352 4.33600001,7.088 11.2129,7.305 1.7342,7.707 -9.36,36.304 5.8493999,34.219 2.089,-0.509 5.1138,-1.024 6.9924,-5.798 l 4.598,-25.285 34.980556,0.389 c 1.4701,4.227 -5.2056,26.13 14.1394,30.406 13.225,0.153 22.979,-5.964 27.191004,-17.045 -5.856004,3.797 -9.144004,2.565 -9.706004,1.499 -4.679,-13.615 22.483004,-68.143 -20.755,-82.504 -15.327,-5.091 -30.666375,0.203 -43.005756,9.652 -17.1417,13.128 -16.4721,32.349 -18.5229999,38.251 z"
               style="fill:#000000;stroke:none"
               inkscape:connector-curvature="0" />
            <path
               id="path6071"
               d="m 370.67354,625.59075 c -3.207,3.001 -7.468,5.692 -9.434,2.97 l 4.689,-46.119 c -3.508,2.362 -7.403,5.192 -15.954,5.558 -7.458,-0.953 -11.629,-2.348 -15.316,-5.209 -1.674,7.435 -2.735,20.023 -3.72,28.248 -1.061,8.858 -3.866,18.772 1.964,26.614 11.366,15.283 35.671,4.832 37.771,-12.062 z"
               style="fill:#000000;stroke:none"
               inkscape:connector-curvature="0" />
            <path
               id="path6073"
               d="m 371.34354,479.37475 c 1.757,-50.617 -33.833,-51.811 -46.865,-37.257 -8.748,9.769 -13.085,39.467 23.811,39.534 5.237,0.009 18.449,-0.824 23.054,-2.277 z"
               style="fill:#ffcc00;stroke:none"
               inkscape:connector-curvature="0" />
            <path
               id="path6075"
               d="m 377.63254,486.53675 c -2.77,9.816 1.718,30.134 9.286,37.706 9.468,9.472 25.082,7.908 34.093,-1.314 8.922,-9.13 8.178,-25.941 -2.703,-33.57 -10.885,-7.633 -37.24,-4.612 -40.676,-2.822 z"
               style="fill:#ffcc00;stroke:none"
               inkscape:connector-curvature="0" />
            <path
               id="path6077"
               d="m 350.03154,543.65975 c -20.866,6.319 -14.014,36.339 6.253,29.837 19.762,-6.338 15.657,-36.471 -6.253,-29.837 z"
               style="fill:#ffcc00;stroke:none"
               inkscape:connector-curvature="0" />
          </g>
        </g>
      </g>
    </g>
  </g>
</svg>
