<?xml version="1.0" encoding="UTF-8"?>
<!DOCTYPE svg PUBLIC "-//W3C//DTD SVG 1.1//EN" "http://www.w3.org/Graphics/SVG/1.1/DTD/svg11.dtd">
<!-- Creator: CorelDRAW X7 -->
<svg xmlns="http://www.w3.org/2000/svg" xml:space="preserve" width="96.3082mm" height="48.6832mm" version="1.1" style="shape-rendering:geometricPrecision; text-rendering:geometricPrecision; image-rendering:optimizeQuality; fill-rule:evenodd; clip-rule:evenodd"
viewBox="0 0 9631 4868"
 xmlns:xlink="http://www.w3.org/1999/xlink">
 <defs>
  <style type="text/css">
   <![CDATA[
    .str0 {stroke:#4B4B4D;stroke-width:17.64}
    .fil1 {fill:#BDBFC1;fill-rule:nonzero}
    .fil8 {fill:#96989A;fill-rule:nonzero}
    .fil7 {fill:#4B4B4D;fill-rule:nonzero}
    .fil13 {fill:#373435;fill-rule:nonzero}
    .fil3 {fill:#848387;fill-rule:nonzero}
    .fil10 {fill:#FBB12F;fill-rule:nonzero}
    .fil4 {fill:#FAA831;fill-rule:nonzero}
    .fil0 {fill:#DE7B32;fill-rule:nonzero}
    .fil2 {fill:#A45D2B;fill-rule:nonzero}
    .fil9 {fill:#F47D35;fill-rule:nonzero}
    .fil12 {fill:#DA5134;fill-rule:nonzero}
    .fil5 {fill:#C52F33;fill-rule:nonzero}
    .fil11 {fill:#8E2929;fill-rule:nonzero}
    .fil6 {fill:#F8C32D;fill-rule:nonzero}
   ]]>
  </style>
 </defs>
 <g id="Layer_x0020_1">
  <metadata id="CorelCorpID_0Corel-Layer"/>
  <polygon class="fil0" points="4266,2532 4556,2345 4266,2157 "/>
  <polygon class="fil1" points="3979,2345 4270,2532 4270,2157 "/>
  <polygon class="fil0" points="4555,2345 4845,2157 4555,1970 "/>
  <polygon class="fil2" points="4557,1971 4557,2346 4266,2159 "/>
  <polygon class="fil3" points="3978,1971 3978,2346 4269,2159 "/>
  <polygon class="fil1" points="3691,2159 3982,2346 3982,1971 "/>
  <polygon class="fil4" points="4267,1784 4267,2159 4557,1971 "/>
  <polygon class="fil5" points="4269,1785 4269,2160 3979,1973 "/>
  <polygon class="fil5" points="4265,1415 4265,1790 4555,1602 "/>
  <polygon class="fil6" points="4269,1415 4269,1790 3978,1602 "/>
  <polygon class="fil7" points="4554,1602 4844,1415 4554,1227 "/>
  <polygon class="fil8" points="4556,1229 4556,1604 4265,1416 "/>
  <polygon class="fil9" points="3977,1229 3977,1604 4268,1416 "/>
  <polygon class="fil10" points="3690,1416 3981,1604 3981,1229 "/>
  <polygon class="fil7" points="4266,1041 4266,1416 4556,1229 "/>
  <polygon class="fil8" points="4268,1042 4268,1417 3978,1230 "/>
  <polygon class="fil3" points="3686,2162 3976,1975 3686,1787 "/>
  <polygon class="fil11" points="3974,1600 3974,1975 4265,1787 "/>
  <polygon class="fil5" points="3686,1789 3977,1976 3977,1601 "/>
  <polygon class="fil12" points="3687,1789 3977,1601 3687,1414 "/>
  <polygon class="fil12" points="4556,1975 4847,2162 4847,1787 "/>
  <polygon class="fil5" points="4555,1976 4846,1789 4555,1601 "/>
  <polygon class="fil11" points="4559,1601 4559,1976 4269,1789 "/>
  <polygon class="fil8" points="4556,1602 4846,1790 4846,1415 "/>
  <path class="fil13" d="M2079 3313c-52,45 -123,67 -194,67 -177,0 -319,-143 -319,-319 0,-176 142,-318 319,-318 84,0 160,31 221,88l-57 58c-44,-44 -103,-67 -164,-67 -133,0 -238,107 -238,239 0,133 105,239 238,239 53,0 106,-17 146,-53l48 66z"/>
  <path class="fil13" d="M2710 3020c-18,-112 -118,-199 -236,-199 -120,0 -217,87 -237,199l473 0zm-236 360c-176,0 -319,-143 -319,-319 0,-176 143,-318 319,-318 177,0 320,142 320,318l0 40 -557 0c20,113 117,198 237,198l5 0c46,0 92,-12 132,-38l45 64c-53,37 -115,55 -177,55l-5 0z"/>
  <polygon class="fil13" points="2891,2463 2974,2463 2974,3380 2891,3380 "/>
  <path class="fil13" d="M3174 2743l-83 0 0 637 83 0 0 -637zm0 637zm-83 -917l83 0 0 85 -83 0 0 -85z"/>
  <path class="fil13" d="M6657 3020c-18,-112 -118,-199 -236,-199 -120,0 -217,87 -237,199l473 0zm-236 360c-176,0 -319,-143 -319,-319 0,-176 143,-318 319,-318 177,0 320,142 320,318l0 40 -557 0c20,113 117,198 237,198l5 0c46,0 92,-12 132,-38l45 64c-53,37 -115,55 -177,55l-5 0z"/>
  <path class="fil13" d="M7351 3313c-52,45 -123,67 -194,67 -177,0 -319,-143 -319,-319 0,-176 142,-318 319,-318 84,0 160,31 221,88l-57 58c-44,-44 -103,-67 -164,-67 -133,0 -238,107 -238,239 0,133 105,239 238,239 53,0 106,-17 146,-53l48 66z"/>
  <path class="fil13" d="M7765 2822c-133,0 -238,109 -238,238 0,132 105,239 238,239 128,0 238,-107 238,-239 0,-129 -110,-238 -238,-238zm0 558c-178,0 -317,-143 -317,-320 0,-172 139,-317 317,-317 173,0 318,145 318,317 0,177 -145,320 -318,320z"/>
  <path class="fil13" d="M8256 2827c52,-52 123,-84 200,-84l0 79c-105,0 -200,94 -200,199l0 359 -83 0 0 -637 83 0 0 84z"/>
  <path class="fil13" d="M3368 2786c34,-27 78,-43 126,-43 68,0 131,32 169,84 37,-52 97,-84 167,-84 114,0 204,90 204,203l0 434 -79 0 0 -434c0,-71 -56,-125 -125,-125 -71,0 -127,54 -127,125l0 434 -78 0 0 -434c0,-71 -61,-125 -131,-125 -68,0 -126,54 -126,125l0 434 -78 0 0 -637 78 0 0 43z"/>
  <path class="fil13 str0" d="M3368 2786c34,-27 78,-43 126,-43 68,0 131,32 169,84 37,-52 97,-84 167,-84 114,0 204,90 204,203l0 434 -79 0 0 -434c0,-71 -56,-125 -125,-125 -71,0 -127,54 -127,125l0 434 -78 0 0 -434c0,-71 -61,-125 -131,-125 -68,0 -126,54 -126,125l0 434 -78 0 0 -637 78 0 0 43z"/>
  <path class="fil13" d="M4710 3060c0,-129 -109,-238 -237,-238 -133,0 -238,109 -238,238 0,132 105,239 238,239 128,0 237,-107 237,-239zm3 320l0 -108c-59,65 -146,108 -240,108 -178,0 -322,-143 -322,-320 0,-172 144,-317 322,-317 173,0 322,145 325,317l0 320 -85 0z"/>
  <path class="fil13 str0" d="M4710 3060c0,-129 -109,-238 -237,-238 -133,0 -238,109 -238,238 0,132 105,239 238,239 128,0 237,-107 237,-239zm3 320l0 -108c-59,65 -146,108 -240,108 -178,0 -322,-143 -322,-320 0,-172 144,-317 322,-317 173,0 322,145 325,317l0 320 -85 0z"/>
  <polygon class="fil13 str0" points="4929,2463 5012,2463 5012,3380 4929,3380 "/>
  <polygon class="fil13 str0" points="5164,2463 5247,2463 5247,3380 5164,3380 "/>
  <path class="fil13" d="M5921 3060c0,-129 -108,-238 -236,-238 -133,0 -238,109 -238,238 0,132 105,239 238,239 128,0 236,-107 236,-239zm84 -597l0 597c0,177 -147,320 -320,320 -178,0 -321,-143 -321,-320 0,-172 143,-317 321,-317 93,0 178,41 236,105l0 -385 84 0z"/>
 </g>
</svg>
