<?xml version="1.0" encoding="UTF-8"?>
<!DOCTYPE svg PUBLIC "-//W3C//DTD SVG 1.1//EN" "http://www.w3.org/Graphics/SVG/1.1/DTD/svg11.dtd">
<!-- Creator: CorelDRAW X7 -->
<svg xmlns="http://www.w3.org/2000/svg" xml:space="preserve" width="68.8957mm" height="23.4742mm" version="1.1" style="shape-rendering:geometricPrecision; text-rendering:geometricPrecision; image-rendering:optimizeQuality; fill-rule:evenodd; clip-rule:evenodd"
viewBox="0 0 7304 2489"
 xmlns:xlink="http://www.w3.org/1999/xlink">
 <defs>
  <style type="text/css">
   <![CDATA[
    .str0 {stroke:#4B4B4D;stroke-width:18.7015}
    .fil1 {fill:#BDBFC1;fill-rule:nonzero}
    .fil8 {fill:#96989A;fill-rule:nonzero}
    .fil7 {fill:#4B4B4D;fill-rule:nonzero}
    .fil13 {fill:#373435;fill-rule:nonzero}
    .fil3 {fill:#848387;fill-rule:nonzero}
    .fil10 {fill:#FBB12F;fill-rule:nonzero}
    .fil4 {fill:#FAA831;fill-rule:nonzero}
    .fil0 {fill:#DE7B32;fill-rule:nonzero}
    .fil2 {fill:#A45D2B;fill-rule:nonzero}
    .fil9 {fill:#F47D35;fill-rule:nonzero}
    .fil12 {fill:#DA5134;fill-rule:nonzero}
    .fil5 {fill:#C52F33;fill-rule:nonzero}
    .fil11 {fill:#8E2929;fill-rule:nonzero}
    .fil6 {fill:#F8C32D;fill-rule:nonzero}
   ]]>
  </style>
 </defs>
 <g id="Layer_x0020_1">
  <metadata id="CorelCorpID_0Corel-Layer"/>
  <polygon class="fil0" points="2862,1581 3170,1382 2862,1184 "/>
  <polygon class="fil1" points="2558,1382 2866,1581 2866,1184 "/>
  <polygon class="fil0" points="3168,1382 3476,1184 3168,985 "/>
  <polygon class="fil2" points="3171,986 3171,1384 2863,1185 "/>
  <polygon class="fil3" points="2557,986 2557,1384 2865,1185 "/>
  <polygon class="fil1" points="2253,1185 2561,1384 2561,986 "/>
  <polygon class="fil4" points="2863,787 2863,1185 3171,986 "/>
  <polygon class="fil5" points="2866,789 2866,1186 2558,988 "/>
  <polygon class="fil5" points="2861,396 2861,794 3169,595 "/>
  <polygon class="fil6" points="2865,396 2865,794 2557,595 "/>
  <polygon class="fil7" points="3167,595 3475,396 3167,197 "/>
  <polygon class="fil8" points="3170,199 3170,596 2862,398 "/>
  <polygon class="fil9" points="2556,199 2556,596 2864,398 "/>
  <polygon class="fil10" points="2252,398 2560,596 2560,199 "/>
  <polygon class="fil7" points="2862,0 2862,398 3170,199 "/>
  <polygon class="fil8" points="2865,1 2865,399 2557,200 "/>
  <polygon class="fil3" points="2247,1189 2555,990 2247,791 "/>
  <polygon class="fil11" points="2553,592 2553,990 2861,791 "/>
  <polygon class="fil5" points="2248,793 2556,991 2556,594 "/>
  <polygon class="fil12" points="2248,793 2556,594 2248,395 "/>
  <polygon class="fil12" points="3170,990 3478,1189 3478,791 "/>
  <polygon class="fil5" points="3169,991 3477,793 3169,594 "/>
  <polygon class="fil11" points="3173,594 3173,991 2865,793 "/>
  <polygon class="fil8" points="3170,595 3478,794 3478,396 "/>
  <path class="fil13" d="M544 2408c-56,48 -131,71 -206,71 -187,0 -338,-150 -338,-337 0,-187 151,-338 338,-338 89,0 169,33 234,94l-60 61c-47,-46 -109,-71 -174,-71 -141,0 -252,113 -252,254 0,140 111,253 252,253 56,0 113,-19 155,-56l51 69z"/>
  <path class="fil13" d="M1212 2098c-19,-119 -124,-211 -249,-211 -128,0 -231,92 -252,211l501 0zm-249 381c-187,0 -339,-150 -339,-337 0,-187 152,-338 339,-338 187,0 339,151 339,338l0 42 -591 0c21,120 124,210 252,210l4 0c50,0 99,-13 141,-41l48 68c-57,40 -122,58 -189,58l-4 0z"/>
  <polygon class="fil13" points="1404,1508 1493,1508 1493,2479 1404,2479 "/>
  <path class="fil13" d="M1705 1804l-89 0 0 675 89 0 0 -675zm0 675zm-89 -971l89 0 0 90 -89 0 0 -90z"/>
  <path class="fil13" d="M5397 2098c-19,-119 -125,-211 -250,-211 -127,0 -230,92 -252,211l502 0zm-250 381c-186,0 -339,-150 -339,-337 0,-187 153,-338 339,-338 187,0 340,151 340,338l0 42 -592 0c22,120 125,210 252,210l5 0c49,0 98,-13 140,-41l48 68c-56,40 -122,58 -188,58l-5 0z"/>
  <path class="fil13" d="M6133 2408c-55,48 -131,71 -206,71 -187,0 -338,-150 -338,-337 0,-187 151,-338 338,-338 90,0 170,33 235,94l-61 61c-47,-46 -109,-71 -174,-71 -141,0 -252,113 -252,254 0,140 111,253 252,253 57,0 113,-19 155,-56l51 69z"/>
  <path class="fil13" d="M6572 1888c-141,0 -252,116 -252,252 0,141 111,254 252,254 136,0 252,-113 252,-254 0,-136 -116,-252 -252,-252zm0 591c-189,0 -336,-150 -336,-339 0,-182 147,-336 336,-336 184,0 337,154 337,336 0,189 -153,339 -337,339z"/>
  <path class="fil13" d="M7093 1894c55,-55 130,-90 211,-90l0 84c-111,0 -211,100 -211,212l0 379 -89 0 0 -675 89 0 0 90z"/>
  <path class="fil13" d="M1910 1850c37,-29 83,-46 134,-46 72,0 139,35 180,90 39,-55 102,-90 176,-90 121,0 216,96 216,216l0 459 -84 0 0 -459c0,-75 -59,-133 -132,-133 -75,0 -134,58 -134,133l0 459 -83 0 0 -459c0,-75 -65,-133 -139,-133 -73,0 -134,58 -134,133l0 459 -82 0 0 -675 82 0 0 46z"/>
  <path class="fil13 str0" d="M1910 1850c37,-29 83,-46 134,-46 72,0 139,35 180,90 39,-55 102,-90 176,-90 121,0 216,96 216,216l0 459 -84 0 0 -459c0,-75 -59,-133 -132,-133 -75,0 -134,58 -134,133l0 459 -83 0 0 -459c0,-75 -65,-133 -139,-133 -73,0 -134,58 -134,133l0 459 -82 0 0 -675 82 0 0 46z"/>
  <path class="fil13" d="M3333 2140c0,-136 -116,-252 -252,-252 -140,0 -252,116 -252,252 0,141 112,254 252,254 136,0 252,-113 252,-254zm3 339l0 -114c-62,69 -155,114 -255,114 -188,0 -340,-150 -340,-339 0,-182 152,-336 340,-336 184,0 342,154 345,336l0 339 -90 0z"/>
  <path class="fil13 str0" d="M3333 2140c0,-136 -116,-252 -252,-252 -140,0 -252,116 -252,252 0,141 112,254 252,254 136,0 252,-113 252,-254zm3 339l0 -114c-62,69 -155,114 -255,114 -188,0 -340,-150 -340,-339 0,-182 152,-336 340,-336 184,0 342,154 345,336l0 339 -90 0z"/>
  <polygon class="fil13 str0" points="3565,1508 3654,1508 3654,2479 3565,2479 "/>
  <polygon class="fil13 str0" points="3814,1508 3903,1508 3903,2479 3814,2479 "/>
  <path class="fil13" d="M4617 2140c0,-136 -114,-252 -251,-252 -140,0 -252,116 -252,252 0,141 112,254 252,254 137,0 251,-113 251,-254zm89 -632l0 632c0,189 -156,339 -340,339 -188,0 -340,-150 -340,-339 0,-182 152,-336 340,-336 99,0 189,44 251,112l0 -408 89 0z"/>
 </g>
</svg>
