<?xml version="1.0" encoding="UTF-8" standalone="no"?>
<!-- Creator: CorelDRAW X7 -->

<svg
   xmlns:dc="http://purl.org/dc/elements/1.1/"
   xmlns:cc="http://creativecommons.org/ns#"
   xmlns:rdf="http://www.w3.org/1999/02/22-rdf-syntax-ns#"
   xmlns:svg="http://www.w3.org/2000/svg"
   xmlns="http://www.w3.org/2000/svg"
   xmlns:sodipodi="http://sodipodi.sourceforge.net/DTD/sodipodi-0.dtd"
   xmlns:inkscape="http://www.inkscape.org/namespaces/inkscape"
   xml:space="preserve"
   width="100.703mm"
   height="66.8636mm"
   version="1.1"
   style="shape-rendering:geometricPrecision; text-rendering:geometricPrecision; image-rendering:optimizeQuality; fill-rule:evenodd; clip-rule:evenodd"
   viewBox="0 0 1812 1203"
   id="svg3084"
   inkscape:version="0.48.4 r9939"
   sodipodi:docname="NovaMarcaDPSISTEMAS.svg"><metadata
   id="metadata3181"><rdf:RDF><cc:Work
       rdf:about=""><dc:format>image/svg+xml</dc:format><dc:type
         rdf:resource="http://purl.org/dc/dcmitype/StillImage" /><dc:title></dc:title></cc:Work></rdf:RDF></metadata><sodipodi:namedview
   pagecolor="#ffffff"
   bordercolor="#666666"
   borderopacity="1"
   objecttolerance="10"
   gridtolerance="10"
   guidetolerance="10"
   inkscape:pageopacity="0"
   inkscape:pageshadow="2"
   inkscape:window-width="1600"
   inkscape:window-height="837"
   id="namedview3179"
   showgrid="false"
   inkscape:zoom="2.7435621"
   inkscape:cx="178.41083"
   inkscape:cy="118.45914"
   inkscape:window-x="-8"
   inkscape:window-y="-8"
   inkscape:window-maximized="1"
   inkscape:current-layer="Camada_x0020_1" />
 <defs
   id="defs3086">
  <style
   type="text/css"
   id="style3088">
   
    .fil2 {fill:none;fill-rule:nonzero}
    .fil5 {fill:#FEFEFE}
    .fil7 {fill:#D1D2D4}
    .fil3 {fill:#CD3539}
    .fil4 {fill:#AB3639}
    .fil1 {fill:#302E3F}
    .fil6 {fill:#FEFEFE;fill-rule:nonzero}
    .fil9 {fill:#FFF13C;fill-rule:nonzero}
    .fil8 {fill:#DC853D;fill-rule:nonzero}
    .fil0 {fill:#414192;fill-rule:nonzero}
   
  </style>
   <clipPath
   id="id0"
   style="clip-rule:nonzero">
    <path
   d="M223 922l-128 0c-4,0 -8,2 -11,5 -3,4 -5,8 -6,13l0 0c-2,12 2,17 12,17l72 0c22,0 37,6 44,16 4,7 5,17 3,31l-4 24c-2,17 -10,30 -23,39 -12,9 -25,13 -40,13l-142 0 7 -45 127 0c10,0 16,-6 18,-17l0 -1c2,-10 -2,-16 -11,-17l-73 0c-15,0 -27,-4 -35,-12 -11,-10 -14,-23 -11,-40l4 -26c2,-14 7,-24 13,-31 11,-10 27,-16 49,-16l142 0 -7 47zm64 158l-54 0 33 -205 54 0 -33 205zm262 -158l-128 0c-5,0 -8,2 -12,5 -3,4 -5,8 -5,13l-1 0c-1,12 3,17 13,17l72 0c22,0 37,6 43,16 5,7 6,17 4,31l-4 24c-3,17 -10,30 -24,39 -11,9 -24,13 -39,13l-142 0 7 -45 127 0c10,0 16,-6 18,-17l0 -1c2,-10 -2,-16 -11,-17l-73 0c-15,0 -27,-4 -36,-12 -10,-10 -13,-23 -11,-40l4 -26c3,-14 7,-24 14,-31 10,-10 27,-16 49,-16l142 0 -7 47zm218 0l-67 0 -25 158 -55 0 26 -158 -67 0 7 -47 189 0 -8 47zm188 158l-196 0 33 -205 196 0 -8 47 -140 0 -6 32 106 0 -8 48 -105 0 -5 31 141 0 -8 47zm369 0l-55 0 22 -138c2,-8 1,-13 -3,-16 -3,-2 -9,-4 -17,-4l-62 0 -26 158 -55 0 23 -138c1,-8 0,-13 -4,-16 -3,-2 -9,-4 -17,-4l-62 0 -26 158 -55 0 33 -205 282 0c15,0 26,4 34,10 12,9 16,23 13,43l-25 152zm236 0l-55 0 8 -50 -86 0 -8 50 -55 0 26 -158c5,-31 25,-47 59,-47l144 0 -33 205zm-40 -91l11 -67 -70 0c-11,0 -17,6 -20,19l-7 48 86 0zm285 -67l-128 0c-4,0 -8,2 -11,5 -4,4 -6,8 -6,13l0 0c-2,12 2,17 12,17l72 0c22,0 37,6 44,16 4,7 5,17 3,31l-4 24c-2,17 -10,30 -23,39 -12,9 -25,13 -40,13l-142 0 7 -45 127 0c10,0 16,-6 18,-17l0 -1c2,-10 -2,-16 -11,-17l-73 0c-15,0 -27,-4 -36,-12 -10,-10 -13,-23 -10,-40l4 -26c2,-14 6,-24 13,-31 11,-10 27,-16 49,-16l142 0 -7 47z"
   id="path3091" />
   </clipPath>
     <mask
   id="id1">
  <linearGradient
   id="id2"
   gradientUnits="userSpaceOnUse"
   x1="943.89"
   y1="978.041"
   x2="943.89"
   y2="1104.94">
   <stop
   offset="0"
   style="stop-opacity:1; stop-color:white"
   id="stop3095" />
   <stop
   offset="1"
   style="stop-opacity:0; stop-color:white"
   id="stop3097" />
  </linearGradient>
      <rect
   style="fill:url(#id2)"
   x="-51"
   y="958"
   width="1989"
   height="166"
   id="rect3099" />
     </mask>
   <mask
   id="id3">
  <linearGradient
   id="id4"
   gradientUnits="userSpaceOnUse"
   x1="962.381"
   y1="450.485"
   x2="1042.17"
   y2="370.69">
   <stop
   offset="0"
   style="stop-opacity:1; stop-color:white"
   id="stop3103" />
   <stop
   offset="1"
   style="stop-opacity:0; stop-color:white"
   id="stop3105" />
  </linearGradient>
    <rect
   style="fill:url(#id4)"
   x="602"
   y="10"
   width="802"
   height="802"
   id="rect3107" />
   </mask>
   <mask
   id="id5">
  <linearGradient
   id="id6"
   gradientUnits="userSpaceOnUse"
   x1="1002.28"
   y1="4.81213"
   x2="1002.28"
   y2="402.592">
   <stop
   offset="0"
   style="stop-opacity:1; stop-color:white"
   id="stop3111" />
   <stop
   offset="1"
   style="stop-opacity:0; stop-color:white"
   id="stop3113" />
  </linearGradient>
    <rect
   style="fill:url(#id6)"
   x="595"
   y="3"
   width="815"
   height="401"
   id="rect3115" />
   </mask>
   <mask
   id="id7">
  <linearGradient
   id="id8"
   gradientUnits="userSpaceOnUse"
   x1="1002.28"
   y1="6.7305"
   x2="1002.28"
   y2="191.391">
   <stop
   offset="0"
   style="stop-opacity:1; stop-color:white"
   id="stop3119" />
   <stop
   offset="1"
   style="stop-opacity:0; stop-color:white"
   id="stop3121" />
  </linearGradient>
    <rect
   style="fill:url(#id8)"
   x="701"
   y="5"
   width="603"
   height="188"
   id="rect3123" />
   </mask>
   <mask
   id="id9">
  <linearGradient
   id="id10"
   gradientUnits="userSpaceOnUse"
   x1="1002.28"
   y1="6.7323"
   x2="1002.28"
   y2="93.7321">
   <stop
   offset="0"
   style="stop-opacity:1; stop-color:white"
   id="stop3127" />
   <stop
   offset="1"
   style="stop-opacity:0; stop-color:white"
   id="stop3129" />
  </linearGradient>
    <rect
   style="fill:url(#id10)"
   x="849"
   y="5"
   width="305.991"
   height="90.6008"
   id="rect3131" />
   </mask>
   <clipPath
   id="id11"
   style="clip-rule:nonzero">
    <path
   d="M1032 66l-81 499 -104 0 7 -43c-18,19 -33,31 -46,37 -17,9 -36,13 -55,13 -40,0 -68,-15 -84,-45 -16,-30 -21,-67 -15,-110 8,-48 25,-85 52,-110 27,-26 58,-38 94,-38 17,0 32,3 45,8 14,6 25,15 34,27l40 -238 113 0zm-170 353c4,-22 1,-39 -7,-51 -8,-11 -19,-16 -34,-16 -13,0 -24,5 -35,16 -10,11 -17,29 -21,54 -4,24 -2,41 5,52 8,11 18,16 31,16 15,0 27,-5 38,-16 12,-11 19,-29 23,-55zm90 355l74 -499 105 0 -7 43c17,-18 32,-30 45,-37 18,-8 36,-12 56,-12 39,0 67,14 83,44 17,30 22,67 15,110 -7,49 -24,85 -51,111 -27,25 -59,38 -94,38 -17,0 -32,-3 -46,-9 -13,-6 -24,-14 -33,-26l-34 237 -113 0zm164 -353c-4,23 -2,40 6,51 8,11 20,17 34,17 13,0 25,-5 35,-16 11,-11 18,-29 22,-54 3,-24 1,-41 -6,-52 -7,-11 -18,-17 -31,-17 -14,0 -27,6 -38,17 -11,11 -19,29 -22,54z"
   id="path3134" />
   </clipPath>
     <mask
   id="id12">
  <linearGradient
   id="id13"
   gradientUnits="userSpaceOnUse"
   x1="999.461"
   y1="510.85"
   x2="999.461"
   y2="710.577">
   <stop
   offset="0"
   style="stop-opacity:1; stop-color:white"
   id="stop3138" />
   <stop
   offset="1"
   style="stop-opacity:0; stop-color:white"
   id="stop3140" />
  </linearGradient>
      <rect
   style="fill:url(#id13)"
   x="474"
   y="382"
   width="1051"
   height="458"
   id="rect3142" />
     </mask>
 </defs>
 <g
   id="Camada_x0020_1">
  <metadata
   id="CorelCorpID_0Corel-Layer" />
  <path
   class="fil0"
   d="M223 922l-128 0c-4,0 -8,2 -11,5 -3,4 -5,8 -6,13l0 0c-2,12 2,17 12,17l72 0c22,0 37,6 44,16 4,7 5,17 3,31l-4 24c-2,17 -10,30 -23,39 -12,9 -25,13 -40,13l-142 0 7 -45 127 0c10,0 16,-6 18,-17l0 -1c2,-10 -2,-16 -11,-17l-73 0c-15,0 -27,-4 -35,-12 -11,-10 -14,-23 -11,-40l4 -26c2,-14 7,-24 13,-31 11,-10 27,-16 49,-16l142 0 -7 47zm64 158l-54 0 33 -205 54 0 -33 205zm262 -158l-128 0c-5,0 -8,2 -12,5 -3,4 -5,8 -5,13l-1 0c-1,12 3,17 13,17l72 0c22,0 37,6 43,16 5,7 6,17 4,31l-4 24c-3,17 -10,30 -24,39 -11,9 -24,13 -39,13l-142 0 7 -45 127 0c10,0 16,-6 18,-17l0 -1c2,-10 -2,-16 -11,-17l-73 0c-15,0 -27,-4 -36,-12 -10,-10 -13,-23 -11,-40l4 -26c3,-14 7,-24 14,-31 10,-10 27,-16 49,-16l142 0 -7 47zm218 0l-67 0 -25 158 -55 0 26 -158 -67 0 7 -47 189 0 -8 47zm188 158l-196 0 33 -205 196 0 -8 47 -140 0 -6 32 106 0 -8 48 -105 0 -5 31 141 0 -8 47zm369 0l-55 0 22 -138c2,-8 1,-13 -3,-16 -3,-2 -9,-4 -17,-4l-62 0 -26 158 -55 0 23 -138c1,-8 0,-13 -4,-16 -3,-2 -9,-4 -17,-4l-62 0 -26 158 -55 0 33 -205 282 0c15,0 26,4 34,10 12,9 16,23 13,43l-25 152zm236 0l-55 0 8 -50 -86 0 -8 50 -55 0 26 -158c5,-31 25,-47 59,-47l144 0 -33 205zm-40 -91l11 -67 -70 0c-11,0 -17,6 -20,19l-7 48 86 0zm285 -67l-128 0c-4,0 -8,2 -11,5 -4,4 -6,8 -6,13l0 0c-2,12 2,17 12,17l72 0c22,0 37,6 44,16 4,7 5,17 3,31l-4 24c-2,17 -10,30 -23,39 -12,9 -25,13 -40,13l-142 0 7 -45 127 0c10,0 16,-6 18,-17l0 -1c2,-10 -2,-16 -11,-17l-73 0c-15,0 -27,-4 -36,-12 -10,-10 -13,-23 -10,-40l4 -26c2,-14 6,-24 13,-31 11,-10 27,-16 49,-16l142 0 -7 47z"
   id="path3146" />
  <g
   style="clip-path:url(#id0)"
   id="g3148"
   clip-path="url(#id0)">
   <g
   id="_360025912">
    <polygon
   id="1"
   class="fil1"
   style="mask:url(#id1)"
   points="-49,1123 -36,994 1937,960 1928,1085 "
   mask="url(#id1)" />
   </g>
  </g>
  <path
   class="fil2"
   d="M223 922l-128 0c-4,0 -8,2 -11,5 -3,4 -5,8 -6,13l0 0c-2,12 2,17 12,17l72 0c22,0 37,6 44,16 4,7 5,17 3,31l-4 24c-2,17 -10,30 -23,39 -12,9 -25,13 -40,13l-142 0 7 -45 127 0c10,0 16,-6 18,-17l0 -1c2,-10 -2,-16 -11,-17l-73 0c-15,0 -27,-4 -35,-12 -11,-10 -14,-23 -11,-40l4 -26c2,-14 7,-24 13,-31 11,-10 27,-16 49,-16l142 0 -7 47zm64 158l-54 0 33 -205 54 0 -33 205zm262 -158l-128 0c-5,0 -8,2 -12,5 -3,4 -5,8 -5,13l-1 0c-1,12 3,17 13,17l72 0c22,0 37,6 43,16 5,7 6,17 4,31l-4 24c-3,17 -10,30 -24,39 -11,9 -24,13 -39,13l-142 0 7 -45 127 0c10,0 16,-6 18,-17l0 -1c2,-10 -2,-16 -11,-17l-73 0c-15,0 -27,-4 -36,-12 -10,-10 -13,-23 -11,-40l4 -26c3,-14 7,-24 14,-31 10,-10 27,-16 49,-16l142 0 -7 47zm218 0l-67 0 -25 158 -55 0 26 -158 -67 0 7 -47 189 0 -8 47zm188 158l-196 0 33 -205 196 0 -8 47 -140 0 -6 32 106 0 -8 48 -105 0 -5 31 141 0 -8 47zm369 0l-55 0 22 -138c2,-8 1,-13 -3,-16 -3,-2 -9,-4 -17,-4l-62 0 -26 158 -55 0 23 -138c1,-8 0,-13 -4,-16 -3,-2 -9,-4 -17,-4l-62 0 -26 158 -55 0 33 -205 282 0c15,0 26,4 34,10 12,9 16,23 13,43l-25 152zm236 0l-55 0 8 -50 -86 0 -8 50 -55 0 26 -158c5,-31 25,-47 59,-47l144 0 -33 205zm-40 -91l11 -67 -70 0c-11,0 -17,6 -20,19l-7 48 86 0zm285 -67l-128 0c-4,0 -8,2 -11,5 -4,4 -6,8 -6,13l0 0c-2,12 2,17 12,17l72 0c22,0 37,6 44,16 4,7 5,17 3,31l-4 24c-2,17 -10,30 -23,39 -12,9 -25,13 -40,13l-142 0 7 -45 127 0c10,0 16,-6 18,-17l0 -1c2,-10 -2,-16 -11,-17l-73 0c-15,0 -27,-4 -36,-12 -10,-10 -13,-23 -10,-40l4 -26c2,-14 6,-24 13,-31 11,-10 27,-16 49,-16l142 0 -7 47z"
   id="path3152" />
  <path
   class="fil3"
   d="M1002 0c227,0 411,184 411,411 0,203 -148,372 -343,405 -10,3 -21,5 -32,5l-22 0c-5,0 -9,0 -14,0 -4,0 -9,0 -13,0l-298 0c-55,0 -99,-45 -99,-99l0 -310 0 0c0,-1 0,-1 0,-1 0,-227 184,-411 410,-411z"
   id="path3154" />
  <path
   class="fil4"
   style="mask:url(#id3)"
   d="M1002 12c221,0 399,178 399,399 0,197 -144,362 -333,393 -9,3 -20,5 -31,5l-21 0c-5,0 -9,1 -14,1 -4,0 -9,-1 -13,-1l-289 0c-53,0 -97,-43 -97,-96l0 -301 0 0c0,-1 0,-1 0,-1 0,-221 179,-399 399,-399z"
   id="path3156"
   mask="url(#id3)" />
  <path
   class="fil5"
   style="mask:url(#id5)"
   d="M1002 5c222,0 402,177 406,398l-811 0c4,-221 184,-398 405,-398z"
   id="path3158"
   mask="url(#id5)" />
  <path
   class="fil5"
   style="mask:url(#id7)"
   d="M1002 7c164,0 297,82 300,184l-599 0c3,-102 136,-184 299,-184z"
   id="path3160"
   mask="url(#id7)" />
  <path
   class="fil5"
   style="mask:url(#id9)"
   d="M1002 7c83,0 150,39 151,87l-302 0c2,-48 69,-87 151,-87z"
   id="path3162"
   mask="url(#id9)" />
  <path
   class="fil6"
   d="M1032 66l-81 499 -104 0 7 -43c-18,19 -33,31 -46,37 -17,9 -36,13 -55,13 -40,0 -68,-15 -84,-45 -16,-30 -21,-67 -15,-110 8,-48 25,-85 52,-110 27,-26 58,-38 94,-38 17,0 32,3 45,8 14,6 25,15 34,27l40 -238 113 0zm-170 353c4,-22 1,-39 -7,-51 -8,-11 -19,-16 -34,-16 -13,0 -24,5 -35,16 -10,11 -17,29 -21,54 -4,24 -2,41 5,52 8,11 18,16 31,16 15,0 27,-5 38,-16 12,-11 19,-29 23,-55zm90 355l74 -499 105 0 -7 43c17,-18 32,-30 45,-37 18,-8 36,-12 56,-12 39,0 67,14 83,44 17,30 22,67 15,110 -7,49 -24,85 -51,111 -27,25 -59,38 -94,38 -17,0 -32,-3 -46,-9 -13,-6 -24,-14 -33,-26l-34 237 -113 0zm164 -353c-4,23 -2,40 6,51 8,11 20,17 34,17 13,0 25,-5 35,-16 11,-11 18,-29 22,-54 3,-24 1,-41 -6,-52 -7,-11 -18,-17 -31,-17 -14,0 -27,6 -38,17 -11,11 -19,29 -22,54z"
   id="path3164" />
  <g
   style="clip-path:url(#id11)"
   id="g3166"
   clip-path="url(#id11)">
   <g
   id="_360027424">
    <polygon
   id="polygon3169"
   class="fil7"
   style="mask:url(#id12)"
   points="603,831 476,527 1523,384 1330,838 "
   mask="url(#id12)" />
   </g>
  </g>
  <path
   class="fil2"
   d="M1032 66l-81 499 -104 0 7 -43c-18,19 -33,31 -46,37 -17,9 -36,13 -55,13 -40,0 -68,-15 -84,-45 -16,-30 -21,-67 -15,-110 8,-48 25,-85 52,-110 27,-26 58,-38 94,-38 17,0 32,3 45,8 14,6 25,15 34,27l40 -238 113 0zm-170 353c4,-22 1,-39 -7,-51 -8,-11 -19,-16 -34,-16 -13,0 -24,5 -35,16 -10,11 -17,29 -21,54 -4,24 -2,41 5,52 8,11 18,16 31,16 15,0 27,-5 38,-16 12,-11 19,-29 23,-55zm90 355l74 -499 105 0 -7 43c17,-18 32,-30 45,-37 18,-8 36,-12 56,-12 39,0 67,14 83,44 17,30 22,67 15,110 -7,49 -24,85 -51,111 -27,25 -59,38 -94,38 -17,0 -32,-3 -46,-9 -13,-6 -24,-14 -33,-26l-34 237 -113 0zm164 -353c-4,23 -2,40 6,51 8,11 20,17 34,17 13,0 25,-5 35,-16 11,-11 18,-29 22,-54 3,-24 1,-41 -6,-52 -7,-11 -18,-17 -31,-17 -14,0 -27,6 -38,17 -11,11 -19,29 -22,54z"
   id="path3171" />
  <path
   class="fil8"
   d="M87 1170c-2,5 -5,9 -9,13 -4,4 -8,5 -13,5l-51 0 4 -13 51 0c2,0 3,-2 4,-5 1,-3 0,-4 -2,-4l-37 0c-5,0 -8,-2 -10,-6 -2,-3 -3,-7 -1,-12 1,-5 4,-10 8,-13 5,-4 9,-6 14,-6l51 0 -4 14 -51 0c-2,0 -3,2 -4,5 -1,2 -1,4 1,4l37 0c5,0 9,2 11,5 2,4 2,8 1,13zm97 0c-2,5 -5,9 -9,13 -5,4 -10,5 -16,5l-34 0c-6,0 -10,-1 -12,-5 -3,-4 -4,-8 -2,-13l6 -22c2,-5 5,-10 10,-13 5,-4 10,-6 15,-6l35 0c5,0 9,2 12,6 2,3 3,8 1,13l-6 22zm-14 0l7 -22c1,-3 -1,-5 -4,-5l-35 0c-4,0 -6,2 -7,5l-6 22c-1,3 0,5 4,5l34 0c4,0 6,-2 7,-5zm92 18l-59 0 17 -59 14 0 -13 46 45 0 -4 13zm102 -18c-2,5 -4,9 -9,13 -4,3 -8,5 -13,5l-39 0c-5,0 -9,-2 -11,-5 -2,-4 -2,-8 -1,-13l12 -41 14 0 -12 41c-1,3 0,4 2,4l39 0c2,0 3,-1 4,-4l12 -41 14 0 -12 41zm84 18l-46 0c-5,0 -9,-1 -12,-5 -3,-4 -3,-8 -2,-13l7 -22c1,-5 4,-10 9,-13 5,-4 10,-6 15,-6l46 0 -4 14 -46 0c-3,0 -6,2 -7,5l-6 22c-1,3 0,5 4,5l46 0 -4 13zm102 -18c-1,5 -4,9 -9,13 -5,4 -10,5 -15,5l-35 0c-5,0 -9,-1 -12,-5 -3,-4 -3,-8 -2,-13l7 -22c1,-5 4,-10 9,-13 5,-4 10,-6 15,-6l35 0c5,0 9,2 12,6 3,3 3,8 2,13l-7 22zm-13 0l6 -22c1,-3 0,-5 -4,-5l-35 0c-3,0 -6,2 -7,5l-6 22c-1,3 0,5 4,5l35 0c3,0 6,-2 7,-5zm108 -27l-49 0 -2 9 45 0 -4 14 -45 0 -3 9 49 0 -4 13 -63 0 17 -59 63 0 -4 14zm87 27c-2,5 -4,9 -8,13 -5,4 -9,5 -14,5l-51 0 4 -13 51 0c2,0 3,-2 4,-5 1,-3 1,-4 -1,-4l-37 0c-5,0 -9,-2 -11,-6 -2,-3 -2,-7 -1,-12 2,-5 5,-10 9,-13 4,-4 8,-6 13,-6l51 0 -4 14 -51 0c-2,0 -3,2 -4,5 -1,2 0,4 2,4l37 0c5,0 8,2 10,5 2,4 2,8 1,13zm90 18l-14 0 17 -59 14 0 -17 59zm87 0l-14 0 -23 -39 -12 39 -14 0 17 -59 14 0 24 40 12 -40 13 0 -17 59zm104 -45l-26 0 -14 45 -13 0 13 -45 -26 0 4 -14 66 0 -4 14zm87 0l-49 0 -3 9 46 0 -4 14 -46 0 -3 9 49 0 -4 13 -62 0 17 -59 63 0 -4 14zm70 45l-59 0 17 -59 14 0 -14 46 46 0 -4 13zm38 0l-14 0 17 -59 14 0 -17 59zm89 0l-46 0c-5,0 -9,-1 -12,-5 -3,-4 -3,-8 -2,-13l7 -22c1,-5 5,-10 9,-13 5,-4 10,-6 16,-6l45 0 -4 14 -46 0c-3,0 -6,2 -6,5l-7 22c-1,3 1,5 4,5l32 0 3 -9 -19 0 4 -14 32 0 -10 36zm100 -45l-49 0 -3 9 46 0 -4 14 -46 0 -2 9 49 0 -4 13 -63 0 17 -59 63 0 -4 14zm74 45l-14 0 -23 -39 -12 39 -14 0 17 -59 14 0 24 40 12 -40 13 0 -17 59zm104 -45l-26 0 -13 45 -14 0 13 -45 -26 0 4 -14 66 0 -4 14zm87 0l-49 0 -3 9 46 0 -4 14 -46 0 -3 9 49 0 -4 13 -62 0 17 -59 63 0 -4 14zm86 27c-1,5 -4,9 -8,13 -4,4 -9,5 -14,5l-50 0 4 -13 50 0c2,0 4,-2 5,-5 1,-3 0,-4 -2,-4l-37 0c-5,0 -8,-2 -10,-6 -2,-3 -3,-7 -1,-12 1,-5 4,-10 8,-13 4,-4 9,-6 14,-6l51 0 -4 14 -51 0c-2,0 -4,2 -4,5 -1,2 -1,4 1,4l37 0c5,0 9,2 11,5 2,4 2,8 0,13z"
   id="path3173" />
  <polygon
   class="fil8"
   points="403,1203 413,1184 419,1184 414,1203 "
   id="polygon3175" />
  <path
   class="fil9"
   d="M494 1114l4 -11c5,-5 11,-7 17,-7 2,0 5,1 7,1 2,1 5,2 9,4 2,1 4,2 5,2 2,1 3,1 4,1 3,0 5,-1 8,-3 3,-1 6,-3 9,-5l-4 12c-3,2 -6,4 -8,5 -3,1 -6,1 -9,1 -2,0 -4,0 -6,-1 -2,0 -5,-1 -9,-3 -4,-2 -7,-3 -10,-3 -2,0 -5,0 -7,1 -3,1 -6,3 -10,6z"
   id="path3177"
   style="fill:#dc853d;fill-opacity:1" />
 </g>
</svg>