<?xml version="1.0" encoding="UTF-8"?>
<!DOCTYPE svg PUBLIC "-//W3C//DTD SVG 1.1//EN" "http://www.w3.org/Graphics/SVG/1.1/DTD/svg11.dtd">
<!-- Creator: CorelDRAW X7 -->
<svg xmlns="http://www.w3.org/2000/svg" xml:space="preserve" width="152.457mm" height="163.973mm" version="1.1" style="shape-rendering:geometricPrecision; text-rendering:geometricPrecision; image-rendering:optimizeQuality; fill-rule:evenodd; clip-rule:evenodd"
viewBox="0 0 15246 16397"
 xmlns:xlink="http://www.w3.org/1999/xlink">
 <defs>
  <style type="text/css">
   <![CDATA[
    .fil1 {fill:#FEFEFE}
    .fil0 {fill:#ED3237}
    .fil2 {fill:#00A859}
    .fil3 {fill:#3E4095}
   ]]>
  </style>
 </defs>
 <g id="Camada_x0020_1">
  <metadata id="CorelCorpID_0Corel-Layer"/>
  <g id="_363454648">
   <g>
    <polygon class="fil0" points="0,0 15236,0 15236,3324 0,3324 "/>
    <path class="fil1" d="M1197 2588l0 -1734 1086 0 0 382 -615 0 0 302 579 0 0 374 -579 0 0 676 -471 0zm2542 -649l0 0 488 0 -181 -569c-9,-18 -18,-45 -27,-89 -9,-36 -18,-89 -36,-143 -9,36 -18,80 -36,116 -9,44 -18,80 -27,116l-181 569zm-678 649l0 0 615 -1734 606 0 615 1734 -480 0 -90 -311 -688 0 -99 311 -479 0zm2777 0l0 0 0 -1734 461 0 678 898c9,18 36,53 63,107 28,53 64,115 100,195 -9,-71 -18,-133 -18,-195 -9,-54 -9,-107 -9,-143l0 -862 461 0 0 1734 -461 0 -679 -898c-9,-18 -36,-54 -63,-107 -27,-53 -63,-116 -99,-196 9,71 18,143 27,196 0,53 0,107 0,151l0 854 -461 0zm2885 0l0 0 0 -1734 1094 0 0 382 -624 0 0 302 588 0 0 374 -588 0 0 293 624 0 0 383 -1094 0zm2252 -560l0 0c73,80 145,142 217,177 73,45 136,63 208,63 64,0 118,-18 163,-54 45,-26 63,-71 63,-124 0,-62 -18,-107 -54,-134 -36,-35 -117,-62 -244,-97 -181,-45 -299,-107 -371,-178 -72,-71 -108,-178 -108,-303 0,-169 54,-302 171,-409 109,-106 263,-160 444,-160 99,0 190,18 280,45 91,18 172,62 244,115l-145 338c-63,-44 -117,-80 -171,-106 -64,-18 -118,-36 -172,-36 -63,0 -109,18 -145,44 -36,27 -54,63 -54,107 0,45 18,80 45,107 36,27 99,44 190,71 0,0 9,0 18,9 199,53 335,107 389,169 45,44 81,98 99,151 28,62 37,133 37,205 0,186 -64,329 -190,444 -127,107 -290,160 -498,160 -126,0 -235,-26 -334,-53 -109,-45 -208,-107 -299,-196l217 -355zm2135 560l0 0 0 -1734 1094 0 0 382 -615 0 0 302 579 0 0 374 -579 0 0 293 615 0 0 383 -1094 0z"/>
    <path class="fil2" d="M7718 16397c5024,-3218 7528,-7284 7528,-12863l-15231 0c0,5380 2148,9645 7703,12863z"/>
    <path class="fil0" d="M4177 6607l3441 -1901 3417 1961 10 3872 -3435 1912 -3442 -1976 9 -3868zm152 87l0 0 -8 3697 3289 1887 3282 -1827 -10 -3699 -3264 -1874 -3289 1816z"/>
    <path class="fil3" d="M2476 7881l1422 0 0 1398 -1422 0 0 -1398zm95 648l0 0 565 -555 -565 0 0 555zm668 -555l0 0 565 555 0 -555 -565 0zm565 657l0 0 -565 555 565 0 0 -555zm-668 555l0 0 -565 -555 0 555 565 0z"/>
    <path class="fil3" d="M5687 3868l712 1211 -1232 699 -711 -1211 1231 -699zm-523 405l0 0 771 203 -282 -480 -489 277zm823 292l0 0 -207 758 489 -278 -282 -480zm-297 808l0 0 -771 -203 283 481 488 -278zm-822 -291l0 0 206 -758 -489 278 283 480z"/>
    <path class="fil3" d="M10828 4596l-711 1211 -1232 -699 711 -1211 1232 699zm-619 -244l0 0 207 759 282 -481 -489 -278zm155 847l0 0 -771 203 489 277 282 -480zm-860 152l0 0 -207 -758 -282 480 489 278zm-155 -846l0 0 771 -203 -489 -278 -282 481z"/>
    <path class="fil3" d="M12757 9336l-1422 0 0 -1398 1422 0 0 1398zm-95 -648l0 0 -564 555 564 0 0 -555zm-668 555l0 0 -564 -555 0 555 564 0zm-564 -657l0 0 565 -555 -565 0 0 555zm668 -555l0 0 564 555 0 -555 -564 0z"/>
    <path class="fil3" d="M9546 13349l-711 -1211 1232 -699 711 1211 -1232 699zm524 -405l0 0 -771 -203 282 480 489 -277zm-823 -291l0 0 207 -758 -489 277 282 481zm296 -809l0 0 771 203 -282 -481 -489 278zm823 291l0 0 -207 758 489 -277 -282 -481z"/>
    <path class="fil3" d="M4406 12621l711 -1211 1231 699 -711 1211 -1231 -699zm618 244l0 0 -206 -759 -283 481 489 278zm-155 -847l0 0 771 -203 -488 -277 -283 480zm861 -152l0 0 207 758 282 -480 -489 -278zm155 846l0 0 -771 203 489 278 282 -481z"/>
   </g>
  </g>
 </g>
</svg>
