<?xml version="1.0" encoding="UTF-8"?>
<!DOCTYPE svg PUBLIC "-//W3C//DTD SVG 1.1//EN" "http://www.w3.org/Graphics/SVG/1.1/DTD/svg11.dtd">
<!-- Creator: CorelDRAW X7 -->
<svg xmlns="http://www.w3.org/2000/svg" xml:space="preserve" width="101.214mm" height="27.5699mm" version="1.1" style="shape-rendering:geometricPrecision; text-rendering:geometricPrecision; image-rendering:optimizeQuality; fill-rule:evenodd; clip-rule:evenodd"
viewBox="0 0 6431 1752"
 xmlns:xlink="http://www.w3.org/1999/xlink">
 <defs>
  <style type="text/css">
   <![CDATA[
    .fil1 {fill:#E6E7E8}
    .fil3 {fill:#00ADED}
    .fil0 {fill:#0F62AC}
    .fil2 {fill:url(#id0)}
   ]]>
  </style>
  <linearGradient id="id0" gradientUnits="userSpaceOnUse" x1="496.248" y1="392.383" x2="569.512" y2="780.699">
   <stop offset="0" style="stop-opacity:1; stop-color:#0098DA"/>
   <stop offset="0.470588" style="stop-opacity:1; stop-color:#00AFEF"/>
   <stop offset="1" style="stop-opacity:1; stop-color:#0098DA"/>
  </linearGradient>
 </defs>
 <g id="Contorno">
  <metadata id="CorelCorpID_0Corel-Layer"/>
  <g id="_338002640">
   <path class="fil0" d="M2112 1011l0 -362c0,-56 -18,-84 -58,-84 -40,0 -59,28 -59,84l0 362c0,56 19,84 59,84 40,0 58,-28 58,-84zm213 0l0 -237 213 281c22,30 42,43 67,43 38,0 54,-25 54,-73l0 -376c0,-56 -19,-84 -59,-84 -40,0 -59,28 -59,84l0 242 -217 -287c-19,-25 -36,-38 -63,-38 -37,0 -54,27 -54,79l0 366c0,56 19,84 59,84 40,0 59,-28 59,-84zm639 -439l-132 0c-66,0 -82,25 -82,83l0 356c0,56 19,84 59,84 40,0 59,-28 59,-84l0 -128 83 0c56,0 84,-18 84,-55 0,-37 -28,-54 -84,-54l-83 0 0 -92 96 0c56,0 84,-18 84,-55 0,-37 -28,-55 -84,-55zm116 259c0,163 101,273 253,273 153,0 254,-110 254,-273 0,-165 -103,-274 -254,-274 -150,0 -253,109 -253,274zm127 1c0,-102 51,-163 126,-163 75,0 126,61 126,163 0,98 -52,159 -126,159 -74,0 -126,-61 -126,-159zm558 261c99,0 164,-71 164,-164 0,-166 -246,-120 -246,-234 0,-42 40,-80 94,-80 55,0 73,36 100,36 9,0 21,-12 21,-28 0,-24 -61,-56 -117,-56 -79,2 -150,48 -150,132 0,157 246,109 246,233 0,55 -47,113 -120,113 -37,0 -79,-22 -85,-27 -6,-5 -19,-12 -25,-12 -14,0 -25,11 -25,25 0,28 57,62 143,62zm279 -493c0,-22 -10,-33 -26,-33 -17,0 -27,11 -27,33l0 459c0,22 10,34 27,34 16,0 26,-12 26,-34l0 -459zm205 493c99,0 164,-71 164,-164 0,-166 -246,-120 -246,-234 0,-42 40,-80 94,-80 55,0 73,36 100,36 9,0 21,-12 21,-28 0,-24 -61,-56 -117,-56 -79,2 -150,48 -150,132 0,157 246,109 246,233 0,55 -47,113 -120,113 -37,0 -80,-22 -85,-27 -6,-5 -19,-12 -25,-12 -14,0 -25,11 -25,25 0,28 57,62 143,62zm359 -474l101 0c16,0 27,-11 27,-24 0,-13 -11,-24 -27,-24l-253 0c-17,0 -28,11 -28,24 0,13 11,24 28,24l100 0 0 440c0,22 9,34 26,34 17,0 26,-12 26,-34l0 -440zm229 235l145 0c16,0 27,-10 27,-23 0,-14 -11,-24 -27,-24l-144 0 0 -188 150 0c17,0 28,-11 28,-24 0,-13 -11,-24 -28,-24l-171 0c-23,0 -32,10 -32,28l0 462c0,18 9,27 32,27l179 0c16,0 27,-10 27,-24 0,-13 -11,-24 -27,-24l-159 0 0 -186zm526 148l-2 0 -115 -401c-6,-22 -19,-34 -40,-34 -23,0 -48,7 -53,40l-62 415c-2,13 -7,40 -7,47 0,20 14,24 25,24 19,0 25,-13 28,-31l64 -437 2 0 133 441c5,16 11,27 26,27 16,0 23,-9 31,-35l129 -435 2 0 64 439c3,18 9,31 28,31 11,0 25,-4 25,-24 0,-7 -5,-34 -7,-47l-62 -415c-5,-33 -30,-40 -53,-40 -21,0 -32,12 -39,34l-117 401zm399 -26l252 0 34 93c5,13 11,24 29,24 15,0 23,-10 23,-21 0,-5 -2,-14 -5,-21l-166 -446c-7,-17 -15,-38 -41,-38 -26,0 -34,21 -41,38l-166 446c-3,7 -5,16 -5,21 0,11 8,21 23,21 18,0 22,-11 29,-24l34 -93zm234 -48l-216 0 107 -293 2 0 107 293zm271 165c100,0 164,-71 164,-164 0,-166 -245,-120 -245,-234 0,-42 39,-80 93,-80 56,0 73,36 100,36 9,0 22,-12 22,-28 0,-24 -61,-56 -118,-56 -78,2 -150,48 -150,132 0,157 246,109 246,233 0,55 -46,113 -119,113 -37,0 -80,-22 -86,-27 -6,-5 -19,-12 -25,-12 -13,0 -24,11 -24,25 0,28 56,62 142,62z"/>
   <path class="fil0" d="M1981 1352l29 -2c2,9 5,16 11,21 5,4 12,7 21,7 10,0 17,-2 22,-6 5,-4 7,-9 7,-15 0,-3 -1,-6 -3,-8 -2,-3 -6,-5 -11,-7 -3,-1 -11,-3 -23,-6 -16,-4 -27,-9 -34,-15 -9,-8 -13,-18 -13,-29 0,-8 2,-15 6,-21 4,-7 10,-12 18,-15 8,-4 18,-5 29,-5 19,0 33,4 42,12 9,8 14,19 15,32l-30 2c-1,-8 -4,-13 -8,-17 -4,-3 -11,-5 -19,-5 -9,0 -15,2 -20,6 -3,2 -5,5 -5,9 0,3 1,6 4,9 4,3 13,6 28,9 14,4 25,7 32,11 7,4 12,9 16,15 4,6 6,14 6,23 0,9 -3,17 -7,24 -5,7 -12,13 -20,16 -9,4 -19,6 -32,6 -19,0 -33,-5 -43,-13 -10,-9 -16,-21 -18,-38zm221 48l0 -147 29 0 0 147 -29 0zm127 -48l29 -2c2,9 5,16 10,21 6,4 13,7 22,7 9,0 17,-2 21,-6 5,-4 8,-9 8,-15 0,-3 -1,-6 -3,-8 -2,-3 -6,-5 -11,-7 -3,-1 -11,-3 -24,-6 -16,-4 -27,-9 -33,-15 -9,-8 -14,-18 -14,-29 0,-8 2,-15 7,-21 4,-7 10,-12 18,-15 8,-4 18,-5 29,-5 18,0 32,4 42,12 9,8 14,19 14,32l-29 2c-2,-8 -4,-13 -9,-17 -4,-3 -10,-5 -18,-5 -9,0 -16,2 -21,6 -3,2 -4,5 -4,9 0,3 1,6 4,9 4,3 13,6 27,9 15,4 25,7 32,11 7,4 13,9 17,15 3,6 5,14 5,23 0,9 -2,17 -7,24 -4,7 -11,13 -19,16 -9,4 -20,6 -32,6 -19,0 -33,-5 -43,-13 -10,-9 -16,-21 -18,-38zm254 48l0 -122 -43 0 0 -25 116 0 0 25 -43 0 0 122 -30 0zm170 0l0 -147 108 0 0 25 -79 0 0 33 74 0 0 24 -74 0 0 40 82 0 0 25 -111 0zm213 0l0 -147 44 0 27 100 26 -100 45 0 0 147 -28 0 0 -115 -29 115 -28 0 -30 -115 0 115 -27 0zm381 0l-33 0 -12 -33 -59 0 -12 33 -32 0 57 -147 32 0 59 147zm-55 -58l-20 -54 -20 54 40 0zm140 10l29 -2c1,9 5,16 10,21 5,4 13,7 22,7 9,0 16,-2 21,-6 5,-4 7,-9 7,-15 0,-3 -1,-6 -3,-8 -2,-3 -5,-5 -10,-7 -4,-1 -12,-3 -24,-6 -16,-4 -27,-9 -33,-15 -9,-8 -14,-18 -14,-29 0,-8 2,-15 6,-21 5,-7 11,-12 19,-15 8,-4 17,-5 29,-5 18,0 32,4 41,12 10,8 14,19 15,32l-30 2c-1,-8 -4,-13 -8,-17 -4,-3 -10,-5 -19,-5 -8,0 -15,2 -20,6 -3,2 -5,5 -5,9 0,3 2,6 5,9 4,3 13,6 27,9 14,4 25,7 32,11 7,4 12,9 16,15 4,6 6,14 6,23 0,9 -2,17 -7,24 -5,7 -11,13 -20,16 -8,4 -19,6 -32,6 -18,0 -33,-5 -42,-13 -10,-9 -16,-21 -18,-38zm335 -99l54 0c12,0 22,1 28,3 9,3 16,7 22,14 6,6 11,14 14,23 3,10 5,21 5,35 0,12 -1,23 -4,31 -4,11 -9,20 -16,26 -5,5 -12,9 -21,12 -7,2 -15,3 -26,3l-56 0 0 -147zm30 25l0 97 22 0c8,0 14,0 18,-1 4,-1 8,-3 12,-6 3,-3 5,-8 7,-14 2,-7 3,-16 3,-27 0,-12 -1,-20 -3,-26 -2,-6 -4,-11 -8,-15 -4,-3 -8,-5 -14,-6 -4,-1 -12,-2 -24,-2l-13 0zm195 122l0 -147 109 0 0 25 -79 0 0 33 74 0 0 24 -74 0 0 40 82 0 0 25 -112 0zm327 0l0 -147 30 0 0 147 -30 0zm135 0l0 -147 29 0 60 98 0 -98 28 0 0 147 -30 0 -59 -96 0 96 -28 0zm225 0l0 -147 101 0 0 25 -71 0 0 35 61 0 0 25 -61 0 0 62 -30 0zm196 -72c0,-15 2,-28 7,-38 3,-8 8,-14 14,-20 5,-6 12,-11 19,-13 9,-4 19,-6 31,-6 22,0 39,6 52,20 13,13 20,32 20,56 0,24 -7,42 -20,56 -13,13 -30,20 -51,20 -22,0 -40,-7 -53,-20 -12,-14 -19,-32 -19,-55zm31 -1c0,16 4,29 11,37 8,9 18,13 29,13 12,0 22,-4 30,-12 7,-9 11,-22 11,-39 0,-17 -4,-29 -11,-37 -7,-9 -17,-13 -30,-13 -12,0 -22,4 -29,13 -8,8 -11,21 -11,38zm212 73l0 -147 62 0c16,0 27,2 34,4 8,3 13,8 18,14 4,7 6,15 6,23 0,11 -3,21 -10,28 -6,7 -16,11 -29,13 7,4 12,8 16,13 4,4 10,12 17,23l18 29 -36 0 -21 -32c-8,-11 -13,-18 -16,-21 -3,-3 -5,-5 -9,-7 -3,-1 -8,-1 -15,-1l-6 0 0 61 -29 0zm29 -85l22 0c15,0 23,0 27,-1 4,-2 6,-4 8,-7 2,-3 3,-6 3,-11 0,-5 -1,-9 -4,-12 -2,-3 -6,-5 -11,-5 -2,-1 -9,-1 -21,-1l-24 0 0 37zm195 85l0 -147 45 0 26 100 27 -100 44 0 0 147 -27 0 0 -115 -29 115 -29 0 -29 -115 0 115 -28 0zm381 0l-32 0 -13 -33 -59 0 -12 33 -31 0 57 -147 31 0 59 147zm-55 -58l-20 -54 -20 54 40 0zm242 4l28 9c-4,16 -11,28 -22,36 -10,8 -23,12 -39,12 -19,0 -35,-7 -48,-20 -12,-14 -19,-32 -19,-55 0,-24 7,-43 19,-57 13,-13 30,-20 50,-20 18,0 33,5 44,16 7,6 12,15 15,27l-29 7c-2,-8 -6,-14 -11,-18 -6,-5 -12,-7 -20,-7 -11,0 -20,4 -27,12 -7,8 -10,20 -10,38 0,18 3,32 10,39 7,8 15,12 26,12 8,0 15,-2 20,-7 6,-5 10,-13 13,-24zm-63 95l0 -12c7,0 14,1 19,1 6,0 11,-1 14,-3 2,-2 3,-4 3,-7 0,-2 -1,-4 -3,-6 -2,-1 -6,-2 -10,-2 -4,0 -9,1 -13,2l3 -10c5,-2 10,-3 16,-3 9,0 15,2 19,6 5,4 7,8 7,13 0,6 -2,11 -7,15 -7,5 -16,7 -28,7 -9,0 -15,0 -20,-1zm326 -41l-32 0 -13 -33 -59 0 -12 33 -31 0 57 -147 31 0 59 147zm-54 -58l-21 -54 -19 54 40 0zm-44 -97l-12 0c0,-1 0,-3 0,-3 0,-8 1,-13 5,-17 3,-3 7,-5 13,-5 2,0 4,0 6,0 2,1 6,2 11,5 6,2 10,3 13,3 2,0 4,0 5,-2 2,-1 2,-3 3,-6l13 0c0,9 -2,15 -5,19 -4,4 -8,6 -13,6 -2,0 -4,-1 -7,-1 -1,0 -5,-2 -11,-4 -6,-2 -11,-4 -14,-4 -2,0 -3,1 -5,2 -1,2 -1,4 -2,7zm185 83c0,-15 2,-28 7,-38 3,-8 7,-14 13,-20 6,-6 12,-11 19,-13 9,-4 20,-6 32,-6 22,0 39,6 52,20 13,13 19,32 19,56 0,24 -6,42 -19,56 -13,13 -30,20 -52,20 -22,0 -39,-7 -52,-20 -13,-14 -19,-32 -19,-55zm30 -1c0,16 4,29 12,37 8,9 17,13 29,13 12,0 22,-4 29,-12 8,-9 12,-22 12,-39 0,-17 -4,-29 -11,-37 -8,-9 -18,-13 -30,-13 -12,0 -22,4 -29,13 -8,8 -12,21 -12,38z"/>
   <path class="fil1" d="M623 1752c-82,-19 -133,-47 -187,-114 -55,-86 -53,-181 -6,-270 -72,-9 -118,-30 -173,-76 -12,-16 -24,-31 -36,-46 -62,-118 -124,-237 -186,-356 -39,-99 -53,-187 -2,-284 36,-54 73,-78 128,-109 179,-93 358,-185 538,-277 36,-14 67,-24 107,-28 15,1 30,1 45,2 48,11 48,11 50,10 31,-98 81,-152 175,-192 113,-29 214,-5 293,80 11,16 22,32 33,49 7,17 14,34 21,52 8,49 11,88 2,137 -9,28 -20,54 -34,80 56,20 90,45 133,85 12,15 24,30 36,46 69,116 139,232 208,349 14,37 14,37 22,66 4,29 3,60 3,90 -15,92 -58,168 -136,222 -451,233 -451,233 -910,467 -41,13 -81,16 -124,17z"/>
   <path class="fil0" d="M481 1589c-31,-85 -1,-177 74,-226 20,-12 20,-12 761,-395 0,-1 0,-1 0,-1 -14,-24 -27,-47 -41,-70 -1,0 -2,0 -4,1 -247,128 -494,256 -741,384 -93,40 -190,27 -250,-65 -12,-23 -12,-23 -188,-361 -91,-224 216,-343 326,-167 94,182 94,182 98,188 743,-385 743,-385 754,-390 5,-2 9,-3 14,-5 110,-30 174,21 230,101 68,115 135,230 203,345 48,95 8,230 -80,285 -677,351 -677,351 -915,474 -95,37 -199,-4 -241,-98z"/>
   <path class="fil2" d="M982 354l0 0c46,88 11,198 -78,244l-576 299c-88,46 -198,11 -244,-78l0 0c-46,-88 -11,-198 77,-244l577 -299c88,-45 198,-11 244,78z"/>
   <path class="fil3" d="M1084 78c95,-49 213,-12 262,83 49,95 12,213 -83,263 -95,49 -213,12 -263,-84 -49,-95 -12,-213 84,-262z"/>
  </g>
 </g>
</svg>
