<?xml version="1.0" encoding="UTF-8"?>
<!DOCTYPE svg PUBLIC "-//W3C//DTD SVG 1.1//EN" "http://www.w3.org/Graphics/SVG/1.1/DTD/svg11.dtd">
<!-- Creator: CorelDRAW X7 -->
<svg xmlns="http://www.w3.org/2000/svg" xml:space="preserve" width="35.3372mm" height="9.643mm" version="1.1" style="shape-rendering:geometricPrecision; text-rendering:geometricPrecision; image-rendering:optimizeQuality; fill-rule:evenodd; clip-rule:evenodd"
viewBox="0 0 663 181"
 xmlns:xlink="http://www.w3.org/1999/xlink">
 <defs>
  <style type="text/css">
   <![CDATA[
    .fil1 {fill:#FEFEFE;fill-rule:nonzero}
    .fil0 {fill:#BA122B;fill-rule:nonzero}
   ]]>
  </style>
 </defs>
 <g id="Camada_x0020_1">
  <metadata id="CorelCorpID_0Corel-Layer"/>
  <g id="ORM_logo_box375_200.eps">
   <polygon class="fil0" points="0,179 662,181 663,2 1,0 "/>
   <polygon class="fil1" points="326,59 326,44 262,44 262,136 326,136 326,120 277,120 277,97 323,98 324,82 277,82 278,59 "/>
   <polygon class="fil1" points="373,136 373,44 389,44 388,121 432,121 432,136 "/>
   <polygon class="fil1" points="445,136 445,45 460,45 460,121 504,121 504,136 "/>
   <polygon class="fil1" points="342,136 357,136 357,44 342,44 "/>
   <path class="fil1" d="M47 89c0,-26 21,-47 48,-47 26,0 47,21 47,48 0,26 -21,47 -48,47 -26,0 -47,-21 -47,-48zm25 -22c-6,5 -10,14 -10,22 0,9 4,18 9,23 6,6 14,10 23,10 9,0 17,-4 23,-9 6,-6 10,-14 10,-23 0,-9 -4,-17 -10,-23 -5,-6 -13,-10 -22,-10 -9,0 -18,4 -23,10z"/>
   <path class="fil1" d="M228 96c11,-3 19,-13 19,-25 0,-15 -12,-27 -27,-27l-46 0 0 91 15 0 0 -38 22 0 22 38 18 1 -23 -40zm-39 -14l0 -23 31 0c7,0 12,5 12,12 0,6 -6,11 -12,11l-31 0z"/>
   <path class="fil1" d="M163 53c0,7 -5,12 -11,12 -6,0 -11,-6 -11,-12 0,-6 5,-11 11,-11 6,0 11,5 11,11z"/>
   <polygon class="fil1" points="572,45 554,45 530,79 507,45 488,45 522,95 522,136 538,136 538,95 "/>
   <path class="fil1" d="M599 42c-9,0 -16,8 -16,16 0,9 7,16 16,16 9,0 16,-7 16,-15 0,-9 -7,-16 -16,-17zm0 30c-7,0 -13,-6 -13,-14 0,-7 6,-13 13,-13 8,0 14,6 14,14 0,7 -7,13 -14,13z"/>
   <path class="fil1" d="M606 55c0,-3 -2,-5 -4,-5l-9 0 0 16 2 0 0 -6 5 0 3 6 3 1 -3 -7c2,-1 3,-3 3,-5zm-11 -2l7 0c1,0 2,1 2,2 0,1 -1,2 -2,2l-7 0 0 -4z"/>
  </g>
 </g>
</svg>
