<?xml version="1.0" encoding="UTF-8"?>
<!DOCTYPE svg PUBLIC "-//W3C//DTD SVG 1.1//EN" "http://www.w3.org/Graphics/SVG/1.1/DTD/svg11.dtd">
<!-- Creator: CorelDRAW X7 -->
<svg xmlns="http://www.w3.org/2000/svg" xml:space="preserve" width="39.2053mm" height="19.1017mm" version="1.1" style="shape-rendering:geometricPrecision; text-rendering:geometricPrecision; image-rendering:optimizeQuality; fill-rule:evenodd; clip-rule:evenodd"
viewBox="0 0 3921 1910"
 xmlns:xlink="http://www.w3.org/1999/xlink">
 <defs>
  <style type="text/css">
   <![CDATA[
    .fil0 {fill:#0072C6}
   ]]>
  </style>
 </defs>
 <g id="Camada_x0020_1">
  <metadata id="CorelCorpID_0Corel-Layer"/>
  <g id="_638352456">
   <path class="fil0" d="M6 1073l182 0c-3,12 -4,22 -4,30 0,48 31,71 92,71 64,0 102,-24 113,-74 1,-6 2,-11 2,-17 0,-22 -15,-37 -46,-46l-150 -41c-86,-24 -128,-69 -128,-136 0,-14 1,-28 4,-43 13,-58 44,-105 95,-141 57,-42 131,-63 223,-63 153,0 229,50 229,148 0,16 -2,36 -7,60l-183 0c3,-12 4,-23 4,-31 0,-40 -23,-59 -70,-59 -26,0 -48,6 -67,19 -19,13 -30,29 -33,49 -2,6 -2,11 -2,15 0,25 18,42 53,52l115 31c50,14 84,28 104,42 34,23 51,56 51,99 0,15 -2,30 -6,47 -14,70 -53,123 -116,160 -58,33 -130,50 -216,50 -111,0 -184,-26 -220,-77 -17,-24 -25,-54 -25,-89 0,-14 2,-33 6,-56zm632 208l138 -650 489 0 -26 125 -311 0 -29 135 293 0 -27 125 -293 0 -29 139 318 0 -27 126 -496 0zm594 0l138 -652 261 0c55,0 95,3 120,7 41,8 73,23 95,47 20,21 29,48 29,78 0,11 -1,22 -3,34 -16,75 -73,124 -171,148l-1 1c85,16 128,56 128,121 0,41 -12,78 -35,112 -22,33 -53,59 -91,77 -38,18 -99,27 -182,27l-288 0zm289 -533l-31 144 85 0c32,0 54,-3 65,-8 25,-13 41,-34 47,-63 5,-26 1,-45 -13,-58 -11,-10 -29,-15 -55,-15l-98 0zm-55 259l-33 155 101 0c62,0 98,-26 109,-76 2,-8 2,-15 2,-22 0,-38 -28,-57 -84,-57l-95 0zm421 274l138 -652 302 0c51,0 86,2 102,4 41,6 70,21 88,43 16,21 24,46 24,77 0,16 -2,32 -5,50 -12,56 -41,96 -86,121 -29,16 -65,27 -106,33l-1 4c47,1 79,10 95,28 15,14 22,38 22,73 0,11 -1,31 -3,58 -5,81 -6,134 -3,161l-196 0c-1,-24 2,-73 10,-147 2,-26 3,-44 3,-53 0,-20 -4,-34 -14,-42 -10,-9 -30,-13 -59,-13l-75 0 -54 255 -182 0zm294 -532l-33 160 68 0c38,0 63,-2 75,-5 35,-10 56,-35 63,-74 2,-9 3,-16 3,-23 0,-25 -12,-42 -36,-50 -14,-5 -38,-8 -72,-8l-68 0zm306 532l395 -652 220 0 120 652 -204 0 -17 -131 -261 0 -72 131 -181 0zm320 -251l177 0 -26 -273 -3 0 -148 273zm487 251l138 -650 489 0 -27 125 -310 0 -29 135 292 0 -27 125 -292 0 -29 139 318 0 -27 126 -496 0z"/>
   <g>
    <polygon class="fil0" points="1436,315 2649,315 2605,525 1391,525 "/>
    <polygon class="fil0" points="1501,0 2715,0 2670,210 1457,210 "/>
   </g>
   <g>
    <polygon class="fil0" points="1145,1700 2358,1700 2314,1910 1101,1910 "/>
    <polygon class="fil0" points="1211,1386 2424,1386 2379,1595 1166,1595 "/>
   </g>
  </g>
 </g>
</svg>
