<?xml version="1.0" encoding="UTF-8"?>
<!DOCTYPE svg PUBLIC "-//W3C//DTD SVG 1.1//EN" "http://www.w3.org/Graphics/SVG/1.1/DTD/svg11.dtd">
<!-- Creator: CorelDRAW X7 -->
<svg xmlns="http://www.w3.org/2000/svg" xml:space="preserve" width="278.474mm" height="163.208mm" version="1.1" style="shape-rendering:geometricPrecision; text-rendering:geometricPrecision; image-rendering:optimizeQuality; fill-rule:evenodd; clip-rule:evenodd"
viewBox="0 0 28143 16494"
 xmlns:xlink="http://www.w3.org/1999/xlink">
 <defs>
  <style type="text/css">
   <![CDATA[
    .fil2 {fill:#EDBD74;fill-rule:nonzero}
    .fil1 {fill:#DE8703;fill-rule:nonzero}
    .fil0 {fill:#003082;fill-rule:nonzero}
   ]]>
  </style>
 </defs>
 <g id="Layer_x0020_1">
  <metadata id="CorelCorpID_0Corel-Layer"/>
  <g id="_419411656">
   <path class="fil0" d="M19103 293c-468,-110 -940,-215 -1427,-286 -18,-3 -38,-4 -56,-7 -692,511 -1329,1075 -1903,1681 635,-94 1284,-153 1946,-177 2312,-84 4511,295 6495,1016 -1431,-986 -3159,-1763 -5055,-2227z"/>
   <path class="fil1" d="M18072 5383c2618,-1235 5358,-1756 7943,-1643 -2226,-983 -4780,-1500 -7481,-1402 -1331,49 -2617,245 -3834,567 -608,815 -1110,1693 -1491,2616 587,578 1228,1122 1917,1623 899,-665 1884,-1258 2946,-1761z"/>
   <path class="fil2" d="M14700 2905c-1013,267 -1980,622 -2891,1054 922,1175 2033,2252 3316,3185l1 0c-689,-502 -1330,-1045 -1917,-1623 381,-923 883,-1800 1491,-2616z"/>
   <path class="fil2" d="M15128 7144c-690,-500 -1332,-1045 -1919,-1623 -545,1319 -842,2732 -847,4197 799,-938 1725,-1803 2766,-2574z"/>
   <path class="fil0" d="M28143 15117c-32,1 -64,2 -97,2 -1328,0 -2290,-850 -2290,-2021l0 -26c0,-1120 965,-1998 2196,-1998 66,0 130,2 191,6l0 -1346c-57,-2 -116,-2 -175,-2 -2413,0 -4233,1446 -4233,3366l0 24c0,1874 1845,3341 4202,3341 72,0 138,-2 206,-4l0 -1342z"/>
   <path class="fil0" d="M3754 12297c-1424,-303 -1624,-449 -1624,-899l0 -20c0,-332 365,-596 1058,-596 354,0 816,96 1141,216l0 -1435c-302,-52 -765,-112 -1117,-112 -1683,0 -2881,822 -2881,2065l0 19c0,1359 1069,1741 2728,2093 1377,293 1506,489 1506,871l0 19c0,401 -447,645 -1188,645 -941,0 -1565,-322 -2306,-831l-1071 1066c988,734 2094,1096 3342,1096 1776,0 3024,-763 3024,-2123l0 -19c0,-1194 -943,-1693 -2612,-2055z"/>
   <path class="fil0" d="M7904 12903c142,-722 628,-1194 1375,-1194 756,0 1231,482 1338,1194l-2713 0zm1375 -2472l0 0c-1848,0 -3139,1320 -3139,2922l0 20c0,1718 1409,2901 3316,2901 55,0 232,-7 287,-8l0 -1280c-46,2 -216,11 -264,11 -806,0 -1374,-376 -1552,-1100l4380 0c10,-147 22,-241 22,-398l0 -20c0,-1592 -932,-3048 -3050,-3048z"/>
   <path class="fil0" d="M18041 13199c0,-1518 -929,-2703 -2893,-2703 -1966,0 -2895,1185 -2895,2703l0 2972 1820 0 0 -3081c33,-563 253,-1227 1075,-1227 819,0 1058,664 1090,1227l0 3081 1803 0 0 -2972z"/>
   <path class="fil0" d="M20999 10463c-79,0 -355,1 -430,4l0 1358c351,3 831,62 1045,175 314,165 477,444 485,822 -429,-50 -915,-85 -1336,-95 -1719,-45 -2569,524 -2739,1433 -4,17 -7,35 -10,52 -1,6 -1,12 -2,18 -14,86 -21,178 -21,274l0 21c0,1112 983,1719 2178,1719 877,0 1481,-284 1918,-713l0 647 1741 0 0 -3296c0,-1519 -865,-2419 -2829,-2419zm1106 3711l0 0c-157,820 -1004,943 -1196,953 -1370,73 -1418,-864 -958,-1150 619,-383 2159,-168 2159,-168 0,56 15,196 -5,365z"/>
  </g>
 </g>
</svg>
