<?xml version="1.0" encoding="UTF-8"?>
<!DOCTYPE svg PUBLIC "-//W3C//DTD SVG 1.1//EN" "http://www.w3.org/Graphics/SVG/1.1/DTD/svg11.dtd">
<!-- Creator: CorelDRAW X7 -->
<svg xmlns="http://www.w3.org/2000/svg" xml:space="preserve" width="253.065mm" height="75.9136mm" version="1.1" style="shape-rendering:geometricPrecision; text-rendering:geometricPrecision; image-rendering:optimizeQuality; fill-rule:evenodd; clip-rule:evenodd"
viewBox="0 0 26486 7945"
 xmlns:xlink="http://www.w3.org/1999/xlink">
 <defs>
  <style type="text/css">
   <![CDATA[
    .str0 {stroke:#FEFEFE;stroke-width:341.888;stroke-linejoin:round}
    .fil2 {fill:none;fill-rule:nonzero}
    .fil1 {fill:#FEFEFE}
    .fil5 {fill:#FFDD21}
    .fil4 {fill:#ED3237}
    .fil0 {fill:#FEFEFE;fill-rule:nonzero}
    .fil3 {fill:#ED3237;fill-rule:nonzero}
   ]]>
  </style>
 </defs>
 <g id="Camada_x0020_1">
  <metadata id="CorelCorpID_0Corel-Layer"/>
  <g id="_504644112">
   <g>
    <path class="fil0" d="M2766 265l323 113 -255 -200 17 -11 19 -11 18 -10 19 -10 19 -10 19 -9 20 -9 20 -9 21 -8 21 -8 21 -8 21 -7 21 -7 22 -6 23 -6 22 -6 23 -6 23 -5 23 -4 24 -5 23 -4 24 -3 25 -3 24 -3 25 -3 25 -2 25 -2 25 -1 26 -1 26 -1 26 0 26 0 -4 342 -22 0 -21 0 -20 1 -21 1 -20 1 -20 1 -20 2 -19 2 -19 2 -19 3 -19 2 -18 3 -18 4 -17 3 -18 4 -16 4 -17 4 -16 5 -16 4 -15 5 -15 5 -15 6 -14 5 -14 6 -14 5 -13 6 -12 6 -13 7 -11 6 -12 6 -11 7 -10 7 -255 -200zm255 200c-79,51 -185,29 -237,-50 -52,-79 -29,-185 50,-237l187 287zm-44 -87l4 -342 148 254 -2 3 -1 2 -2 3 -1 3 -2 3 -1 2 -2 3 -1 3 -1 3 -2 3 -1 3 -1 2 -2 3 -1 3 -1 2 -2 3 -1 3 -1 3 -1 2 -1 3 -2 3 -1 3 -1 2 -1 3 -1 3 -1 3 -1 3 -1 2 -1 3 -1 3 -1 3 -1 2 -323 -113 2 -5 1 -4 2 -4 1 -5 2 -4 2 -5 2 -4 1 -4 2 -5 2 -4 2 -5 2 -4 1 -4 2 -5 2 -4 2 -5 2 -4 2 -4 2 -5 2 -4 2 -5 3 -4 2 -4 2 -5 2 -4 2 -4 3 -5 2 -4 2 -4 2 -5 3 -4 2 -4 148 253zm-148 -253c46,-83 150,-113 233,-67 83,45 113,149 67,232l-300 -165zm-2487 43l-342 25 173 -184 88 1 87 1 88 1 88 0 88 1 87 1 88 1 88 1 88 1 87 0 88 1 88 1 88 1 87 1 88 1 88 0 88 1 87 1 88 1 88 1 88 1 87 1 88 0 88 1 88 1 87 1 88 1 88 1 88 1 87 1 88 0 88 1 -4 342 -88 -1 -88 0 -87 -1 -88 -1 -88 -1 -88 -1 -87 -1 -88 -1 -88 0 -88 -1 -87 -1 -88 -1 -88 -1 -88 -1 -87 -1 -88 -1 -88 0 -88 -1 -87 -1 -88 -1 -88 -1 -88 -1 -87 0 -88 -1 -88 -1 -87 -1 -88 -1 -88 0 -88 -1 -87 -1 -88 -1 -88 -1 173 -183zm-173 183c-95,0 -170,-78 -169,-172 1,-95 78,-171 173,-170l-4 342zm117 2122l138 313 -240 -143 -6 -76 -5 -77 -6 -76 -6 -77 -6 -76 -6 -77 -6 -76 -6 -77 -6 -76 -6 -77 -6 -77 -5 -76 -6 -77 -6 -76 -6 -77 -6 -76 -6 -77 -5 -77 -6 -76 -6 -77 -6 -76 -5 -77 -6 -77 -6 -76 -5 -77 -6 -76 -5 -77 -6 -77 -5 -76 -6 -77 -5 -77 -6 -76 342 -25 5 76 6 77 5 76 6 77 5 77 6 76 5 77 6 76 6 77 5 76 6 77 6 76 5 77 6 76 6 77 6 76 5 77 6 76 6 77 6 76 6 77 6 76 6 77 5 76 6 77 6 76 6 77 6 76 6 77 6 76 6 77 6 76 -240 -143zm240 143c7,94 -63,177 -158,184 -94,8 -176,-62 -184,-157l342 -27zm1285 -434l-24 341 0 0 -39 -2 -38 -2 -40 -1 -39 -1 -40 1 -40 0 -40 2 -40 2 -41 3 -41 3 -42 4 -41 5 -42 5 -42 6 -43 7 -42 8 -43 8 -43 9 -44 10 -43 10 -44 11 -44 12 -45 13 -44 13 -45 15 -44 15 -46 16 -45 16 -45 18 -46 18 -46 19 -46 20 -138 -313 50 -21 51 -21 50 -21 50 -19 50 -18 50 -18 49 -16 50 -16 49 -15 49 -14 49 -14 49 -12 48 -12 49 -11 48 -10 48 -9 48 -8 47 -8 48 -7 47 -6 47 -5 47 -5 46 -4 46 -3 46 -2 46 -2 45 0 45 -1 45 1 45 1 44 2 44 3 0 0zm1273 885l156 -305 -196 278 -30 -28 -31 -28 -32 -26 -33 -26 -33 -25 -34 -24 -35 -24 -35 -23 -36 -22 -37 -21 -37 -21 -38 -20 -38 -19 -39 -18 -39 -18 -40 -16 -40 -16 -41 -15 -41 -15 -42 -13 -42 -13 -42 -12 -43 -11 -43 -11 -44 -9 -44 -9 -44 -7 -44 -7 -45 -7 -45 -5 -45 -4 -45 -4 24 -341 52 4 52 5 51 6 51 7 51 8 51 9 51 10 50 11 49 12 50 13 49 14 49 14 48 16 48 17 47 17 47 19 47 20 46 20 45 22 45 22 44 23 44 25 43 25 43 26 42 27 41 28 40 29 40 30 39 31 39 32 37 32 37 34 -195 277zm195 -277c69,64 72,173 8,242 -65,69 -174,72 -243,8l235 -250zm-1044 63l-15 -342 0 0 29 -1 30 0 30 0 31 1 31 1 31 3 31 2 31 4 32 4 32 4 31 5 33 6 32 6 32 7 33 7 32 8 33 8 33 9 32 10 33 10 33 10 32 11 33 11 33 12 32 13 33 13 32 13 33 14 32 14 32 15 31 16 32 15 -156 305 -27 -13 -28 -14 -27 -12 -28 -13 -28 -12 -28 -11 -28 -11 -28 -11 -28 -10 -28 -10 -28 -10 -28 -9 -28 -8 -28 -8 -28 -8 -28 -7 -28 -7 -27 -6 -27 -5 -27 -6 -27 -4 -26 -5 -26 -3 -26 -4 -25 -2 -25 -2 -25 -2 -24 -1 -23 -1 -23 0 -22 0 -22 1 0 0zm-1094 944l-340 42 0 0 -7 -76 -1 -74 4 -72 9 -71 13 -69 18 -67 23 -65 27 -63 30 -61 34 -58 38 -55 41 -53 44 -50 46 -48 49 -45 51 -43 53 -41 55 -37 57 -36 59 -33 60 -31 61 -28 63 -26 63 -23 64 -22 66 -18 65 -17 66 -14 67 -12 67 -9 67 -7 67 -4 15 342 -54 3 -55 6 -54 7 -55 10 -54 11 -54 14 -53 15 -52 18 -52 19 -50 20 -49 23 -47 24 -46 26 -44 28 -43 29 -40 30 -38 32 -36 33 -33 35 -31 35 -29 37 -25 38 -23 39 -21 40 -18 42 -14 43 -12 44 -9 45 -6 47 -3 49 1 50 5 53 0 -1zm0 1c11,94 -56,179 -150,190 -94,11 -179,-55 -190,-149l340 -41zm510 716l-183 290 0 0 -33 -22 -33 -22 -32 -23 -31 -23 -31 -24 -30 -25 -29 -25 -29 -26 -28 -26 -27 -27 -26 -27 -26 -29 -24 -28 -24 -29 -23 -30 -23 -30 -21 -31 -20 -32 -20 -31 -18 -33 -18 -33 -16 -33 -16 -34 -14 -34 -14 -34 -12 -35 -11 -36 -10 -36 -9 -36 -8 -37 -6 -36 -5 -38 340 -42 3 26 5 26 5 25 6 25 7 25 8 25 9 25 9 24 10 25 12 24 12 24 12 24 14 24 14 23 16 24 15 23 17 23 18 22 18 22 19 22 20 22 20 21 21 21 22 21 23 20 23 20 24 20 24 19 25 19 26 18 26 18 27 17 0 0zm0 0c80,51 104,156 54,236 -51,80 -157,104 -237,54l183 -290zm2171 53l-332 -80 290 157 -60 60 -63 55 -65 51 -68 47 -70 42 -71 38 -73 34 -75 30 -75 26 -77 23 -77 19 -78 15 -79 12 -79 9 -78 5 -79 2 -79 0 -78 -4 -78 -6 -78 -9 -76 -11 -76 -14 -75 -17 -73 -18 -73 -22 -71 -23 -69 -26 -68 -27 -66 -30 -63 -32 -62 -34 -60 -35 183 -290 48 29 50 27 52 26 54 25 57 23 58 21 60 20 61 18 62 16 64 14 64 12 65 9 65 8 66 5 66 3 66 0 66 -2 65 -4 65 -7 64 -10 64 -12 62 -16 61 -17 59 -21 59 -24 56 -26 55 -29 53 -32 52 -36 49 -38 48 -42 45 -45 290 158zm-290 -158c65,-68 173,-71 242,-6 69,64 71,173 6,241l-248 -235zm-9 284l34 340 -173 -240 4 -10 5 -9 4 -10 4 -10 4 -10 4 -9 4 -10 4 -10 4 -9 3 -10 4 -10 4 -9 3 -10 3 -9 4 -10 3 -10 3 -9 4 -10 3 -9 3 -10 3 -9 3 -10 3 -9 2 -10 3 -9 3 -10 3 -9 2 -10 3 -9 2 -10 2 -9 3 -9 332 80 -2 11 -3 12 -3 11 -3 11 -3 12 -3 11 -4 11 -3 12 -3 11 -4 11 -3 12 -4 11 -3 12 -4 11 -4 11 -4 12 -4 11 -4 12 -4 11 -4 12 -4 11 -5 11 -4 12 -5 11 -4 12 -5 11 -5 12 -4 11 -5 12 -5 11 -5 12 -5 11 -174 -239zm174 239c-39,86 -140,125 -226,87 -87,-38 -126,-139 -87,-226l313 139zm3194 -338l299 -166 -133 253 -109 11 -110 11 -109 10 -109 11 -110 11 -109 11 -109 11 -110 11 -109 11 -109 11 -110 11 -109 11 -110 11 -109 11 -109 11 -110 11 -109 11 -109 11 -110 11 -109 11 -110 11 -109 11 -109 11 -110 11 -109 12 -109 11 -110 11 -109 11 -110 11 -109 11 -109 11 -110 11 -34 -340 110 -11 109 -12 110 -11 109 -11 109 -11 110 -11 109 -11 109 -11 110 -11 109 -11 110 -11 109 -11 109 -11 110 -11 109 -11 110 -11 109 -11 109 -11 110 -12 109 -11 110 -11 109 -11 109 -10 110 -11 109 -11 110 -11 109 -11 109 -11 110 -11 109 -11 110 -11 109 -10 -133 253zm133 -253c94,-10 178,59 187,153 9,94 -60,178 -154,187l-33 -340zm-1537 -2598l-93 -329 198 84 49 92 49 91 50 92 49 92 50 92 49 92 50 92 49 91 50 92 49 92 50 92 50 91 50 92 50 91 50 92 50 92 50 91 50 92 50 91 50 92 50 91 50 92 50 91 51 91 50 92 50 91 51 91 50 92 51 91 50 91 51 91 50 92 -299 166 -51 -91 -50 -92 -51 -91 -51 -92 -50 -91 -51 -91 -50 -92 -50 -91 -51 -92 -50 -91 -50 -92 -51 -92 -50 -91 -50 -92 -50 -91 -50 -92 -50 -92 -50 -92 -50 -91 -50 -92 -50 -92 -50 -92 -50 -92 -49 -92 -50 -91 -50 -92 -49 -92 -50 -92 -49 -92 -50 -92 -49 -93 -49 -92 197 84zm-197 -84c-45,-83 -13,-187 70,-231 83,-45 187,-14 232,70l-302 161zm-1723 -446l-102 326 134 -312 45 23 45 23 47 23 48 21 49 20 51 19 51 18 52 17 53 16 54 15 55 14 55 13 56 11 57 10 58 9 58 8 58 6 59 5 59 3 60 2 60 1 60 0 61 -2 60 -4 61 -5 61 -7 60 -8 61 -9 61 -12 60 -12 60 -15 60 -16 93 329 -69 19 -69 16 -69 15 -69 13 -69 11 -70 9 -69 8 -69 5 -69 4 -69 3 -68 0 -68 -1 -68 -2 -67 -4 -67 -6 -66 -7 -66 -8 -66 -10 -64 -12 -64 -13 -63 -14 -63 -16 -62 -17 -61 -18 -59 -20 -60 -21 -58 -22 -57 -24 -56 -24 -54 -26 -54 -27 -53 -28 135 -313zm-135 313c-82,-46 -112,-151 -66,-233 47,-83 151,-112 233,-66l-167 299zm666 -236l6 342 0 0 -21 0 -21 0 -20 0 -21 0 -20 -1 -21 -1 -20 -1 -21 -1 -20 -2 -21 -1 -20 -2 -20 -2 -21 -3 -20 -2 -20 -3 -20 -3 -20 -3 -20 -3 -20 -3 -20 -4 -20 -4 -19 -4 -20 -4 -20 -4 -19 -5 -20 -5 -19 -5 -19 -5 -19 -5 -19 -5 -19 -6 -19 -6 102 -326 16 4 16 5 15 5 16 4 17 4 16 4 16 4 16 4 17 4 16 3 17 4 16 3 17 3 16 3 17 2 17 3 17 2 16 3 17 2 17 2 17 1 17 2 17 1 17 2 17 1 17 1 17 0 16 1 17 0 17 0 17 0 17 0 0 0zm0 0c95,-2 173,74 174,168 2,94 -74,172 -168,174l-6 -342zm568 -437l303 -159 0 -1 21 44 18 44 15 45 11 46 7 46 3 46 -1 45 -5 46 -8 44 -12 44 -17 42 -19 40 -23 39 -26 37 -28 35 -32 33 -33 31 -36 29 -39 27 -40 25 -42 23 -44 21 -46 19 -48 17 -49 16 -51 13 -53 12 -55 10 -56 8 -57 6 -59 4 -61 2 -6 -342 49 -2 48 -3 45 -5 44 -6 41 -7 39 -9 37 -10 35 -11 33 -12 30 -12 29 -14 25 -14 24 -15 21 -14 19 -16 17 -15 14 -15 13 -15 10 -15 9 -15 7 -15 5 -15 5 -14 3 -15 1 -16 0 -16 -1 -18 -3 -18 -4 -19 -7 -21 -9 -22 -11 -23 0 0zm0 0c-44,-83 -12,-187 72,-231 84,-44 187,-12 231,71l-303 160zm-1120 -511l4 -342 0 0 56 1 55 3 56 5 55 6 55 8 54 9 54 10 54 12 53 13 53 15 51 15 52 17 50 19 49 19 49 21 47 21 47 23 45 24 45 25 43 27 42 27 40 28 39 30 38 30 36 32 34 33 33 33 31 35 29 37 27 37 25 39 22 40 -303 159 -13 -22 -14 -23 -17 -23 -18 -23 -21 -23 -22 -23 -24 -23 -26 -23 -28 -23 -30 -22 -31 -22 -32 -21 -34 -21 -35 -20 -37 -19 -38 -19 -39 -17 -40 -17 -41 -16 -42 -16 -42 -14 -43 -13 -44 -12 -45 -11 -45 -10 -45 -9 -45 -7 -46 -7 -46 -5 -46 -3 -46 -3 -45 -1 0 0z"/>
    <path id="1" class="fil1" d="M3548 171c-254,-3 -473,54 -621,150 14,-38 31,-76 52,-114 -936,-9 -1872,-18 -2808,-27 58,817 121,1634 184,2450 515,-228 1006,-308 1444,-277 520,35 1008,229 1363,562 -311,-159 -663,-246 -935,-233 -645,30 -1338,446 -1256,1136 40,337 265,637 589,841 557,351 1547,447 2096,-132 -27,110 -65,222 -116,336 1167,-118 2334,-237 3501,-352 -541,-974 -1075,-1951 -1600,-2932 -686,194 -1415,80 -1925,-203 184,57 385,89 585,85 596,-11 905,-330 717,-688 -176,-334 -730,-596 -1270,-602z"/>
   </g>
   <g>
    <path class="fil0" d="M1573 486l4 -342 0 0 34 1 35 0 34 0 34 1 35 0 34 0 35 1 34 0 34 0 34 0 35 1 34 0 34 0 34 1 34 0 34 0 34 1 34 0 34 0 34 0 34 1 34 0 33 0 34 1 34 0 33 0 34 0 34 1 33 0 34 0 33 0 33 1 -3 342 -33 -1 -34 0 -33 0 -34 0 -33 -1 -34 0 -34 0 -33 0 -34 -1 -34 0 -34 0 -34 0 -33 -1 -34 0 -34 0 -34 -1 -34 0 -35 0 -34 -1 -34 0 -34 0 -34 0 -35 -1 -34 0 -34 0 -34 -1 -35 0 -34 0 -35 -1 -34 0 -35 0 -34 -1 0 0zm-972 -198l-341 35 173 -189 36 1 36 0 37 0 36 1 36 0 36 0 36 1 36 0 36 0 36 1 36 0 36 0 36 1 36 0 36 0 35 1 36 0 36 0 35 0 36 1 36 0 35 0 36 1 35 0 35 0 36 1 35 0 36 0 35 0 35 1 35 0 36 0 -4 342 -35 0 -36 0 -35 0 -35 -1 -35 0 -36 0 -35 -1 -36 0 -35 0 -35 -1 -36 0 -36 0 -35 0 -36 -1 -36 0 -35 0 -36 -1 -36 0 -36 0 -36 -1 -36 0 -35 0 -37 -1 -36 0 -36 0 -36 -1 -36 0 -36 0 -36 -1 -37 0 -36 0 -36 -1 172 -188zm-172 188c-95,-1 -171,-78 -169,-173 1,-94 78,-170 173,-169l-4 342zm261 698l-340 35 0 0 -3 -29 -3 -30 -3 -29 -3 -29 -3 -29 -3 -28 -3 -29 -3 -29 -3 -28 -2 -28 -3 -29 -3 -28 -3 -28 -3 -28 -3 -28 -2 -28 -3 -27 -3 -28 -3 -27 -2 -27 -3 -28 -3 -27 -2 -27 -3 -27 -3 -27 -3 -26 -2 -27 -3 -26 -3 -27 -2 -26 -3 -26 -3 -26 341 -35 3 26 2 26 3 26 3 27 2 26 3 27 3 27 3 27 2 26 3 27 3 28 2 27 3 27 3 28 3 27 2 28 3 27 3 28 3 28 3 28 2 28 3 29 3 28 3 28 3 29 3 29 3 28 3 29 3 29 2 29 3 29 3 30 0 0zm-108 915l93 329 -217 -147 -3 -35 -4 -36 -4 -35 -3 -34 -4 -35 -3 -35 -4 -34 -4 -35 -3 -34 -4 -34 -3 -34 -3 -34 -4 -33 -3 -34 -4 -33 -3 -33 -3 -34 -4 -33 -3 -32 -3 -33 -4 -33 -3 -32 -3 -32 -4 -33 -3 -32 -3 -32 -3 -31 -4 -32 -3 -32 -3 -31 -3 -31 -3 -31 340 -35 4 31 3 31 3 31 3 32 3 31 4 32 3 32 3 32 3 32 4 33 3 32 3 33 4 32 3 33 3 33 4 33 3 33 3 34 4 33 3 34 4 34 3 34 4 34 3 34 4 34 3 35 4 34 3 35 4 35 4 35 3 35 4 35 -217 -146zm217 146c9,94 -59,178 -153,188 -94,10 -178,-58 -188,-152l341 -36zm1115 -270l-35 340 0 0 -36 -3 -35 -3 -36 -2 -37 -3 -36 -1 -37 -2 -36 0 -37 -1 -37 0 -37 1 -38 1 -37 1 -38 2 -37 2 -38 3 -38 3 -38 3 -38 5 -38 4 -38 5 -38 6 -39 6 -38 6 -38 7 -39 7 -38 8 -39 8 -38 9 -39 10 -38 9 -39 11 -39 11 -93 -329 42 -12 43 -12 42 -10 43 -11 42 -9 43 -10 42 -8 43 -8 42 -8 42 -7 43 -7 42 -6 42 -5 42 -5 42 -5 42 -4 42 -3 42 -3 42 -3 41 -2 42 -1 41 -1 41 -1 41 0 41 1 41 0 41 2 40 2 40 2 41 3 40 3 39 4 0 0zm1160 356l-169 298 0 0 -27 -15 -28 -15 -29 -15 -28 -14 -29 -14 -29 -14 -30 -13 -30 -13 -30 -13 -31 -12 -30 -12 -32 -12 -31 -11 -32 -11 -32 -10 -32 -10 -32 -10 -33 -9 -33 -9 -33 -9 -33 -8 -34 -8 -34 -8 -34 -7 -34 -6 -35 -7 -35 -5 -34 -6 -35 -5 -36 -5 -35 -4 -36 -4 35 -340 40 4 40 5 39 5 39 6 39 6 39 7 39 7 38 7 38 8 38 8 38 9 38 9 37 10 37 10 37 11 36 11 37 11 36 12 36 12 35 13 36 13 35 14 34 14 35 14 34 15 34 15 33 16 34 16 32 16 33 17 32 17 32 18 0 0zm871 849l-297 171 0 0 -17 -29 -17 -28 -18 -28 -18 -27 -19 -28 -19 -26 -20 -27 -20 -26 -21 -25 -21 -25 -21 -25 -22 -25 -22 -24 -23 -23 -23 -23 -23 -23 -24 -23 -24 -22 -24 -21 -25 -21 -25 -21 -25 -21 -26 -20 -26 -19 -26 -19 -27 -19 -27 -18 -28 -18 -27 -18 -28 -17 -28 -17 -29 -16 169 -298 33 19 33 19 32 20 32 20 32 21 31 21 31 22 31 23 30 22 30 24 30 24 29 24 29 25 29 25 28 26 28 26 27 27 27 27 27 28 26 28 26 29 25 29 25 30 24 30 24 31 23 31 23 32 22 32 22 33 21 33 21 33 20 35 0 0zm113 1149l30 341 -186 -180 2 -42 1 -42 1 -41 0 -41 -1 -41 -2 -40 -2 -39 -3 -40 -4 -38 -4 -39 -5 -38 -6 -37 -6 -37 -6 -37 -8 -36 -8 -36 -8 -35 -10 -35 -9 -34 -11 -34 -10 -34 -12 -33 -12 -33 -12 -32 -13 -32 -14 -32 -14 -31 -14 -31 -16 -30 -15 -30 -16 -30 -17 -29 297 -171 20 34 19 35 18 36 18 36 17 36 17 37 16 37 15 38 15 39 14 38 14 40 12 39 12 40 12 41 11 41 10 41 9 42 9 43 8 42 7 43 6 44 6 44 5 44 4 45 3 45 3 46 2 46 1 46 0 47 0 48 -2 47 -2 48 -186 -179zm186 179c-5,94 -86,167 -180,162 -95,-5 -167,-85 -162,-180l342 18zm1133 -301l31 340 0 0 -40 4 -41 4 -40 3 -40 4 -41 4 -40 4 -41 3 -41 4 -40 4 -41 4 -41 4 -41 3 -41 4 -41 4 -41 4 -41 4 -42 3 -41 4 -42 4 -41 4 -42 4 -41 4 -42 4 -42 4 -41 3 -42 4 -42 4 -42 4 -42 4 -42 4 -42 4 -43 4 -30 -341 42 -4 42 -4 42 -4 42 -4 42 -3 42 -4 42 -4 41 -4 42 -4 42 -4 41 -4 42 -4 41 -3 42 -4 41 -4 41 -4 42 -4 41 -4 41 -3 41 -4 41 -4 41 -4 41 -4 40 -3 41 -4 41 -4 40 -4 41 -4 40 -3 41 -4 40 -4 40 -3 0 0zm1103 136l303 -161 -137 251 -37 3 -38 4 -38 3 -38 4 -38 3 -39 4 -38 3 -38 4 -38 3 -39 4 -38 3 -39 4 -38 3 -39 4 -39 4 -38 3 -39 4 -39 3 -39 4 -39 4 -39 3 -39 4 -39 4 -39 3 -39 4 -39 3 -39 4 -40 4 -39 3 -39 4 -40 4 -39 3 -31 -340 39 -4 40 -4 39 -3 39 -4 40 -4 39 -3 39 -4 39 -3 39 -4 39 -4 39 -3 39 -4 39 -4 39 -3 39 -4 39 -3 38 -4 39 -4 39 -3 38 -4 39 -3 38 -4 39 -3 38 -4 38 -3 39 -4 38 -3 38 -4 38 -3 38 -4 38 -3 38 -4 -136 251zm136 -251c94,-8 177,61 186,155 8,94 -61,177 -156,186l-30 -341zm-842 -1084l303 -160 0 0 21 39 20 39 21 39 21 40 21 39 21 40 21 40 21 40 22 41 21 40 21 41 22 41 22 41 22 41 21 42 22 41 23 42 22 42 22 42 22 42 23 43 22 43 23 42 23 43 23 44 23 43 23 44 23 43 23 44 24 44 23 45 24 44 -303 161 -24 -45 -23 -44 -24 -44 -23 -44 -23 -44 -23 -44 -23 -43 -23 -43 -23 -43 -22 -43 -23 -43 -22 -42 -23 -43 -22 -42 -22 -42 -22 -42 -22 -41 -22 -42 -22 -41 -22 -41 -21 -41 -22 -41 -21 -40 -22 -41 -21 -40 -21 -40 -21 -40 -21 -39 -21 -40 -21 -39 -20 -39 -21 -39 0 0zm-400 -1010l-57 -337 180 89 17 32 17 33 18 32 17 33 17 33 17 33 18 33 17 33 18 33 18 34 17 33 18 34 18 34 18 34 18 34 18 34 18 34 19 35 18 34 18 35 19 35 18 35 19 35 18 36 19 35 19 36 19 35 19 36 19 36 19 36 19 37 19 36 -303 160 -19 -37 -19 -36 -19 -36 -19 -36 -19 -36 -19 -35 -19 -36 -18 -35 -19 -36 -19 -35 -18 -35 -19 -35 -18 -34 -18 -35 -19 -34 -18 -35 -18 -34 -18 -34 -18 -34 -18 -34 -18 -34 -17 -33 -18 -34 -18 -33 -17 -33 -18 -34 -17 -33 -17 -32 -18 -33 -17 -33 -17 -32 -17 -33 180 89zm-180 -89c-44,-83 -12,-187 72,-231 84,-44 187,-12 231,72l-303 159zm-1067 65l73 -334 0 0 32 7 32 6 33 6 32 6 33 5 33 5 33 4 33 5 34 3 34 4 34 3 34 3 35 2 34 2 35 1 35 1 35 1 36 0 35 0 36 -1 36 -1 36 -1 36 -2 36 -2 37 -3 36 -4 37 -3 37 -4 37 -5 37 -5 37 -6 37 -6 57 337 -41 7 -42 6 -41 6 -41 5 -41 5 -41 4 -40 4 -41 3 -40 2 -41 3 -40 1 -40 1 -39 1 -40 0 -40 0 -39 -1 -39 -1 -39 -2 -38 -2 -39 -2 -38 -3 -38 -4 -38 -3 -38 -5 -37 -4 -37 -5 -37 -6 -37 -6 -37 -6 -36 -7 -36 -7 -36 -8 0 0zm-989 -411l192 -283 0 0 22 15 23 14 22 14 24 15 23 14 24 13 24 14 25 13 25 13 25 13 26 13 26 13 26 12 27 12 27 12 27 12 27 11 28 11 28 11 29 11 29 10 29 10 29 10 29 9 30 9 30 9 31 9 30 8 31 8 31 8 32 7 31 7 -73 334 -35 -7 -35 -9 -35 -8 -35 -9 -34 -10 -34 -9 -34 -10 -34 -11 -33 -10 -33 -11 -33 -12 -32 -11 -33 -12 -31 -12 -32 -13 -31 -13 -31 -13 -31 -14 -30 -13 -30 -14 -30 -15 -29 -14 -29 -15 -29 -15 -28 -16 -28 -15 -27 -16 -28 -16 -27 -17 -26 -17 -26 -16 -26 -18 0 0zm0 0c-78,-52 -99,-159 -46,-237 54,-78 160,-99 238,-46l-192 283zm-477 -1057l3 -342 159 230 -7 22 -6 22 -5 22 -3 24 -2 23 -1 24 1 25 2 25 3 26 5 27 7 27 8 27 9 28 11 28 13 29 15 30 16 29 17 30 20 30 21 30 23 30 24 31 26 30 28 31 29 30 32 30 32 30 35 30 36 29 38 30 39 28 41 29 -192 283 -48 -33 -47 -34 -44 -35 -44 -35 -41 -36 -40 -37 -39 -37 -36 -37 -35 -39 -34 -38 -31 -39 -30 -40 -28 -40 -26 -41 -24 -41 -23 -41 -20 -42 -19 -42 -16 -42 -15 -42 -12 -43 -11 -44 -8 -43 -6 -43 -3 -44 -1 -43 1 -44 4 -43 6 -43 9 -43 11 -42 14 -41 159 230zm-159 -230c33,-89 131,-134 220,-102 89,33 134,131 101,220l-321 -118z"/>
    <path id="1" class="fil1" d="M2663 325c-356,-3 -720,-6 -1088,-10 -375,-3 -757,-6 -1144,-10 28,278 57,573 89,886 34,331 70,685 108,1062 433,-124 867,-158 1269,-118 402,41 777,157 1093,335 328,185 611,448 807,785 195,338 302,750 276,1234 450,-41 891,-83 1319,-122 421,-39 835,-78 1239,-114 -252,-476 -487,-920 -705,-1335 -205,-389 -399,-754 -580,-1098 -421,71 -823,55 -1182,-23 -359,-77 -677,-215 -930,-385 -484,-327 -695,-752 -571,-1087z"/>
   </g>
   <g>
    <path class="fil0" d="M3223 721l-323 114 1 1 -12 -36 -8 -36 -6 -37 -2 -37 1 -37 4 -36 7 -36 10 -35 13 -33 16 -32 18 -31 20 -29 22 -27 24 -25 26 -24 27 -22 28 -20 30 -19 31 -18 31 -16 33 -14 34 -14 35 -12 36 -10 36 -10 38 -8 38 -6 40 -6 40 -4 40 -3 42 -2 42 0 -4 342 -31 0 -30 1 -30 3 -28 3 -28 3 -26 5 -25 5 -24 7 -22 6 -21 7 -20 8 -19 8 -16 9 -16 9 -14 8 -12 9 -11 9 -9 9 -8 8 -7 8 -5 7 -4 8 -3 6 -3 7 -2 6 -1 6 -1 7 0 7 1 8 1 9 2 10 4 12 0 0zm0 0c32,88 -15,186 -104,218 -89,32 -187,-14 -218,-103l322 -115zm808 371l4 342 0 0 -47 0 -46 -2 -46 -3 -45 -4 -46 -6 -45 -7 -44 -9 -44 -9 -44 -11 -43 -12 -42 -13 -42 -15 -41 -15 -40 -16 -39 -18 -38 -18 -38 -20 -36 -20 -36 -22 -34 -22 -33 -24 -32 -24 -31 -26 -29 -27 -28 -27 -26 -29 -25 -30 -23 -32 -21 -32 -20 -34 -16 -35 -15 -37 323 -114 6 14 6 14 9 14 9 15 12 16 13 16 15 17 17 16 18 17 20 16 22 17 22 16 25 16 25 15 27 15 28 15 28 14 30 13 31 13 32 12 32 11 33 10 33 9 34 9 35 7 35 7 35 5 35 5 35 3 36 3 35 1 35 0 0 0zm0 0c95,-1 172,75 173,169 1,95 -75,172 -169,173l-4 -342zm375 -241l306 -153 0 0 16 34 13 36 11 36 8 36 5 37 1 37 -1 37 -5 37 -8 36 -11 35 -14 34 -16 32 -19 31 -22 29 -23 27 -25 26 -27 23 -29 22 -30 21 -32 19 -32 17 -34 16 -36 14 -36 13 -38 11 -38 10 -40 9 -41 7 -42 6 -43 4 -44 3 -45 1 -4 -342 33 -1 33 -2 31 -3 29 -4 28 -5 27 -6 25 -6 23 -7 22 -8 20 -8 18 -8 17 -9 15 -9 13 -9 12 -9 10 -9 8 -9 7 -8 6 -8 5 -7 3 -7 3 -7 2 -6 2 -7 1 -7 0 -7 -1 -8 -1 -9 -2 -10 -3 -11 -5 -13 -6 -13 0 -1zm0 1c-42,-84 -8,-187 76,-230 85,-42 188,-8 230,76l-306 154zm-775 -349l4 -342 0 0 42 1 42 2 42 4 42 4 42 6 41 7 41 8 40 9 41 10 39 11 39 12 39 13 38 14 37 15 37 15 36 17 35 17 35 19 33 19 33 20 32 21 31 22 30 23 28 23 28 25 26 25 25 27 24 27 22 29 21 30 19 30 17 32 -306 153 -8 -13 -8 -14 -10 -15 -12 -14 -13 -16 -15 -15 -16 -15 -17 -16 -19 -15 -20 -16 -21 -15 -22 -14 -24 -15 -24 -14 -26 -13 -26 -14 -28 -12 -28 -12 -29 -12 -29 -10 -30 -10 -31 -10 -31 -8 -31 -8 -32 -7 -31 -7 -33 -5 -32 -4 -32 -4 -32 -3 -33 -1 -32 -1 0 0z"/>
    <path id="1" class="fil1" d="M3633 332c-396,-3 -662,192 -571,446 93,267 536,491 971,485 426,-6 656,-231 526,-488 -122,-244 -530,-440 -926,-443z"/>
   </g>
   <g>
    <path class="fil0" d="M1465 3819l-339 53 0 -1 -6 -56 -3 -56 1 -55 4 -55 8 -54 12 -53 14 -52 18 -50 21 -49 24 -48 27 -46 30 -45 32 -43 34 -41 37 -40 39 -37 41 -36 43 -34 45 -32 46 -30 49 -29 50 -26 51 -24 53 -23 55 -20 56 -18 57 -16 58 -14 59 -11 60 -9 62 -7 62 -5 17 342 -48 3 -48 6 -47 7 -46 9 -45 10 -43 12 -42 14 -41 15 -40 17 -38 18 -36 19 -35 21 -34 21 -31 23 -30 24 -28 24 -27 26 -24 26 -23 27 -20 27 -19 28 -16 29 -15 29 -13 30 -11 30 -8 31 -7 31 -5 31 -2 32 -1 33 2 34 4 34 0 -1zm0 1c14,93 -50,181 -144,195 -93,14 -181,-50 -195,-144l339 -51zm1212 715l31 341 -1 0 -70 5 -70 2 -70 -1 -69 -4 -69 -6 -67 -9 -67 -12 -66 -14 -65 -17 -63 -19 -63 -21 -61 -24 -59 -26 -58 -28 -56 -30 -55 -33 -53 -34 -51 -36 -49 -39 -47 -40 -45 -42 -42 -44 -40 -46 -37 -48 -35 -49 -32 -51 -28 -53 -26 -54 -22 -56 -19 -57 -15 -58 -12 -60 339 -53 7 38 9 36 13 37 14 36 17 36 19 35 22 35 24 34 26 34 29 33 31 32 33 31 35 30 36 29 39 27 41 27 42 25 44 23 46 22 47 21 48 19 49 17 51 15 51 13 53 11 53 10 54 7 55 5 55 3 56 1 56 -2 57 -4 0 0zm0 0c94,-9 177,61 186,155 8,94 -61,177 -156,186l-30 -341zm745 -802l328 -102 -1 -1 16 57 12 56 8 56 5 57 1 56 -3 55 -7 55 -10 54 -14 54 -17 52 -20 51 -23 49 -27 48 -29 47 -33 45 -35 43 -38 42 -40 40 -43 38 -45 35 -47 34 -50 32 -52 29 -54 28 -55 25 -58 23 -60 20 -61 18 -63 16 -65 13 -66 10 -68 8 -31 -341 53 -6 52 -8 51 -10 48 -12 47 -14 45 -15 43 -17 41 -19 39 -20 37 -21 36 -22 33 -24 31 -25 29 -25 27 -27 24 -27 23 -28 21 -29 18 -29 17 -30 14 -30 12 -31 10 -31 9 -32 6 -32 3 -32 2 -33 0 -34 -3 -34 -5 -34 -7 -35 -10 -35 -1 -1zm1 1c-29,-90 21,-187 112,-215 90,-29 186,21 214,111l-326 104zm-1141 -635l-17 -342 0 0 62 -2 62 0 62 3 61 4 60 7 60 9 60 11 58 13 58 15 57 17 56 18 56 21 54 22 52 25 52 26 51 27 49 30 47 31 46 32 45 35 43 36 41 37 39 39 38 41 35 42 33 44 31 45 29 46 26 48 23 50 21 50 18 52 -328 102 -11 -33 -13 -33 -16 -32 -17 -32 -19 -32 -22 -31 -23 -30 -25 -30 -27 -29 -28 -29 -31 -28 -32 -26 -34 -26 -35 -25 -36 -24 -38 -23 -40 -22 -40 -20 -42 -19 -43 -18 -44 -16 -44 -15 -46 -14 -46 -11 -47 -11 -47 -9 -49 -7 -48 -5 -49 -4 -49 -2 -49 0 -50 2 0 0z"/>
    <path id="1" class="fil1" d="M2274 2928c-596,31 -1052,432 -978,918 80,520 717,922 1396,859 657,-61 1048,-534 894,-1023 -142,-457 -716,-785 -1312,-754z"/>
   </g>
   <g>
    <path class="fil0" d="M7487 4143l-57 475 -339 -41 56 -474 235 -138 105 178zm-340 -40c11,-94 96,-161 190,-150 94,11 161,96 150,190l-340 -40zm630 -3l-87 331 0 0 -13 -3 -13 -4 -13 -3 -13 -4 -13 -4 -14 -4 -13 -4 -13 -4 -13 -4 -14 -4 -13 -4 -14 -5 -13 -4 -14 -4 -13 -5 -14 -5 -14 -4 -13 -5 -14 -5 -14 -5 -14 -5 -14 -5 -14 -6 -14 -5 -14 -5 -14 -6 -14 -5 -15 -6 -14 -6 -14 -5 -15 -6 -14 -6 130 -316 13 5 14 6 13 5 13 5 13 5 13 6 13 5 13 4 13 5 13 5 13 5 12 4 13 5 12 4 13 5 12 4 12 4 13 4 12 4 12 4 12 4 12 4 12 4 12 3 11 4 12 3 12 4 11 3 12 3 11 3 11 3 12 3 0 0zm284 45l0 342 0 0 -10 0 -11 0 -10 0 -11 -1 -11 0 -11 -1 -10 -1 -11 0 -11 -1 -11 -2 -12 -1 -11 -1 -11 -1 -11 -2 -12 -2 -11 -1 -12 -2 -12 -2 -11 -2 -12 -2 -12 -3 -12 -2 -12 -2 -13 -3 -12 -3 -12 -2 -13 -3 -12 -3 -13 -3 -12 -3 -13 -4 -13 -3 87 -331 11 3 11 3 11 3 10 2 11 3 10 2 10 2 11 3 10 2 10 2 9 2 10 1 9 2 10 2 9 1 9 2 9 1 9 1 8 1 9 2 8 1 8 0 8 1 8 1 7 1 8 0 7 0 7 1 7 0 7 0 7 0 6 0 0 0zm219 -28l130 317 0 0 -10 4 -9 3 -10 4 -10 3 -9 3 -10 3 -10 3 -10 2 -10 3 -10 2 -10 2 -11 2 -10 2 -11 2 -10 2 -11 1 -11 2 -11 1 -11 2 -11 1 -11 1 -12 1 -11 1 -12 0 -12 1 -12 1 -12 0 -12 1 -12 0 -12 0 -13 0 -13 0 0 -342 11 0 10 0 9 0 10 0 10 0 9 -1 9 0 9 -1 8 0 9 -1 8 -1 8 0 7 -1 8 -1 7 -1 7 -1 7 -1 7 -1 6 -1 6 -1 6 -2 5 -1 6 -1 5 -1 5 -2 5 -1 4 -1 4 -1 4 -2 4 -1 3 -1 3 -2 0 0zm3 17l339 40 0 0 -1 11 -2 11 -2 12 -3 11 -3 11 -4 11 -4 10 -5 11 -5 10 -5 11 -6 10 -6 9 -6 10 -7 9 -7 9 -7 8 -8 9 -7 8 -8 7 -8 7 -9 7 -8 7 -9 6 -9 6 -9 6 -9 5 -9 6 -9 5 -9 4 -10 5 -9 4 -9 4 -130 -317 3 -1 2 -1 2 -1 2 -1 2 0 1 -1 1 -1 1 0 0 -1 1 0 0 0 0 0 -1 0 0 1 0 0 -1 1 -1 1 -1 1 0 1 -1 1 -1 2 -1 1 -1 2 -1 1 0 2 -1 2 -1 1 0 2 0 2 -1 1 0 1 0 1 0 0zm5 32l218 -264 -1 0 7 5 7 7 7 6 6 6 7 6 6 7 6 7 6 7 6 8 5 7 6 8 5 8 5 9 5 8 5 9 4 9 4 9 4 9 3 9 3 10 3 10 2 9 2 11 2 10 1 9 1 10 1 10 0 10 0 10 0 10 -1 10 -1 9 -339 -40 0 2 0 1 0 1 0 2 0 2 0 1 0 2 0 2 1 2 0 2 0 2 1 2 1 2 0 2 1 1 1 2 0 1 1 2 1 1 0 1 1 1 0 0 1 1 0 0 0 0 0 0 0 0 -1 0 0 -1 -1 -1 -1 0 -1 -1 0 0zm-254 -115l120 -320 0 0 15 6 15 5 15 6 14 6 14 5 14 6 14 5 13 5 12 6 13 5 12 5 12 5 12 6 11 5 11 5 11 5 11 5 10 5 10 5 10 5 9 5 9 5 9 5 9 5 9 5 9 5 8 5 8 6 8 5 8 6 9 6 8 7 -218 264 0 -1 -1 0 -2 -2 -2 -1 -3 -2 -3 -2 -4 -3 -5 -2 -5 -3 -5 -3 -6 -3 -6 -3 -7 -4 -7 -4 -8 -3 -8 -4 -9 -4 -8 -4 -10 -4 -9 -5 -11 -4 -10 -4 -11 -5 -11 -5 -12 -4 -12 -5 -12 -5 -13 -5 -13 -5 -13 -6 -14 -5 -14 -5 0 0zm-80 -29l120 -320 0 0 3 1 3 1 3 1 3 1 4 1 2 1 3 1 3 2 3 1 3 0 2 1 3 1 3 1 2 1 3 1 2 1 3 1 2 1 2 1 3 1 2 0 2 1 3 1 2 1 2 0 2 1 2 1 2 1 2 0 2 1 2 1 2 1 -120 320 -1 -1 -2 0 -1 -1 -2 0 -1 -1 -2 0 -2 -1 -2 -1 -2 -1 -2 0 -2 -1 -2 -1 -2 -1 -3 0 -2 -1 -3 -1 -2 -1 -3 -1 -2 -1 -3 -1 -3 -1 -3 -1 -3 -1 -3 -1 -3 -2 -3 -1 -4 -1 -3 -1 -3 -1 -4 -2 -3 -1 -4 -1 0 0zm0 0c-88,-33 -133,-132 -100,-220 33,-89 131,-134 220,-100l-120 320zm-743 -834l340 41 0 0 -2 15 0 15 0 14 1 13 2 14 3 13 4 13 4 13 5 13 7 14 7 14 9 13 10 15 11 14 12 15 14 15 16 15 17 16 18 15 20 16 22 16 23 16 25 16 27 16 28 15 29 16 31 16 33 16 35 15 35 15 38 16 39 15 -120 320 -45 -17 -43 -18 -42 -18 -40 -18 -40 -19 -38 -19 -37 -20 -36 -20 -34 -21 -33 -21 -32 -22 -31 -22 -29 -23 -29 -24 -26 -25 -26 -25 -24 -26 -23 -27 -21 -28 -20 -28 -18 -29 -17 -31 -14 -31 -13 -32 -11 -32 -9 -33 -7 -34 -5 -33 -3 -35 -1 -34 1 -34 3 -35 0 0zm397 -611l186 286 0 0 -14 10 -14 10 -14 9 -12 10 -13 10 -12 10 -11 10 -11 11 -10 10 -10 10 -10 11 -9 11 -8 10 -9 11 -8 11 -7 11 -7 11 -7 11 -6 12 -6 11 -6 12 -5 12 -5 12 -5 13 -4 12 -4 13 -3 13 -4 13 -3 13 -2 14 -2 14 -2 15 -340 -41 3 -23 4 -23 4 -23 5 -23 6 -23 6 -22 7 -23 7 -22 9 -21 8 -22 10 -21 10 -21 10 -20 12 -21 11 -20 13 -19 13 -20 14 -18 14 -19 14 -18 16 -18 16 -17 16 -18 17 -16 17 -17 18 -16 18 -15 19 -15 19 -15 20 -15 20 -14 21 -13 0 0zm808 -212l0 341 0 0 -25 1 -24 0 -24 1 -23 1 -24 2 -22 1 -23 2 -22 3 -22 3 -21 3 -21 3 -21 4 -21 4 -20 4 -20 4 -19 5 -19 5 -19 6 -19 6 -18 6 -18 6 -17 6 -18 7 -17 7 -16 8 -17 7 -16 8 -15 9 -16 8 -15 9 -15 9 -15 9 -186 -286 21 -14 21 -13 22 -12 21 -12 23 -12 22 -11 23 -10 23 -11 23 -9 24 -10 24 -9 24 -8 24 -8 25 -8 25 -7 25 -7 26 -6 26 -6 26 -5 26 -6 26 -4 27 -4 27 -4 27 -4 28 -3 27 -2 28 -2 28 -2 29 -2 29 -1 28 0 30 0 0 0zm468 46l-70 335 0 0 -11 -2 -12 -3 -12 -2 -11 -2 -12 -2 -12 -2 -12 -2 -11 -2 -12 -2 -12 -2 -13 -1 -12 -2 -12 -1 -12 -2 -13 -1 -12 -1 -12 -2 -13 -1 -13 -1 -12 -1 -13 -1 -13 -1 -13 0 -13 -1 -13 -1 -13 0 -13 0 -13 -1 -13 0 -14 0 -13 0 -13 -1 0 -341 15 0 15 0 16 0 15 0 15 1 16 0 15 1 15 1 15 0 15 1 15 1 15 1 15 1 15 2 14 1 15 1 15 2 14 1 15 2 14 2 15 2 14 2 14 2 15 2 14 2 14 3 14 2 14 2 14 3 14 3 14 2 13 3 0 0zm522 316l-339 -40 98 175 -11 -5 -10 -4 -11 -5 -11 -5 -10 -4 -11 -5 -11 -4 -10 -4 -11 -4 -11 -5 -11 -4 -10 -4 -11 -3 -11 -4 -11 -4 -11 -4 -11 -3 -11 -4 -11 -3 -11 -4 -11 -3 -11 -3 -11 -3 -11 -3 -12 -3 -11 -3 -11 -3 -11 -3 -12 -3 -11 -2 -12 -3 -11 -2 70 -335 14 3 14 3 14 3 13 4 14 3 14 3 13 4 14 4 13 3 14 4 13 4 14 4 13 4 13 4 14 5 13 4 13 4 13 5 13 4 13 5 13 5 14 5 13 5 12 5 13 5 13 5 13 6 13 5 13 6 12 5 13 6 13 6 98 175zm-98 -175c85,39 123,140 84,226 -40,86 -141,124 -227,84l143 -310zm-297 605l56 -470 339 40 -56 470 -244 134 -95 -174zm339 40c-11,94 -96,161 -190,150 -93,-11 -160,-96 -149,-190l339 40zm-632 -20l92 -329 0 0 13 4 13 3 13 4 13 4 13 4 13 5 13 4 14 5 13 4 13 5 14 5 13 5 14 5 14 5 14 5 13 6 14 5 14 6 14 6 15 5 14 6 14 7 14 6 15 6 14 7 15 6 15 7 15 7 14 7 15 7 15 7 15 7 -149 308 -14 -7 -14 -7 -13 -6 -14 -6 -13 -6 -13 -7 -14 -5 -13 -6 -13 -6 -12 -6 -13 -5 -13 -5 -12 -5 -13 -6 -12 -5 -12 -4 -12 -5 -12 -5 -12 -4 -12 -5 -11 -4 -12 -4 -11 -4 -12 -4 -11 -4 -11 -3 -11 -4 -11 -3 -10 -4 -11 -3 -11 -3 -10 -3 0 0zm-301 -45l0 -342 0 0 12 0 12 0 12 1 12 0 12 1 12 0 12 1 12 1 12 1 12 1 12 1 12 2 12 1 12 2 13 1 12 2 12 2 13 2 12 2 12 2 13 2 12 3 13 2 12 3 13 3 12 3 13 3 12 3 13 3 13 3 12 4 13 3 -92 329 -10 -3 -11 -2 -10 -3 -10 -3 -10 -2 -10 -2 -10 -3 -10 -2 -10 -2 -10 -2 -9 -2 -10 -2 -10 -1 -9 -2 -10 -1 -9 -2 -9 -1 -10 -1 -9 -2 -9 -1 -9 -1 -9 -1 -9 0 -9 -1 -9 -1 -9 0 -9 -1 -8 0 -9 0 -9 -1 -8 0 -9 0 0 0zm-141 24l-159 -303 0 0 8 -4 9 -4 8 -4 9 -4 9 -4 8 -3 9 -3 9 -4 9 -2 9 -3 9 -3 9 -2 10 -3 9 -2 9 -2 9 -2 10 -1 9 -2 10 -2 9 -1 10 -1 10 -1 10 -1 9 -1 10 -1 10 -1 10 0 10 -1 11 0 10 -1 10 0 10 0 0 342 -7 0 -6 0 -7 0 -7 1 -6 0 -6 0 -6 1 -6 0 -6 1 -5 0 -6 1 -5 1 -5 0 -5 1 -4 1 -5 1 -4 1 -4 1 -5 1 -3 1 -4 0 -3 2 -4 1 -3 1 -3 1 -3 1 -2 1 -3 1 -2 1 -2 1 -2 1 -2 0 0 1zm0 -10l-339 -40 0 0 1 -10 2 -10 2 -10 2 -10 3 -10 2 -10 4 -10 3 -9 4 -10 4 -10 5 -9 5 -9 5 -9 5 -9 6 -9 6 -8 7 -8 6 -8 7 -8 7 -7 7 -7 7 -7 8 -7 7 -7 8 -6 8 -6 8 -5 8 -6 8 -5 8 -5 9 -5 8 -4 159 303 -2 0 -1 1 -1 1 -1 1 -1 0 0 0 -1 1 0 0 0 0 0 0 0 0 0 0 1 -1 0 0 0 -1 1 -1 1 0 0 -1 1 -1 0 -1 1 -1 0 -1 1 -1 0 -1 1 -1 0 -1 0 0 0 -1 0 -1 0 0 0 0 0 0 0 0zm282 74l-119 320 0 0 -26 -10 -25 -9 -25 -10 -24 -10 -23 -9 -23 -10 -21 -9 -22 -10 -20 -10 -20 -9 -19 -10 -18 -10 -18 -9 -17 -10 -17 -10 -16 -11 -16 -10 -15 -11 -14 -11 -15 -11 -14 -13 -13 -13 -13 -13 -13 -15 -12 -17 -11 -18 -11 -20 -9 -22 -7 -24 -5 -26 -2 -27 2 -27 339 40 1 -15 -1 -14 -2 -12 -3 -11 -4 -8 -3 -6 -2 -4 -2 -2 0 0 1 1 2 2 3 3 5 3 6 5 7 5 8 5 9 6 10 6 11 6 13 7 13 7 14 8 16 7 16 8 17 8 18 8 19 8 20 8 21 8 22 9 23 9 24 9 0 0zm262 98l-126 318 0 0 -6 -3 -5 -2 -6 -2 -6 -2 -7 -3 -6 -2 -7 -3 -7 -3 -6 -2 -7 -3 -8 -2 -7 -3 -8 -3 -7 -3 -8 -3 -8 -3 -8 -3 -8 -3 -9 -3 -8 -3 -9 -3 -8 -4 -9 -3 -9 -3 -10 -4 -9 -3 -10 -4 -9 -3 -10 -4 -10 -3 -10 -4 -10 -4 119 -320 10 3 10 4 9 4 10 3 10 4 9 3 10 4 9 3 9 3 9 4 9 3 9 3 8 3 9 4 8 3 8 3 9 3 8 3 7 3 8 3 8 3 7 2 8 3 7 3 7 3 7 2 7 3 7 3 6 2 7 3 6 2 7 3 0 0zm439 298l-273 207 0 0 -4 -6 -5 -5 -4 -6 -5 -5 -6 -6 -5 -6 -6 -5 -6 -6 -7 -6 -7 -6 -7 -6 -8 -5 -7 -6 -9 -6 -8 -6 -9 -6 -9 -6 -10 -6 -10 -6 -10 -6 -11 -6 -11 -6 -11 -6 -12 -6 -12 -6 -12 -6 -13 -6 -13 -6 -13 -6 -14 -6 -14 -6 -14 -5 126 -318 17 7 18 7 17 7 17 8 16 7 17 8 16 8 16 7 15 8 16 9 15 8 15 8 14 9 15 9 14 9 14 9 13 9 14 9 13 10 13 10 13 10 12 10 12 10 12 10 12 11 11 11 11 11 11 12 10 11 10 12 10 12 10 12 0 0zm115 475l-340 -40 0 0 1 -10 1 -10 1 -9 1 -10 0 -9 0 -9 0 -8 0 -9 -1 -8 0 -8 -1 -8 -1 -7 -1 -8 -1 -7 -2 -7 -1 -7 -2 -7 -2 -6 -2 -7 -2 -6 -2 -6 -2 -6 -3 -6 -2 -6 -3 -6 -3 -6 -3 -5 -3 -6 -4 -5 -3 -6 -4 -5 -4 -5 273 -207 9 13 9 13 8 13 9 13 7 13 8 14 7 14 7 14 6 14 6 14 5 15 6 14 5 15 4 15 4 15 4 15 3 15 3 15 3 15 2 16 2 15 1 16 1 16 1 15 1 16 0 16 0 16 -1 16 -1 16 -1 16 -1 16 -2 16 0 0zm0 0c-11,93 -96,160 -190,149 -94,-11 -161,-96 -150,-189l340 40zm-404 634l-181 -290 0 0 15 -9 13 -9 13 -10 13 -9 12 -10 11 -9 12 -10 10 -10 11 -11 9 -10 10 -11 9 -10 9 -11 8 -11 8 -12 7 -11 8 -12 6 -12 7 -12 6 -12 6 -13 5 -13 6 -13 5 -14 4 -14 4 -14 4 -15 4 -14 3 -16 3 -15 2 -16 2 -16 340 40 -3 24 -4 25 -5 24 -5 24 -5 24 -7 24 -7 23 -7 23 -8 23 -9 22 -10 22 -10 22 -10 22 -12 21 -12 21 -12 20 -13 20 -14 20 -15 19 -14 19 -16 18 -16 18 -17 18 -17 17 -18 17 -18 16 -19 16 -19 15 -20 15 -20 14 -21 14 -21 14 0 0zm-862 203l0 -342 0 0 29 0 27 0 28 -1 27 -1 26 -2 26 -1 26 -2 25 -3 24 -2 25 -3 23 -4 24 -3 22 -4 23 -4 22 -5 21 -4 21 -5 21 -6 20 -5 19 -6 20 -6 18 -7 19 -6 18 -7 17 -7 17 -8 17 -7 16 -8 16 -8 15 -9 15 -8 14 -9 181 290 -21 13 -22 13 -22 12 -23 12 -23 11 -23 10 -24 11 -24 10 -25 9 -25 9 -25 9 -25 8 -26 7 -26 8 -27 6 -26 7 -28 6 -27 5 -28 6 -28 4 -28 5 -29 4 -29 3 -30 3 -30 3 -30 3 -30 2 -31 1 -31 2 -32 1 -31 0 -33 0 0 0zm-486 -42l62 -336 0 0 12 2 13 2 12 3 13 2 12 2 13 1 12 2 13 2 13 2 13 1 13 2 13 1 13 2 13 1 13 1 13 1 13 1 14 1 13 1 14 1 13 1 14 1 13 1 14 0 14 1 14 0 14 1 14 0 14 0 14 0 14 0 14 0 0 342 -16 0 -16 0 -15 0 -16 0 -16 -1 -16 0 -15 -1 -16 0 -16 -1 -15 -1 -16 -1 -15 0 -15 -2 -16 -1 -15 -1 -15 -1 -15 -1 -15 -2 -16 -1 -15 -2 -14 -2 -15 -1 -15 -2 -15 -2 -15 -2 -15 -2 -14 -2 -15 -3 -14 -2 -15 -3 -14 -2 -15 -3 0 0zm-531 -309l339 41 -100 -176 10 4 11 4 10 5 10 4 11 4 10 4 10 5 11 4 11 3 10 4 11 4 11 4 11 3 10 4 11 4 11 3 11 3 12 4 11 3 11 3 11 3 12 3 11 3 12 3 11 3 12 2 11 3 12 3 12 2 12 3 12 2 12 2 -62 336 -14 -2 -15 -3 -14 -3 -14 -3 -14 -3 -15 -3 -14 -4 -14 -3 -14 -3 -14 -4 -13 -4 -14 -3 -14 -4 -14 -4 -13 -4 -14 -4 -13 -5 -13 -4 -14 -4 -13 -5 -13 -4 -13 -5 -13 -5 -13 -4 -13 -5 -13 -5 -13 -6 -13 -5 -12 -5 -13 -5 -13 -6 -12 -5 -100 -177zm100 177c-86,-39 -125,-140 -87,-226 39,-86 140,-125 226,-86l-139 312zm3501 87l-114 -322 0 0 11 -4 11 -4 11 -5 11 -4 11 -5 11 -4 12 -5 11 -5 11 -6 11 -5 11 -6 11 -5 11 -6 12 -6 11 -7 11 -6 12 -7 11 -6 11 -7 12 -7 11 -8 12 -7 11 -7 11 -8 12 -8 11 -8 12 -9 12 -8 11 -9 12 -8 11 -9 12 -9 212 268 -14 11 -14 10 -14 11 -14 10 -14 11 -14 10 -14 9 -14 10 -14 10 -14 9 -14 9 -15 9 -14 9 -14 9 -14 8 -15 9 -14 8 -14 8 -15 7 -14 8 -15 7 -14 8 -15 7 -15 7 -14 6 -15 7 -15 6 -14 6 -15 6 -15 6 -15 6 -15 5 0 0zm-521 83l0 -342 0 0 15 0 14 0 14 -1 15 0 14 -1 14 0 13 -1 14 -1 14 -1 13 -2 14 -1 13 -1 13 -2 13 -2 13 -1 13 -2 12 -2 13 -3 12 -2 13 -2 12 -3 12 -2 12 -3 12 -3 11 -3 12 -3 11 -3 12 -4 11 -3 11 -4 11 -4 11 -3 114 322 -15 5 -15 5 -15 5 -15 5 -15 4 -15 4 -16 5 -15 4 -16 3 -16 4 -16 3 -16 4 -16 3 -16 3 -16 3 -16 2 -16 3 -17 2 -16 2 -17 2 -17 2 -17 2 -16 1 -17 2 -17 1 -18 1 -17 1 -17 1 -17 0 -18 0 -17 1 -18 0 0 0zm-726 -269l253 -230 0 0 9 9 9 9 9 8 9 8 10 8 10 8 10 7 11 8 11 7 11 6 12 7 13 6 12 6 14 6 13 5 15 6 14 5 16 4 15 5 16 4 17 4 17 3 18 4 18 3 19 2 19 2 20 2 20 2 21 1 21 1 22 1 22 0 0 342 -28 0 -28 -1 -27 -1 -27 -2 -27 -2 -26 -3 -26 -3 -26 -3 -25 -5 -26 -4 -24 -5 -25 -6 -24 -6 -24 -7 -23 -7 -24 -8 -23 -9 -22 -9 -22 -9 -22 -11 -21 -10 -21 -12 -21 -12 -20 -12 -20 -14 -19 -13 -19 -15 -18 -15 -18 -15 -17 -16 -17 -17 -16 -17 0 0zm-189 -746l340 40 0 0 -3 22 -2 21 -1 21 -1 21 -1 19 0 20 0 19 0 18 1 18 1 18 2 17 2 16 2 17 3 15 3 15 3 15 4 15 4 13 4 14 4 13 5 12 5 13 6 12 5 11 6 11 7 11 6 11 7 10 7 10 7 9 8 10 8 9 -253 230 -15 -18 -15 -18 -15 -19 -13 -19 -13 -19 -13 -20 -12 -21 -11 -21 -10 -21 -10 -22 -9 -22 -9 -22 -8 -23 -7 -23 -6 -23 -6 -23 -6 -24 -5 -24 -4 -25 -3 -24 -3 -25 -2 -25 -2 -26 -2 -25 0 -26 0 -26 0 -26 1 -27 2 -27 2 -27 2 -27 3 -28 0 0zm0 0c11,-94 96,-161 190,-150 94,12 161,97 150,190l-340 -40zm500 -1310l-160 1350 -340 -40 160 -1351 170 -150 170 191zm-340 -41c11,-93 96,-160 190,-149 94,11 161,96 150,190l-340 -41zm948 192l-778 0 0 -342 778 0 170 191 -170 151zm0 -342c95,0 171,76 171,171 0,94 -76,171 -171,171l0 -342zm-319 1409l149 -1259 340 41 -149 1258 -340 -40 0 0zm356 255l-282 194 0 0 -8 -12 -7 -12 -7 -13 -7 -12 -6 -13 -5 -13 -6 -13 -4 -13 -5 -13 -4 -13 -3 -14 -4 -13 -3 -14 -2 -14 -3 -14 -2 -14 -2 -14 -1 -14 -1 -14 -1 -14 -1 -15 0 -14 0 -15 0 -15 0 -15 0 -15 1 -15 1 -16 1 -15 2 -16 1 -16 2 -16 340 40 -2 12 -1 12 -1 11 -1 12 0 10 -1 11 0 10 -1 10 0 9 1 9 0 9 0 9 1 8 0 7 1 8 1 7 1 6 1 6 1 6 1 6 2 5 1 4 1 5 1 4 2 3 1 3 1 3 2 3 1 2 1 2 1 2 1 1 0 0zm0 0c53,78 33,184 -44,238 -78,53 -185,34 -238,-44l282 -194zm111 30l0 342 0 0 -14 0 -14 0 -14 -1 -14 -1 -14 -1 -14 -2 -14 -1 -14 -3 -13 -2 -14 -3 -13 -3 -14 -4 -13 -3 -13 -5 -13 -4 -13 -6 -13 -5 -13 -6 -12 -6 -12 -7 -13 -8 -11 -7 -12 -8 -11 -9 -11 -9 -11 -10 -10 -9 -10 -11 -10 -10 -9 -11 -9 -12 -8 -11 282 -194 1 1 1 2 0 1 1 1 1 1 1 1 2 1 1 1 1 1 1 1 2 1 2 1 2 1 2 1 2 1 3 1 3 2 4 1 3 1 4 1 4 1 5 1 5 1 5 1 6 1 6 1 6 1 7 0 7 1 7 0 8 0 8 0 0 0zm230 -63l166 299 0 0 -12 7 -11 6 -12 6 -12 6 -12 5 -12 6 -12 5 -12 5 -11 5 -13 4 -12 5 -12 4 -12 4 -13 4 -12 4 -12 3 -13 3 -12 3 -13 3 -12 3 -13 2 -13 3 -12 2 -13 1 -13 2 -13 1 -13 2 -12 1 -13 0 -13 1 -13 0 -13 0 0 -342 7 0 7 0 8 0 7 -1 7 0 7 -1 7 0 7 -1 7 -1 7 -2 8 -1 7 -1 7 -2 7 -1 7 -2 7 -2 7 -2 8 -2 7 -2 7 -3 7 -2 7 -3 7 -3 8 -2 7 -4 7 -3 7 -3 8 -3 7 -4 7 -4 8 -4 7 -4 0 0zm0 0c83,-45 187,-16 232,67 46,83 16,187 -66,232l-166 -299zm194 -121l340 40 -35 84 -9 12 -9 11 -9 12 -10 11 -9 11 -10 11 -9 11 -10 11 -10 10 -10 11 -10 10 -10 10 -10 10 -10 10 -10 9 -11 9 -10 10 -11 9 -10 9 -11 8 -11 9 -11 8 -11 8 -11 8 -11 8 -11 8 -11 8 -12 7 -11 7 -12 7 -12 7 -11 6 -166 -299 7 -4 8 -4 7 -4 7 -5 7 -5 8 -4 7 -5 7 -5 7 -6 7 -5 8 -6 7 -5 7 -6 7 -6 7 -6 7 -7 8 -6 7 -7 7 -6 7 -7 7 -8 7 -7 7 -7 7 -8 8 -8 7 -8 7 -8 7 -8 7 -8 7 -9 7 -9 7 -9 -35 85zm35 -85c57,-75 165,-88 240,-31 74,58 88,165 30,240l-270 -209zm466 -1234l-161 1359 -340 -40 162 -1360 169 -150 170 191zm-339 -41c11,-93 96,-160 190,-149 93,11 160,96 149,190l-339 -41zm947 192l-778 0 0 -342 778 0 170 191 -170 151zm0 -342c95,0 171,76 171,171 0,94 -76,171 -171,171l0 -342zm-423 2284l254 -2134 339 41 -253 2133 -170 151 -170 -191zm340 40c-11,94 -96,161 -190,150 -94,-11 -161,-96 -150,-190l340 40zm-948 -191l778 0 0 342 -778 0 -170 -191 170 -151zm0 342c-94,0 -171,-77 -171,-171 0,-94 77,-171 171,-171l0 342zm202 -418l-32 267 -340 -40 32 -267 64 -114 276 154zm-340 -40c11,-94 96,-161 190,-150 94,11 161,96 150,190l-340 -40zm1842 -327l109 -915 339 41 -108 914 -270 118 -70 -158zm340 40c-11,94 -97,161 -190,150 -94,-12 -161,-97 -150,-190l340 40zm77 -84l-104 326 0 0 -9 -3 -7 -3 -8 -2 -9 -3 -8 -3 -7 -3 -8 -3 -8 -4 -8 -3 -8 -3 -8 -4 -7 -3 -8 -4 -8 -4 -8 -3 -7 -4 -8 -4 -7 -4 -8 -4 -7 -4 -8 -4 -7 -5 -8 -4 -7 -4 -7 -5 -8 -5 -7 -4 -7 -5 -7 -5 -7 -5 -7 -5 -7 -5 200 -277 4 3 5 4 4 3 4 2 5 3 4 3 5 3 4 3 5 3 4 2 5 3 4 2 5 3 4 2 5 3 5 2 4 2 5 3 4 2 5 2 5 2 4 2 5 2 5 2 5 2 4 2 5 2 5 2 5 1 5 2 5 2 4 1 0 0zm0 0c90,29 140,126 111,215 -29,90 -126,140 -215,111l104 -326zm162 26l0 342 0 0 -9 0 -8 0 -9 -1 -8 0 -9 0 -8 -1 -9 0 -8 -1 -9 -1 -8 -1 -8 0 -9 -1 -8 -1 -9 -1 -8 -2 -8 -1 -9 -1 -8 -2 -8 -1 -8 -2 -9 -2 -8 -1 -8 -2 -8 -2 -9 -2 -8 -2 -8 -2 -8 -3 -8 -2 -8 -2 -8 -3 -8 -2 104 -326 5 2 5 1 5 2 5 1 5 2 5 1 5 1 5 1 5 2 5 1 5 1 5 1 5 1 5 1 5 1 5 0 5 1 5 1 5 1 6 0 5 1 5 0 5 1 5 0 5 1 5 0 5 0 5 0 5 1 5 0 6 0 5 0 0 0zm356 -116l223 260 0 0 -15 12 -15 12 -15 12 -15 11 -16 10 -16 11 -17 10 -16 9 -17 10 -17 9 -17 8 -18 8 -17 7 -18 8 -18 6 -18 7 -19 6 -19 5 -18 5 -19 5 -19 4 -20 4 -19 4 -20 3 -19 3 -20 2 -20 2 -20 2 -21 1 -20 1 -21 1 -20 0 0 -342 14 0 15 -1 14 0 14 -1 14 -1 13 -2 13 -1 13 -2 13 -2 12 -2 13 -3 12 -3 11 -2 12 -4 11 -3 11 -4 11 -3 10 -4 11 -4 10 -5 10 -4 10 -5 9 -5 10 -5 9 -6 9 -5 9 -6 9 -6 9 -6 8 -7 9 -7 8 -7 0 0zm157 -319l340 41 0 -1 -3 21 -3 19 -3 20 -4 20 -4 19 -4 19 -5 20 -6 18 -5 19 -6 19 -7 18 -6 18 -8 18 -7 18 -8 17 -9 17 -8 17 -9 17 -10 16 -10 17 -10 16 -11 15 -11 16 -12 15 -12 15 -12 14 -13 14 -13 14 -13 14 -14 13 -14 13 -14 13 -223 -260 8 -7 8 -7 8 -8 7 -7 8 -8 7 -8 6 -8 7 -8 6 -8 6 -9 6 -8 6 -9 6 -9 5 -9 5 -10 5 -9 5 -10 4 -10 5 -10 4 -11 4 -11 4 -11 4 -11 3 -11 3 -12 3 -12 3 -12 3 -13 2 -13 2 -13 2 -13 2 -14 0 0zm0 0c11,-94 96,-161 190,-149 94,11 161,96 150,189l-340 -40zm-70 -298l257 -225 0 -1 12 14 11 15 11 14 11 15 10 16 10 15 10 16 8 17 9 16 8 17 7 17 7 17 6 17 6 18 5 18 5 17 5 19 4 18 3 18 3 19 3 18 2 19 1 19 2 19 0 20 1 19 -1 19 0 20 -1 19 -1 20 -2 20 -2 20 -340 -41 2 -13 1 -14 1 -12 0 -13 1 -12 0 -12 -1 -12 0 -11 -1 -11 -1 -11 -1 -10 -1 -10 -2 -10 -1 -10 -2 -9 -3 -9 -2 -9 -3 -8 -2 -9 -3 -8 -4 -8 -3 -7 -3 -8 -4 -7 -4 -7 -4 -7 -5 -7 -4 -7 -5 -7 -5 -7 -5 -6 -6 -7 0 0zm0 0c-62,-70 -55,-178 15,-241 71,-62 179,-56 242,15l-257 226zm-280 -105l0 -342 0 0 20 0 19 1 20 0 19 2 19 2 19 2 19 2 19 4 19 3 18 4 18 4 19 5 17 5 18 6 18 6 17 7 17 7 17 8 17 8 16 8 16 9 16 10 16 10 15 10 15 11 14 11 14 12 14 12 14 13 13 13 13 13 12 14 -257 225 -6 -7 -6 -6 -6 -6 -6 -5 -6 -6 -6 -5 -7 -5 -6 -5 -7 -4 -7 -5 -7 -4 -8 -4 -7 -4 -8 -4 -8 -3 -8 -4 -8 -3 -9 -3 -9 -3 -9 -3 -10 -2 -10 -3 -10 -2 -11 -2 -10 -1 -12 -2 -11 -1 -12 -1 -12 -1 -12 -1 -13 0 -13 0 0 0zm-185 26l-91 -329 -2 1 9 -3 8 -2 9 -3 9 -2 8 -2 9 -2 9 -2 8 -2 9 -2 9 -2 8 -1 9 -2 9 -1 8 -2 9 -1 9 -1 8 -2 9 -1 9 -1 8 -1 9 -1 9 0 9 -1 8 -1 9 0 9 -1 8 0 9 -1 9 0 8 0 9 0 9 0 0 342 -6 0 -6 0 -5 0 -6 0 -5 0 -6 1 -6 0 -6 0 -5 1 -6 0 -6 1 -5 0 -6 1 -6 1 -5 0 -6 1 -6 1 -5 1 -6 1 -6 1 -6 1 -5 1 -6 1 -6 1 -6 2 -5 1 -6 1 -6 2 -6 1 -6 2 -5 1 -6 2 -2 0zm2 0c-91,26 -186,-26 -212,-117 -26,-91 26,-185 117,-211l95 328zm-111 -44l-339 -41 84 -127 8 -5 8 -5 9 -5 8 -4 9 -5 8 -4 9 -5 8 -4 8 -4 9 -4 9 -4 8 -4 8 -4 9 -4 8 -4 9 -3 9 -4 8 -4 9 -3 8 -3 9 -4 8 -3 9 -3 8 -3 9 -3 9 -3 8 -3 9 -3 9 -2 8 -3 9 -2 9 -3 91 329 -6 2 -5 2 -6 2 -6 1 -6 2 -6 2 -6 2 -6 2 -6 2 -6 3 -6 2 -5 2 -6 2 -6 3 -6 2 -7 3 -6 2 -6 3 -6 3 -6 3 -6 3 -6 2 -6 3 -6 4 -6 3 -7 3 -6 3 -6 4 -6 3 -6 3 -7 4 -6 3 84 -127zm-84 127c-82,48 -186,20 -234,-62 -47,-81 -19,-186 63,-233l171 295zm-617 -730l-377 3180 -340 -41 377 -3180 170 -150 170 191zm-340 -41c12,-93 97,-160 190,-149 94,11 161,96 150,190l-340 -41zm914 191l-744 0 0 -341 744 0 170 191 -170 150zm0 -341c95,0 171,76 171,171 0,94 -76,170 -171,170l0 -341zm-190 325l21 -175 339 41 -21 175 -74 121 -265 -162zm339 41c-11,94 -96,161 -189,149 -94,-11 -161,-96 -150,-190l339 41zm129 -353l99 327 0 0 -9 3 -10 3 -9 3 -10 4 -9 3 -9 3 -10 4 -9 4 -10 3 -9 4 -10 4 -9 4 -9 5 -10 4 -9 4 -10 5 -9 5 -10 4 -9 5 -9 5 -10 5 -9 5 -10 6 -9 5 -10 6 -9 5 -10 6 -9 6 -9 6 -10 6 -9 6 -10 6 -191 -283 12 -8 12 -8 12 -7 11 -8 12 -7 12 -8 12 -7 12 -7 12 -7 12 -6 12 -7 13 -7 12 -6 12 -6 12 -6 13 -7 12 -5 12 -6 13 -6 12 -5 12 -6 13 -5 13 -5 12 -5 13 -5 12 -5 13 -5 13 -4 12 -5 13 -4 13 -4 13 -4 0 0zm439 -61l0 342 0 0 -12 0 -12 0 -12 0 -11 1 -12 0 -11 0 -12 1 -11 1 -11 1 -11 0 -11 1 -11 1 -11 2 -11 1 -10 1 -11 2 -11 1 -10 2 -10 1 -11 2 -10 2 -10 2 -10 2 -10 2 -10 2 -10 3 -10 2 -9 2 -10 3 -10 3 -9 2 -10 3 -99 -327 13 -4 13 -3 13 -4 13 -3 13 -4 13 -3 13 -3 13 -3 14 -3 13 -3 13 -2 14 -3 13 -2 14 -2 14 -2 13 -2 14 -2 14 -2 14 -1 14 -2 14 -1 14 -1 14 -1 14 -1 14 -1 14 -1 14 -1 15 0 14 -1 15 0 14 0 15 0 0 0zm930 364l-251 233 0 0 -15 -16 -15 -15 -16 -14 -16 -14 -16 -14 -16 -13 -17 -12 -17 -12 -18 -12 -18 -11 -18 -10 -19 -11 -20 -9 -19 -9 -20 -9 -21 -8 -21 -8 -22 -7 -22 -7 -22 -7 -23 -6 -24 -5 -24 -5 -25 -4 -25 -4 -25 -4 -26 -3 -27 -2 -27 -2 -28 -1 -28 -1 -29 0 0 -342 35 0 35 1 35 2 34 2 34 3 33 4 33 4 33 6 33 5 32 7 31 7 32 8 30 9 31 9 30 11 30 11 29 11 29 13 28 13 28 14 27 15 27 15 27 16 26 17 25 18 25 18 24 19 24 20 23 21 23 21 22 22 21 22 1 0zm-1 0c65,70 60,178 -9,242 -69,64 -177,60 -241,-9l250 -233zm273 943l-339 -40 0 0 3 -27 2 -27 2 -27 1 -26 0 -25 0 -25 0 -25 -1 -24 -2 -24 -2 -23 -3 -23 -4 -22 -4 -22 -4 -21 -5 -22 -6 -20 -6 -21 -6 -20 -8 -19 -7 -19 -8 -19 -9 -19 -9 -18 -10 -18 -10 -18 -11 -17 -12 -17 -12 -17 -12 -17 -13 -16 -14 -16 -14 -16 251 -233 20 24 20 23 20 24 18 25 18 25 17 26 16 26 16 26 15 27 13 28 13 28 13 28 11 28 11 29 9 30 9 30 8 30 7 30 7 31 5 31 5 31 4 32 3 32 3 32 1 32 1 33 0 33 0 33 -2 34 -2 34 -3 34 -4 34 0 0zm0 0c-11,94 -96,161 -190,150 -93,-11 -160,-96 -149,-190l339 40zm-478 913l-222 -260 0 0 19 -17 19 -17 18 -17 18 -18 17 -18 17 -18 16 -19 15 -19 15 -19 15 -19 13 -20 14 -20 13 -20 12 -21 12 -20 12 -22 11 -21 10 -22 10 -22 9 -23 9 -23 9 -23 8 -24 7 -24 7 -24 7 -25 6 -26 6 -25 5 -26 4 -27 4 -27 4 -27 339 40 -4 35 -5 33 -6 34 -7 33 -7 33 -7 33 -9 32 -9 32 -10 32 -11 31 -11 31 -12 30 -12 31 -14 29 -14 30 -14 29 -16 28 -16 29 -17 27 -17 28 -18 27 -19 26 -19 26 -20 26 -21 25 -22 24 -22 25 -22 23 -23 24 -24 23 -25 22 -25 22 0 0zm-989 348l0 -342 0 0 29 0 29 -1 28 -1 28 -2 28 -2 27 -3 27 -4 26 -4 26 -4 26 -5 25 -6 26 -6 24 -6 25 -7 24 -8 24 -8 24 -8 23 -9 23 -10 22 -10 23 -11 22 -11 22 -11 22 -12 21 -13 21 -13 21 -14 21 -14 20 -15 20 -16 20 -15 20 -17 222 260 -26 21 -26 21 -26 20 -27 20 -27 18 -27 19 -28 17 -29 17 -28 16 -29 15 -29 15 -30 14 -30 13 -31 13 -30 12 -31 11 -31 11 -32 9 -32 10 -32 8 -33 8 -32 7 -33 6 -34 6 -33 5 -34 4 -34 4 -35 3 -34 2 -35 2 -35 1 -36 0 0 0zm-416 -56l100 -327 0 0 8 2 9 3 8 2 9 2 9 2 9 3 9 2 9 2 9 2 9 1 10 2 9 2 10 1 9 2 10 1 10 2 10 1 10 1 10 1 10 1 10 1 11 1 10 1 11 1 11 0 10 1 11 0 11 1 11 0 12 0 11 0 11 0 0 342 -14 0 -13 0 -14 0 -14 -1 -14 0 -13 -1 -14 0 -13 -1 -14 -1 -13 -1 -14 -1 -13 -1 -13 -2 -13 -1 -13 -2 -13 -1 -13 -2 -13 -2 -13 -2 -13 -2 -13 -3 -12 -2 -13 -2 -13 -3 -12 -3 -12 -3 -13 -3 -12 -3 -12 -3 -12 -3 -12 -4 -12 -3 -1 0zm-72 -297l-339 -40 276 -113 7 5 6 5 7 5 6 5 7 5 7 4 6 5 7 4 7 5 7 4 7 4 7 5 7 4 7 4 8 4 7 4 7 3 8 4 7 4 8 3 7 4 8 3 8 4 7 3 8 3 8 3 8 3 8 3 8 3 8 2 9 3 8 3 -100 327 -12 -4 -12 -4 -11 -4 -12 -4 -12 -4 -12 -5 -11 -4 -12 -5 -12 -5 -11 -4 -11 -5 -12 -6 -11 -5 -11 -5 -11 -6 -11 -6 -11 -5 -11 -6 -11 -6 -10 -7 -11 -6 -10 -6 -11 -7 -10 -7 -10 -6 -11 -7 -10 -7 -10 -8 -10 -7 -9 -7 -10 -8 -10 -7 277 -114zm-277 114c-73,-60 -85,-167 -26,-241 59,-73 167,-85 240,-26l-214 267zm-205 1049l143 -1203 339 40 -143 1204 -169 150 -170 -191zm339 41c-11,93 -96,160 -190,149 -93,-11 -160,-96 -149,-190l339 41zm-942 -192l773 0 0 342 -773 0 -170 -191 170 -151zm0 342c-94,0 -171,-76 -171,-171 0,-94 77,-171 171,-171l0 342zm4903 -1074l-79 -332 -1 0 17 -4 17 -5 16 -4 17 -4 17 -5 16 -5 17 -5 16 -4 16 -6 17 -5 16 -5 16 -6 17 -5 16 -6 16 -6 16 -6 16 -6 17 -7 16 -6 16 -7 16 -6 16 -7 16 -7 15 -7 16 -7 16 -8 16 -7 16 -8 16 -8 15 -8 16 -8 16 -8 159 303 -18 9 -18 9 -18 9 -18 9 -18 9 -18 9 -19 8 -18 9 -18 8 -19 8 -18 8 -19 7 -18 8 -19 7 -18 8 -19 7 -19 7 -18 7 -19 6 -19 7 -19 6 -19 6 -19 6 -19 6 -19 6 -19 6 -19 5 -19 5 -19 6 -19 5 -20 4 -19 5 0 0zm0 0c-92,22 -184,-34 -206,-126 -22,-92 35,-184 126,-206l80 332zm-646 73l0 -342 0 0 19 0 19 0 18 0 19 -1 18 0 19 -1 18 -1 18 -1 18 -1 19 -1 18 -1 18 -2 17 -1 18 -2 18 -2 18 -2 17 -2 18 -2 18 -2 17 -3 18 -2 17 -3 17 -3 17 -3 18 -3 17 -3 17 -3 17 -4 17 -3 16 -4 17 -4 17 -3 79 332 -20 5 -19 4 -19 4 -20 4 -19 4 -20 4 -20 4 -19 3 -20 4 -20 3 -20 3 -19 3 -20 3 -21 2 -20 3 -20 2 -20 2 -20 2 -20 2 -21 2 -20 2 -21 1 -20 1 -21 2 -20 1 -21 1 -21 0 -21 1 -21 1 -20 0 -21 0 -22 0 0 0zm-1079 -347l232 -251 0 0 17 15 17 15 18 14 19 14 19 13 19 13 21 12 20 12 22 12 22 11 22 11 24 10 24 10 24 9 25 9 26 9 27 8 27 7 28 7 29 7 29 6 30 5 31 6 31 4 32 4 33 4 34 3 34 2 35 2 35 1 37 1 36 0 0 342 -42 0 -41 -1 -41 -2 -41 -2 -40 -3 -39 -3 -39 -4 -38 -5 -38 -6 -38 -6 -36 -7 -37 -7 -36 -8 -35 -9 -35 -10 -34 -10 -33 -11 -34 -12 -32 -12 -32 -13 -32 -14 -31 -15 -30 -15 -30 -16 -29 -17 -28 -18 -28 -18 -27 -19 -27 -20 -26 -21 -25 -21 -25 -22 0 0zm-316 -981l340 40 0 0 -4 30 -2 29 -2 28 -1 28 -1 27 1 27 1 26 1 25 2 25 3 25 3 24 4 23 5 23 5 22 6 22 6 21 7 21 7 20 8 20 9 19 9 19 10 19 10 18 11 18 12 17 12 17 12 17 14 17 14 16 15 16 15 16 16 15 -232 251 -24 -23 -23 -23 -22 -24 -21 -25 -21 -25 -19 -26 -19 -26 -18 -27 -16 -28 -16 -28 -15 -28 -14 -29 -14 -30 -12 -30 -11 -31 -10 -31 -10 -31 -8 -32 -7 -32 -7 -33 -6 -33 -4 -33 -4 -34 -3 -34 -2 -35 -1 -34 0 -35 0 -36 2 -36 2 -36 3 -36 4 -37 0 0zm513 -905l207 272 1 0 -21 16 -20 17 -20 17 -19 17 -18 17 -18 18 -17 18 -17 18 -16 19 -15 18 -15 19 -14 20 -14 19 -13 20 -12 20 -12 21 -12 21 -11 21 -10 22 -10 22 -9 22 -9 23 -9 23 -7 23 -8 24 -6 24 -7 25 -5 25 -5 25 -5 26 -4 27 -3 26 -340 -40 5 -34 5 -34 6 -34 6 -33 8 -33 8 -33 9 -32 10 -32 10 -32 12 -31 12 -31 12 -31 14 -30 14 -29 15 -30 16 -28 17 -29 17 -28 18 -27 19 -27 19 -27 21 -26 21 -25 21 -26 23 -24 23 -24 23 -24 25 -23 25 -23 26 -22 26 -22 27 -21 0 0zm0 0c75,-57 182,-42 240,33 57,75 43,182 -32,239l-208 -272zm1081 -330l0 341 0 0 -34 1 -33 0 -33 2 -32 2 -32 2 -32 3 -31 3 -31 4 -30 5 -30 5 -30 5 -29 6 -28 7 -28 7 -28 7 -27 8 -27 8 -27 9 -26 10 -26 10 -25 10 -25 11 -25 11 -24 12 -24 13 -23 13 -23 13 -23 14 -22 14 -23 15 -21 15 -22 16 -207 -272 28 -20 28 -20 29 -19 29 -19 29 -18 30 -17 30 -17 31 -16 31 -15 32 -15 31 -14 33 -13 32 -13 33 -11 34 -12 34 -10 34 -10 34 -10 35 -8 35 -8 36 -7 36 -7 36 -6 37 -5 37 -5 37 -4 37 -4 38 -2 39 -3 38 -1 39 -1 39 0 0 0zm1003 375l-250 233 -1 0 -15 -16 -16 -16 -16 -15 -16 -14 -17 -14 -18 -14 -18 -12 -18 -13 -19 -12 -20 -11 -20 -12 -20 -10 -21 -10 -22 -10 -22 -9 -23 -9 -24 -8 -24 -8 -24 -7 -26 -7 -26 -6 -26 -6 -27 -5 -28 -5 -29 -4 -29 -3 -29 -3 -31 -3 -31 -2 -31 -1 -33 -1 -33 -1 0 -341 39 0 39 1 38 2 37 2 37 3 37 4 36 4 36 6 35 6 35 6 35 8 33 8 34 9 33 9 32 11 32 11 32 12 31 13 30 13 30 15 29 15 29 16 28 16 28 18 27 18 26 19 26 20 25 21 25 21 24 22 23 23 22 23 0 0zm0 0c64,70 60,178 -9,242 -69,64 -177,60 -242,-9l251 -233zm275 1020l-339 -40 0 0 3 -32 3 -31 2 -31 2 -30 1 -29 0 -29 0 -28 -1 -28 -2 -27 -2 -27 -3 -26 -3 -25 -4 -25 -5 -24 -5 -24 -6 -23 -6 -23 -7 -22 -7 -22 -8 -21 -9 -20 -9 -21 -9 -19 -10 -20 -11 -18 -11 -19 -12 -18 -12 -18 -13 -17 -14 -17 -14 -17 -14 -16 250 -233 22 24 21 25 20 26 19 26 19 26 18 27 16 28 16 28 15 29 14 30 14 29 12 31 12 30 10 32 10 31 9 32 8 33 7 33 6 33 6 34 4 34 4 34 3 35 2 35 1 36 1 36 0 36 -1 37 -2 37 -3 37 -3 38 -5 38 0 0zm-342 -18l3 -22 339 40 -2 23 -170 150 -170 -191zm340 41c-11,93 -96,160 -190,149 -94,-11 -161,-96 -150,-190l340 41zm-1916 -192l1746 0 0 342 -1746 0 -170 -191 170 -151zm0 342c-94,0 -171,-76 -171,-171 0,-94 77,-171 171,-171l0 342zm-171 -182l1 -9 340 41 -1 9 -340 -41 0 0zm340 41c-12,94 -97,161 -191,149 -93,-11 -160,-96 -149,-190l340 41zm90 249l-215 265 1 1 -15 -13 -15 -13 -14 -13 -14 -14 -13 -14 -13 -14 -13 -15 -11 -16 -12 -15 -10 -16 -11 -17 -9 -17 -9 -17 -9 -17 -8 -18 -7 -18 -6 -18 -6 -19 -6 -18 -4 -19 -4 -19 -4 -19 -3 -19 -2 -20 -2 -19 -1 -20 0 -19 0 -20 0 -20 1 -20 2 -20 2 -20 340 41 -2 11 0 12 -1 11 0 10 0 10 0 10 0 10 1 9 1 9 2 9 1 8 2 8 2 8 2 7 2 7 3 8 3 7 3 6 3 7 3 6 4 7 4 6 4 7 5 6 4 6 6 6 5 6 6 7 6 6 7 6 7 6 7 6 0 1zm0 -1c74,59 85,167 26,240 -59,74 -166,86 -240,27l214 -267zm424 110l0 342 0 0 -24 0 -23 -1 -24 -1 -23 -1 -23 -1 -23 -2 -22 -2 -22 -3 -22 -2 -22 -4 -21 -3 -21 -4 -21 -4 -21 -5 -21 -5 -20 -5 -20 -6 -19 -6 -20 -7 -19 -7 -19 -7 -19 -8 -18 -8 -18 -9 -18 -9 -17 -9 -18 -10 -16 -11 -17 -10 -16 -12 -16 -11 -16 -13 215 -265 8 6 8 5 8 6 9 6 9 5 9 6 9 5 10 5 10 5 11 4 11 5 11 4 12 5 12 4 13 4 13 3 13 4 14 3 14 3 14 3 15 3 16 3 15 2 17 2 16 2 17 1 18 2 17 1 18 1 19 1 19 0 19 0 0 0zm429 -65l98 327 0 1 -17 4 -16 5 -17 5 -16 4 -17 4 -17 4 -16 4 -17 4 -16 4 -17 3 -16 4 -17 3 -16 3 -17 3 -16 2 -17 3 -16 2 -16 3 -17 2 -16 2 -17 2 -16 1 -17 2 -16 1 -16 1 -17 1 -16 1 -16 1 -17 0 -16 1 -16 0 -17 0 0 -342 13 0 13 0 14 -1 13 0 13 -1 13 0 13 -1 13 -1 13 -1 14 -1 13 -2 13 -1 13 -2 14 -1 13 -2 13 -2 14 -2 13 -2 14 -3 13 -2 14 -3 13 -2 14 -3 13 -3 14 -3 14 -4 13 -3 14 -4 14 -3 13 -4 14 -4 14 -4 0 0zm0 0c90,-27 186,24 213,115 27,90 -25,186 -115,213l-98 -328zm715 -30l-340 -41 253 170 -16 9 -17 9 -17 9 -17 9 -16 9 -17 8 -17 9 -16 8 -17 8 -17 8 -16 8 -17 8 -17 8 -16 7 -17 8 -16 7 -17 7 -16 7 -17 7 -17 6 -16 7 -17 6 -16 6 -17 7 -16 6 -17 5 -16 6 -16 6 -17 5 -16 5 -17 5 -16 5 -98 -327 14 -4 13 -5 14 -4 14 -5 14 -4 14 -5 15 -5 14 -5 14 -6 14 -5 14 -6 15 -5 14 -6 14 -6 15 -6 14 -6 15 -6 14 -7 15 -6 14 -7 15 -7 14 -7 15 -7 15 -7 15 -8 14 -7 15 -8 15 -7 15 -8 15 -8 15 -9 15 -8 253 170zm-253 -170c82,-46 186,-16 232,66 46,83 17,187 -66,233l-166 -299zm-139 573l52 -444 340 41 -53 444 -90 131 -249 -172zm339 41c-11,93 -96,160 -190,149 -94,-11 -161,-96 -149,-190l339 41zm-772 -894l-957 2 -1 -342 957 -2 172 173 -171 169zm-1 -342c95,-1 172,76 172,170 0,95 -76,171 -171,172l-1 -342zm-230 -37l249 -233 0 0 10 11 10 11 9 11 9 12 9 12 8 12 8 13 8 12 7 13 7 14 7 13 6 13 6 14 5 14 6 14 4 14 5 14 4 14 4 15 3 14 3 15 3 15 3 15 2 15 2 15 1 15 2 15 1 16 0 15 1 16 0 16 0 15 -342 -5 0 -10 0 -10 0 -9 -1 -9 0 -9 -1 -9 -1 -8 -1 -9 -1 -8 -1 -7 -2 -7 -1 -8 -2 -7 -2 -6 -2 -7 -1 -6 -2 -6 -3 -5 -2 -6 -2 -5 -3 -6 -2 -5 -3 -4 -2 -5 -3 -5 -3 -4 -3 -5 -3 -4 -3 -4 -3 -4 -4 -4 -3 -4 0 0zm0 0c-65,-69 -61,-177 8,-241 69,-65 177,-61 241,8l-249 233zm-180 -62l0 -342 0 0 16 0 15 0 15 1 15 1 15 1 15 2 15 2 15 2 15 3 14 3 15 3 14 4 14 4 14 4 14 5 14 5 14 6 13 6 14 6 13 6 13 7 13 8 12 7 13 8 12 9 12 8 11 10 12 9 11 10 11 10 10 10 10 11 -249 233 -4 -4 -4 -3 -3 -3 -4 -4 -4 -3 -3 -3 -4 -3 -4 -3 -5 -2 -4 -3 -4 -2 -5 -3 -4 -2 -5 -2 -5 -2 -5 -3 -6 -1 -5 -2 -6 -2 -6 -2 -6 -1 -7 -2 -6 -1 -7 -1 -7 -2 -7 -1 -8 0 -8 -1 -8 -1 -8 0 -9 0 -9 0 0 0zm-238 78l-215 -266 1 0 12 -10 12 -9 12 -8 13 -9 12 -8 13 -8 13 -8 13 -7 13 -7 14 -7 14 -7 13 -6 14 -6 14 -6 14 -5 15 -5 14 -5 15 -4 14 -4 15 -4 15 -3 15 -4 15 -2 15 -3 15 -2 15 -2 16 -2 15 -1 16 -1 15 -1 16 0 15 0 0 342 -9 0 -9 0 -9 0 -9 1 -9 1 -8 1 -9 1 -8 1 -8 1 -8 2 -8 1 -8 2 -7 2 -8 2 -7 2 -8 3 -7 2 -7 3 -7 3 -7 3 -7 3 -7 3 -6 4 -7 3 -7 4 -6 4 -7 4 -6 4 -7 5 -6 4 -7 5 -6 5 1 -1zm-1 1c-74,59 -181,47 -240,-27 -59,-74 -47,-181 27,-240l213 267zm-308 22l1 342 -166 -215 4 -16 5 -15 4 -15 5 -16 6 -15 5 -15 6 -15 6 -14 6 -15 7 -14 6 -14 7 -14 7 -14 8 -13 8 -14 8 -13 8 -13 8 -13 9 -13 9 -12 9 -13 10 -12 10 -11 10 -12 10 -11 10 -12 11 -11 11 -10 11 -11 12 -10 11 -10 12 -10 215 266 -7 6 -6 5 -6 5 -6 6 -5 5 -6 6 -5 6 -6 6 -5 6 -5 6 -5 6 -5 7 -5 6 -4 7 -5 7 -4 7 -5 8 -4 7 -4 8 -4 8 -4 8 -4 8 -4 8 -4 9 -3 9 -4 9 -3 9 -4 10 -3 9 -3 10 -3 10 -3 11 -165 -215zm165 215c-24,91 -117,145 -209,121 -91,-24 -145,-118 -121,-209l330 88zm2137 -881l-253 2133 -340 -40 253 -2134 170 -150 170 191zm-340 -41c12,-93 97,-160 190,-149 94,11 161,96 150,190l-340 -41zm948 191l-778 0 0 -341 778 0 170 191 -170 150zm0 -341c95,0 171,76 171,171 0,94 -76,170 -171,170l0 -341zm-237 722l67 -572 340 41 -68 571 -31 81 -308 -121zm339 40c-11,94 -96,161 -190,150 -93,-11 -160,-96 -149,-190l339 40zm167 -624l197 279 0 0 -10 7 -10 8 -11 8 -11 9 -11 8 -11 10 -11 9 -11 10 -12 11 -11 11 -12 11 -12 12 -12 11 -12 13 -13 13 -12 13 -13 13 -12 14 -13 14 -13 15 -13 15 -13 16 -13 15 -13 17 -14 16 -13 17 -14 17 -14 18 -13 18 -14 19 -14 18 -14 20 -277 -202 16 -20 15 -21 15 -20 15 -20 15 -20 15 -19 16 -19 15 -18 14 -19 15 -18 15 -17 15 -17 15 -17 15 -17 15 -16 14 -16 15 -16 15 -15 14 -15 15 -14 15 -15 14 -13 15 -14 15 -13 14 -13 15 -13 15 -12 14 -12 15 -12 15 -11 14 -11 15 -10 0 0zm513 -172l0 342 0 0 -10 0 -10 0 -10 1 -9 0 -10 1 -10 1 -10 2 -10 1 -9 2 -10 2 -10 2 -9 2 -10 3 -10 3 -10 3 -9 3 -10 3 -10 4 -10 4 -9 4 -10 4 -10 5 -10 4 -10 5 -10 6 -10 5 -10 6 -10 6 -10 6 -10 7 -11 7 -10 7 -197 -279 15 -11 15 -10 15 -9 15 -10 15 -9 15 -8 15 -9 15 -8 16 -8 16 -7 15 -8 16 -7 16 -6 16 -6 16 -6 16 -6 16 -5 16 -5 17 -5 16 -4 17 -4 16 -4 17 -3 16 -3 17 -3 17 -2 17 -2 17 -1 16 -2 17 -1 17 0 17 0 0 0zm296 203l-339 -38 136 187 -3 -1 -3 -1 -3 0 -4 -1 -2 0 -4 -1 -3 0 -3 -1 -3 0 -3 -1 -3 0 -3 -1 -3 0 -2 0 -4 -1 -2 0 -3 0 -3 -1 -3 0 -3 0 -3 0 -3 0 -2 -1 -3 0 -3 0 -3 0 -2 0 -3 0 -3 0 -3 0 -2 0 -3 0 0 -342 5 0 6 0 5 0 4 0 5 0 6 0 5 1 4 0 5 0 6 0 5 1 5 0 5 1 5 0 5 1 5 0 5 1 5 0 5 1 5 0 4 1 6 1 5 1 4 0 6 1 4 1 5 1 5 1 5 0 5 1 5 1 5 1 136 187zm-136 -187c93,19 153,109 134,202 -18,92 -109,152 -201,134l67 -336zm-278 820l75 -671 339 38 -74 671 -247 133 -93 -171zm340 38c-11,93 -96,161 -189,150 -94,-10 -162,-95 -151,-188l340 38zm-295 112l121 -320 -1 0 3 1 2 1 3 1 3 1 2 1 3 1 2 1 3 1 3 1 3 1 2 1 3 2 2 1 3 1 3 1 2 1 2 1 3 1 3 2 2 1 2 1 3 1 2 1 3 1 3 2 2 1 2 1 3 1 2 1 3 1 2 2 2 1 -153 305 -2 -1 -1 0 -2 -1 -2 -1 -1 -1 -2 -1 -2 0 -1 -1 -2 -1 -1 -1 -2 0 -1 -1 -2 -1 -1 0 -2 -1 -2 -1 -1 -1 -2 0 -1 -1 -1 0 -2 -1 -1 -1 -2 0 -1 -1 -1 0 -2 -1 -1 0 -1 -1 -1 0 -2 -1 -1 0 -1 -1 -1 0zm1 0c-89,-33 -134,-131 -101,-220 33,-88 132,-133 220,-100l-119 320zm-131 -25l0 -342 0 0 8 0 8 0 8 0 8 1 8 0 8 1 8 0 8 1 8 1 8 1 8 1 8 1 8 1 8 1 8 2 8 1 8 2 7 1 8 2 8 2 8 2 7 2 8 2 8 2 8 2 7 3 8 2 8 2 7 3 8 3 7 2 8 3 -121 320 -4 -2 -5 -1 -4 -2 -4 -1 -4 -1 -5 -2 -4 -1 -4 -1 -4 -1 -4 -2 -4 -1 -4 -1 -4 0 -4 -1 -4 -1 -4 -1 -5 -1 -3 0 -4 -1 -5 -1 -3 0 -4 -1 -4 0 -4 -1 -4 0 -4 0 -4 -1 -4 0 -4 0 -4 0 -4 0 -4 0 0 0zm-306 128l-222 -260 -1 1 15 -13 15 -12 14 -12 15 -11 16 -11 15 -11 15 -10 16 -10 16 -10 15 -9 16 -9 16 -8 17 -8 16 -8 17 -7 16 -7 17 -7 17 -6 17 -6 17 -5 17 -5 17 -5 18 -4 17 -3 18 -4 17 -2 18 -3 18 -2 18 -1 17 -1 18 -1 18 0 0 342 -10 0 -9 0 -10 1 -9 1 -10 1 -9 1 -10 1 -9 2 -9 2 -10 2 -9 3 -9 2 -10 3 -9 3 -9 4 -10 4 -9 3 -9 5 -10 4 -9 5 -10 5 -9 5 -10 6 -10 6 -9 6 -10 6 -10 7 -10 7 -9 8 -10 8 -10 8 -10 8 -1 1zm1 -1c-72,62 -180,54 -241,-17 -62,-72 -54,-180 17,-241l224 258zm-248 352l-340 -40 10 -41 8 -20 8 -20 8 -19 8 -20 9 -19 9 -19 9 -19 9 -19 9 -18 10 -18 10 -18 10 -18 10 -17 11 -17 10 -17 11 -17 11 -17 12 -16 11 -16 12 -16 12 -15 13 -16 12 -15 13 -15 13 -14 13 -14 13 -15 14 -13 14 -14 14 -13 14 -13 15 -13 222 260 -9 8 -10 9 -10 9 -9 9 -9 10 -10 9 -9 10 -9 10 -9 11 -8 10 -9 11 -9 11 -8 11 -8 12 -9 12 -8 12 -8 12 -8 13 -8 12 -7 13 -8 14 -7 13 -8 14 -7 14 -7 15 -7 14 -7 15 -6 15 -7 16 -6 15 -7 16 -6 16 10 -40zm-10 40c-33,89 -132,133 -220,100 -89,-34 -133,-132 -100,-221l320 121zm-439 838l109 -918 340 40 -109 918 -170 151 -170 -191zm340 40c-11,94 -96,161 -190,150 -94,-11 -161,-96 -150,-190l340 40zm-948 -191l778 0 0 342 -778 0 -170 -191 170 -151zm0 342c-94,0 -171,-77 -171,-171 0,-94 77,-171 171,-171l0 342zm2477 -3300l-373 3149 -340 -40 374 -3149 170 -151 169 191zm-339 -40c11,-94 96,-161 190,-150 94,11 161,96 149,190l-339 -40zm948 191l-778 0 0 -342 778 0 169 191 -169 151zm0 -342c94,0 171,76 171,171 0,94 -77,171 -171,171l0 -342zm-544 3300l374 -3149 339 40 -373 3149 -170 151 -170 -191zm340 40c-11,94 -96,161 -190,150 -94,-11 -161,-96 -150,-190l340 40zm-948 -191l778 0 0 342 -778 0 -170 -191 170 -151zm0 342c-94,0 -171,-77 -171,-171 0,-94 77,-171 171,-171l0 342zm2382 -54l-114 -322 0 0 11 -4 11 -4 11 -4 11 -5 11 -4 12 -5 11 -5 11 -5 11 -5 11 -6 11 -5 11 -6 12 -6 11 -6 11 -6 11 -7 12 -6 11 -7 11 -7 12 -7 11 -7 12 -8 11 -7 12 -8 11 -8 12 -8 11 -8 12 -9 11 -8 12 -9 12 -9 11 -9 212 268 -14 11 -14 11 -14 10 -14 11 -14 10 -14 10 -14 10 -14 10 -14 9 -14 9 -14 10 -14 9 -15 8 -14 9 -14 9 -14 8 -15 8 -14 8 -15 8 -14 7 -15 8 -14 7 -15 7 -14 7 -15 7 -15 6 -14 7 -15 6 -15 6 -15 5 -15 6 -15 5 0 0zm-521 83l0 -342 0 0 15 0 14 0 14 0 15 -1 14 0 14 -1 14 -1 13 -1 14 -1 13 -1 14 -1 13 -2 13 -2 13 -1 13 -2 13 -2 13 -2 12 -2 13 -3 12 -2 12 -2 12 -3 12 -3 12 -3 12 -3 11 -3 12 -3 11 -3 11 -4 11 -3 11 -4 11 -4 114 322 -14 5 -15 5 -15 5 -16 5 -15 4 -15 5 -16 4 -15 4 -16 4 -16 3 -15 4 -16 3 -16 3 -16 3 -17 3 -16 3 -16 2 -17 3 -16 2 -17 2 -17 2 -16 1 -17 2 -17 1 -17 1 -17 1 -18 1 -17 1 -17 0 -18 1 -17 0 -18 0 0 0zm-726 -269l254 -230 -1 0 9 9 9 9 9 9 9 8 10 8 10 7 10 8 11 7 11 7 12 7 11 6 13 6 13 6 13 6 14 6 14 5 15 5 15 5 15 4 17 4 16 4 17 4 18 3 18 3 19 2 19 3 20 2 20 1 21 2 21 1 22 0 22 0 0 342 -28 0 -28 -1 -27 -1 -27 -2 -27 -2 -26 -2 -26 -3 -26 -4 -25 -4 -25 -5 -25 -5 -25 -6 -24 -6 -24 -7 -23 -7 -24 -8 -22 -8 -23 -9 -22 -10 -22 -10 -21 -11 -21 -11 -21 -12 -20 -13 -19 -13 -20 -14 -18 -14 -19 -15 -17 -16 -18 -16 -16 -16 -17 -18 0 0zm-189 -746l340 41 0 0 -3 21 -2 22 -1 21 -1 20 -1 20 0 19 0 19 0 19 1 18 1 17 2 17 2 17 2 16 3 16 3 15 3 15 4 14 4 14 4 13 5 13 4 13 6 12 5 12 6 11 6 12 6 10 6 11 7 10 7 10 8 10 7 9 9 9 -254 230 -15 -17 -15 -19 -14 -18 -14 -19 -13 -20 -13 -20 -11 -21 -12 -20 -10 -22 -10 -21 -9 -22 -9 -23 -7 -22 -8 -23 -6 -23 -6 -24 -6 -24 -4 -24 -5 -24 -3 -25 -3 -25 -2 -25 -2 -25 -1 -26 -1 -26 0 -26 0 -26 1 -27 2 -27 2 -27 2 -27 3 -28 0 0zm0 0c11,-93 96,-160 190,-149 94,11 161,96 150,190l-340 -41zm500 -1310l-160 1351 -340 -41 161 -1350 169 -151 170 191zm-339 -40c11,-94 96,-161 189,-150 94,11 161,96 150,190l-339 -40zm947 191l-778 0 0 -342 778 0 170 191 -170 151zm0 -342c95,0 171,77 171,171 0,94 -76,171 -171,171l0 -342zm-319 1409l150 -1258 339 40 -149 1259 -340 -41 0 0zm356 255l-282 194 0 0 -8 -12 -7 -12 -7 -12 -7 -13 -6 -13 -5 -12 -5 -13 -5 -13 -5 -14 -4 -13 -3 -13 -4 -14 -3 -14 -2 -13 -3 -14 -2 -14 -1 -14 -2 -14 -1 -15 -1 -14 -1 -14 0 -15 0 -15 0 -15 0 -15 1 -15 0 -15 1 -16 1 -15 2 -16 1 -16 2 -16 340 40 -2 13 -1 11 -1 12 -1 11 0 11 -1 10 0 10 0 10 0 10 0 9 0 8 0 9 1 8 1 8 0 7 1 7 1 7 1 6 1 6 1 5 2 5 1 5 1 4 2 4 1 4 1 3 1 3 2 2 1 2 1 2 1 2 1 1 0 0zm111 31l0 342 0 0 -14 0 -14 -1 -14 -1 -14 0 -14 -2 -14 -1 -14 -2 -14 -2 -13 -3 -14 -2 -13 -4 -14 -3 -13 -4 -13 -4 -13 -5 -13 -5 -13 -6 -13 -6 -12 -6 -12 -7 -12 -7 -12 -8 -12 -8 -11 -9 -11 -9 -11 -9 -10 -10 -10 -10 -10 -11 -9 -11 -9 -11 -8 -12 282 -194 1 2 1 1 1 1 1 1 1 1 1 1 1 1 1 1 1 1 2 1 1 1 2 1 2 1 2 1 3 2 2 1 3 1 4 1 3 1 4 2 5 1 4 1 5 1 6 1 5 1 6 0 6 1 7 1 7 0 8 1 7 0 8 0 0 0zm230 -63l166 299 0 0 -12 6 -11 6 -12 6 -12 6 -12 5 -11 6 -12 5 -12 5 -12 5 -12 5 -13 4 -12 4 -12 4 -12 4 -13 4 -12 3 -13 4 -12 3 -13 3 -12 2 -13 3 -12 2 -13 2 -13 2 -13 1 -13 2 -12 1 -13 1 -13 1 -13 0 -13 1 -13 0 0 -342 7 0 8 0 7 -1 7 0 7 -1 7 0 7 -1 7 -1 8 -1 7 -1 7 -1 7 -2 7 -1 7 -2 7 -2 7 -2 8 -2 7 -2 7 -2 7 -2 7 -3 7 -2 8 -3 7 -3 7 -3 7 -3 8 -4 7 -3 7 -4 8 -3 7 -4 7 -4 0 0zm195 -122l339 40 -34 85 -10 11 -9 12 -9 11 -10 12 -9 11 -10 11 -9 11 -10 10 -10 11 -10 10 -10 10 -10 10 -10 10 -10 10 -10 9 -11 10 -10 9 -11 9 -10 9 -11 9 -11 8 -11 9 -11 8 -11 8 -11 8 -11 7 -11 8 -12 7 -11 7 -12 7 -11 7 -12 7 -166 -299 8 -4 7 -5 7 -4 7 -5 8 -4 7 -5 7 -5 7 -5 7 -5 8 -6 7 -5 7 -6 7 -6 7 -6 7 -6 8 -6 7 -7 7 -6 7 -7 7 -7 7 -7 7 -7 7 -8 8 -7 7 -8 7 -8 7 -8 7 -9 7 -8 7 -9 7 -8 7 -9 -34 84zm34 -84c58,-75 165,-89 240,-31 74,57 88,165 31,240l-271 -209zm466 -1235l-161 1359 -339 -40 161 -1359 170 -151 169 191zm-339 -40c11,-94 96,-161 190,-150 93,11 160,96 149,190l-339 -40zm948 191l-778 0 0 -342 778 0 169 191 -169 151zm0 -342c94,0 170,77 170,171 0,94 -76,171 -170,171l0 -342zm-423 2284l253 -2133 339 40 -253 2134 -170 150 -169 -191zm339 41c-11,93 -96,160 -190,149 -93,-11 -160,-96 -149,-190l339 41zm-948 -191l778 0 0 341 -778 0 -169 -191 169 -150zm0 341c-94,0 -171,-76 -171,-171 0,-94 77,-170 171,-170l0 341zm202 -418l-32 268 -339 -41 31 -267 64 -114 276 154zm-340 -40c11,-94 96,-161 190,-150 94,11 161,97 150,190l-340 -40zm2226 -672l-1114 1082 -238 -245 1114 -1083 253 16 -15 230zm-238 -246c68,-65 176,-64 242,4 66,68 64,176 -4,242l-238 -246zm-585 -1035l838 1051 -268 214 -838 -1051 134 -278 134 64zm-268 214c-58,-74 -46,-182 28,-241 73,-59 181,-46 240,27l-268 214zm1071 64l-937 0 0 -342 937 0 138 70 -138 272zm0 -342c95,0 171,77 171,171 0,94 -76,171 -171,171l0 -342zm294 865l-432 -593 276 -202 433 594 -16 220 -261 -19zm277 -201c55,77 38,183 -38,239 -76,56 -183,39 -239,-38l277 -201zm564 -374l-580 594 -245 -239 580 -594 123 -51 122 290zm-245 -239c66,-67 175,-68 242,-2 68,66 69,174 3,241l-245 -239zm1062 291l-939 0 0 -342 939 0 119 294 -119 48zm0 -342c95,0 171,77 171,171 0,94 -76,171 -171,171l0 -342zm-1199 1095l1080 -1047 238 246 -1080 1046 -251 -14 13 -231zm238 245c-67,66 -176,64 -241,-4 -66,-67 -64,-176 3,-241l238 245zm638 1073l-889 -1087 265 -217 889 1087 -133 279 -132 -62zm265 -217c59,73 49,181 -25,241 -73,60 -180,49 -240,-24l265 -217zm-1085 -62l952 0 0 341 -952 0 -138 -70 138 -271zm0 341c-94,0 -171,-76 -171,-171 0,-94 77,-170 171,-170l0 341zm-325 -908l463 637 -276 201 -464 -637 16 -220 261 19zm-277 201c-55,-76 -38,-183 38,-239 76,-55 183,-38 239,38l-277 201zm-603 417l619 -637 245 239 -619 637 -122 51 -123 -290zm245 239c-66,67 -174,69 -242,3 -67,-66 -69,-174 -3,-242l245 239zm-1062 -290l940 0 0 341 -940 0 -119 -293 119 -48zm0 341c-95,0 -171,-76 -171,-171 0,-94 76,-170 171,-170l0 341z"/>
    <path id="1" class="fil1" d="M7261 4598l56 -475c149,61 287,109 416,143 129,33 239,50 328,50 124,0 218,-13 284,-40 65,-27 101,-68 108,-122 5,-45 -13,-85 -56,-120 -43,-36 -144,-84 -303,-143 -17,-7 -44,-16 -80,-29 -453,-170 -665,-388 -633,-653 24,-203 131,-366 320,-489 189,-123 427,-184 715,-184 154,0 299,14 433,43 135,28 264,71 387,128l-56 470c-154,-75 -292,-130 -416,-164 -123,-35 -239,-52 -347,-52 -93,0 -167,15 -220,43 -54,29 -84,69 -90,122 -9,69 121,154 391,254 109,40 196,72 259,97 172,68 294,148 365,242 72,95 99,213 82,352 -26,220 -134,390 -324,509 -190,119 -447,177 -772,177 -161,0 -313,-13 -455,-39 -142,-26 -272,-67 -392,-120zm3785 -153c-136,107 -273,186 -411,235 -137,48 -292,73 -464,73 -270,0 -470,-71 -599,-213 -129,-142 -178,-346 -146,-611l160 -1350 778 0 -149 1258c-18,151 -3,262 45,332 48,70 132,104 252,104 107,0 212,-28 313,-84 101,-56 195,-140 281,-251l161 -1359 778 0 -253 2133 -778 0 32 -267zm1950 -1241l-108 914c60,44 126,77 195,99 69,22 141,34 214,34 190,0 346,-52 468,-157 121,-104 193,-247 215,-429 21,-179 -16,-322 -112,-431 -95,-109 -232,-163 -408,-163 -77,0 -153,10 -231,33 -77,21 -154,54 -233,100zm-1078 2576l377 -3179 744 0 -20 175c113,-76 229,-133 347,-169 119,-36 248,-54 390,-54 344,0 613,103 804,309 191,207 268,476 228,807 -39,331 -179,598 -419,803 -240,205 -533,307 -878,307 -135,0 -257,-16 -366,-49 -109,-33 -207,-84 -292,-153l-142 1203 -773 0zm5420 -1280c-179,95 -365,165 -557,211 -192,45 -393,68 -606,68 -424,0 -745,-100 -963,-302 -217,-200 -304,-479 -262,-835 39,-328 188,-591 447,-789 260,-197 586,-296 977,-296 387,0 680,107 878,322 198,213 275,507 231,883l-3 22 -1746 0 -1 10c-20,169 31,303 153,401 122,99 299,148 531,148 157,0 316,-24 478,-72 161,-49 327,-120 496,-215l-53 444zm-1560 -1042l958 -2c2,-139 -33,-246 -107,-325 -72,-77 -174,-116 -304,-116 -134,0 -248,39 -346,116 -97,79 -164,187 -201,327zm1879 1276l253 -2133 778 0 -68 571c158,-216 303,-371 436,-465 133,-93 270,-140 414,-140 41,0 83,4 126,13l-74 671c-22,-11 -44,-21 -65,-29 -63,-24 -126,-36 -190,-36 -147,0 -286,56 -417,169 -130,112 -232,266 -306,461l-109 918 -778 0zm1934 0l374 -3149 778 0 -374 3149 -778 0zm2736 -279c-136,108 -272,186 -411,235 -137,49 -292,73 -464,73 -270,0 -470,-71 -599,-213 -129,-141 -177,-345 -146,-610l160 -1351 778 0 -149 1258c-18,152 -3,263 45,332 48,70 132,105 252,105 108,0 212,-29 313,-85 102,-56 195,-140 281,-251l162 -1359 778 0 -254 2133 -778 0 32 -267zm823 267l1114 -1082 -838 -1051 937 0 432 594 581 -594 939 0 -1080 1046 889 1087 -952 0 -463 -636 -619 636 -940 0z"/>
   </g>
  </g>
  <g>
   <path class="fil2 str0" d="M14759 7428l-190 0 0 -1137 190 0 0 1137zm-602 -428c-245,0 -368,58 -368,175 0,35 13,65 37,90 25,25 62,37 112,37 73,0 127,-23 164,-69 37,-46 55,-98 55,-156l0 -77zm211 428l-181 0c-17,-51 -26,-108 -30,-170 -50,125 -145,187 -284,187 -84,0 -151,-24 -202,-74 -51,-49 -77,-110 -77,-185 0,-193 170,-290 509,-290 14,0 32,1 54,1l0 -63c0,-88 -59,-131 -178,-131 -115,0 -181,43 -196,131l-162 -24c9,-70 45,-128 108,-173 64,-45 155,-68 275,-68 65,0 118,5 159,16 41,11 76,29 104,55 29,26 48,54 59,84 11,30 16,82 16,154l0 380c0,55 9,111 26,170zm-948 0l-177 0 0 -182c-48,133 -136,199 -266,199 -76,0 -137,-24 -182,-71 -45,-47 -68,-114 -68,-199l0 -589 194 0 0 549c0,60 14,100 41,119 26,18 52,28 78,28 41,0 83,-19 125,-56 43,-36 65,-115 65,-236l0 -404 190 0 0 842zm-1570 -194l178 -34c28,68 88,103 180,103 118,0 177,-35 177,-104 0,-23 -9,-41 -28,-55 -18,-15 -39,-24 -64,-30l-154 -29c-170,-32 -255,-115 -255,-249 0,-74 27,-137 81,-189 54,-52 134,-78 241,-78 178,0 286,65 326,196l-169 34c-18,-64 -69,-95 -152,-95 -101,0 -152,31 -152,95 0,44 41,74 123,90l181 38c140,29 210,109 210,242 0,92 -36,162 -108,208 -72,45 -158,68 -257,68 -87,0 -163,-17 -229,-52 -66,-35 -109,-88 -129,-159zm-126 194l-190 0 0 -842 190 0 0 842zm0 -940l-190 0 0 -197 190 0 0 197zm-314 98l-285 842 -158 0 -292 -842 198 0 197 571 191 -571 149 0zm-1626 703c128,0 192,-96 192,-286 0,-86 -15,-154 -46,-204 -31,-49 -77,-74 -141,-74 -65,0 -114,25 -145,77 -32,51 -48,119 -48,204 0,92 17,162 50,210 34,49 80,73 138,73zm-6 156c-125,0 -220,-45 -285,-134 -66,-89 -98,-192 -98,-307 0,-125 36,-228 108,-311 73,-83 168,-124 287,-124 113,0 206,40 278,121 72,80 109,185 109,314 0,133 -38,239 -113,320 -76,81 -171,121 -286,121zm-682 -1201l59 86c-14,28 -38,51 -74,69 -35,19 -67,28 -95,28 -34,0 -76,-13 -126,-39 -39,-20 -67,-30 -85,-30 -26,0 -61,22 -105,65l-58 -86c52,-64 108,-95 168,-95 29,0 66,10 112,32 50,23 87,35 112,35 34,0 64,-22 92,-65zm-60 756c-245,0 -368,58 -368,175 0,35 13,65 37,90 25,25 62,37 112,37 73,0 127,-23 164,-69 37,-46 55,-98 55,-156l0 -77zm210 428l-180 0c-17,-51 -26,-108 -30,-170 -50,125 -145,187 -285,187 -83,0 -151,-24 -201,-74 -51,-49 -77,-110 -77,-185 0,-193 170,-290 509,-290 14,0 32,1 54,1l0 -63c0,-88 -59,-131 -178,-131 -115,0 -181,43 -196,131l-162 -24c9,-70 45,-128 108,-173 64,-45 155,-68 275,-68 65,0 118,5 159,16 41,11 76,29 104,55 29,26 48,54 59,84 11,30 16,82 16,154l0 380c0,55 9,111 25,170zm-1200 16l-18 61c57,0 101,13 132,38 31,26 47,57 47,95 0,36 -15,67 -46,95 -30,27 -69,41 -116,41 -41,0 -97,-16 -169,-49l27 -65c49,26 92,39 129,39 19,0 35,-5 48,-17 13,-11 19,-24 19,-39 0,-48 -42,-72 -126,-72 -9,0 -22,1 -39,2l44 -133c-96,-15 -170,-63 -222,-143 -52,-81 -78,-178 -78,-290 0,-127 34,-231 102,-314 69,-83 160,-124 273,-124 184,0 293,96 328,290l-164 22c-14,-104 -65,-156 -154,-156 -64,0 -111,28 -140,84 -29,57 -44,125 -44,205 0,85 16,150 46,196 30,46 72,70 127,70 83,0 138,-54 165,-161l164 16c-41,201 -153,304 -335,309zm-726 -444c-246,0 -369,58 -369,175 0,35 13,65 38,90 24,25 62,37 112,37 72,0 127,-23 163,-69 37,-46 56,-98 56,-156l0 -77zm210 428l-181 0c-16,-51 -26,-108 -29,-170 -51,125 -146,187 -285,187 -84,0 -151,-24 -202,-74 -51,-49 -76,-110 -76,-185 0,-193 169,-290 509,-290 13,0 31,1 54,1l0 -63c0,-88 -60,-131 -179,-131 -115,0 -180,43 -196,131l-162 -24c9,-70 45,-128 108,-173 64,-45 155,-68 275,-68 65,0 118,5 160,16 41,11 75,29 104,55 28,26 48,54 59,84 10,30 16,82 16,154l0 380c0,55 8,111 25,170zm-1029 -309l163 16c-21,106 -62,184 -122,234 -61,51 -134,76 -219,76 -116,0 -206,-42 -268,-127 -63,-84 -94,-188 -94,-311 0,-127 34,-231 103,-314 68,-83 159,-124 273,-124 183,0 292,96 327,290l-163 22c-14,-104 -66,-156 -154,-156 -65,0 -111,28 -140,84 -30,57 -44,125 -44,205 0,85 15,150 45,196 30,46 73,70 127,70 83,0 139,-54 166,-161zm-714 309l-190 0 0 -842 190 0 0 842zm0 -940l-190 0 0 -197 190 0 0 197zm-416 940l-190 0 0 -526c0,-55 -13,-97 -39,-125 -25,-28 -56,-42 -92,-42 -50,0 -93,21 -130,65 -37,43 -56,108 -56,195l0 433 -190 0 0 -842 174 0 0 195c60,-141 145,-212 254,-212 74,0 137,23 190,70 52,47 79,129 79,246l0 543zm-925 0l-177 0 0 -182c-47,133 -136,199 -265,199 -77,0 -138,-24 -183,-71 -45,-47 -67,-114 -67,-199l0 -589 194 0 0 549c0,60 13,100 40,119 26,18 53,28 78,28 41,0 83,-19 126,-56 43,-36 64,-115 64,-236l0 -404 190 0 0 842zm-921 0l-199 0 0 -524c0,-109 -48,-163 -145,-163 -56,0 -101,20 -134,61 -34,41 -50,103 -50,184l0 442 -202 0 0 -524c0,-111 -45,-166 -136,-166 -55,0 -101,22 -138,67 -38,44 -57,105 -57,181l0 442 -196 0 0 -842 185 0 0 180c60,-132 153,-197 280,-197 124,0 205,65 242,197 68,-132 161,-197 281,-197 81,0 146,25 196,76 49,50 73,113 73,188l0 595zm-1822 -139c128,0 192,-96 192,-286 0,-86 -16,-154 -46,-204 -31,-49 -78,-74 -141,-74 -66,0 -114,25 -146,77 -31,51 -47,119 -47,204 0,92 17,162 50,210 34,49 80,73 138,73zm-7 156c-124,0 -219,-45 -284,-134 -66,-89 -99,-192 -99,-307 0,-125 36,-228 109,-311 72,-83 168,-124 287,-124 113,0 205,40 278,121 72,80 108,185 108,314 0,133 -37,239 -113,320 -75,81 -170,121 -286,121zm-638 -326l164 16c-22,106 -62,184 -123,234 -60,51 -134,76 -219,76 -116,0 -205,-42 -268,-127 -62,-84 -93,-188 -93,-311 0,-127 34,-231 102,-314 68,-83 159,-124 273,-124 183,0 293,96 328,290l-164 22c-14,-104 -66,-156 -154,-156 -64,0 -111,28 -140,84 -29,57 -44,125 -44,205 0,85 15,150 46,196 30,46 72,70 126,70 84,0 139,-54 166,-161z"/>
   <path id="1" class="fil3" d="M14759 7428l-190 0 0 -1137 190 0 0 1137zm-602 -428c-245,0 -368,58 -368,175 0,35 13,65 37,90 25,25 62,37 112,37 73,0 127,-23 164,-69 37,-46 55,-98 55,-156l0 -77zm211 428l-181 0c-17,-51 -26,-108 -30,-170 -50,125 -145,187 -284,187 -84,0 -151,-24 -202,-74 -51,-49 -77,-110 -77,-185 0,-193 170,-290 509,-290 14,0 32,1 54,1l0 -63c0,-88 -59,-131 -178,-131 -115,0 -181,43 -196,131l-162 -24c9,-70 45,-128 108,-173 64,-45 155,-68 275,-68 65,0 118,5 159,16 41,11 76,29 104,55 29,26 48,54 59,84 11,30 16,82 16,154l0 380c0,55 9,111 26,170zm-948 0l-177 0 0 -182c-48,133 -136,199 -266,199 -76,0 -137,-24 -182,-71 -45,-47 -68,-114 -68,-199l0 -589 194 0 0 549c0,60 14,100 41,119 26,18 52,28 78,28 41,0 83,-19 125,-56 43,-36 65,-115 65,-236l0 -404 190 0 0 842zm-1570 -194l178 -34c28,68 88,103 180,103 118,0 177,-35 177,-104 0,-23 -9,-41 -28,-55 -18,-15 -39,-24 -64,-30l-154 -29c-170,-32 -255,-115 -255,-249 0,-74 27,-137 81,-189 54,-52 134,-78 241,-78 178,0 286,65 326,196l-169 34c-18,-64 -69,-95 -152,-95 -101,0 -152,31 -152,95 0,44 41,74 123,90l181 38c140,29 210,109 210,242 0,92 -36,162 -108,208 -72,45 -158,68 -257,68 -87,0 -163,-17 -229,-52 -66,-35 -109,-88 -129,-159zm-126 194l-190 0 0 -842 190 0 0 842zm0 -940l-190 0 0 -197 190 0 0 197zm-314 98l-285 842 -158 0 -292 -842 198 0 197 571 191 -571 149 0zm-1626 703c128,0 192,-96 192,-286 0,-86 -15,-154 -46,-204 -31,-49 -77,-74 -141,-74 -65,0 -114,25 -145,77 -32,51 -48,119 -48,204 0,92 17,162 50,210 34,49 80,73 138,73zm-6 156c-125,0 -220,-45 -285,-134 -66,-89 -98,-192 -98,-307 0,-125 36,-228 108,-311 73,-83 168,-124 287,-124 113,0 206,40 278,121 72,80 109,185 109,314 0,133 -38,239 -113,320 -76,81 -171,121 -286,121zm-682 -1201l59 86c-14,28 -38,51 -74,69 -35,19 -67,28 -95,28 -34,0 -76,-13 -126,-39 -39,-20 -67,-30 -85,-30 -26,0 -61,22 -105,65l-58 -86c52,-64 108,-95 168,-95 29,0 66,10 112,32 50,23 87,35 112,35 34,0 64,-22 92,-65zm-60 756c-245,0 -368,58 -368,175 0,35 13,65 37,90 25,25 62,37 112,37 73,0 127,-23 164,-69 37,-46 55,-98 55,-156l0 -77zm210 428l-180 0c-17,-51 -26,-108 -30,-170 -50,125 -145,187 -285,187 -83,0 -151,-24 -201,-74 -51,-49 -77,-110 -77,-185 0,-193 170,-290 509,-290 14,0 32,1 54,1l0 -63c0,-88 -59,-131 -178,-131 -115,0 -181,43 -196,131l-162 -24c9,-70 45,-128 108,-173 64,-45 155,-68 275,-68 65,0 118,5 159,16 41,11 76,29 104,55 29,26 48,54 59,84 11,30 16,82 16,154l0 380c0,55 9,111 25,170zm-1200 16l-18 61c57,0 101,13 132,38 31,26 47,57 47,95 0,36 -15,67 -46,95 -30,27 -69,41 -116,41 -41,0 -97,-16 -169,-49l27 -65c49,26 92,39 129,39 19,0 35,-5 48,-17 13,-11 19,-24 19,-39 0,-48 -42,-72 -126,-72 -9,0 -22,1 -39,2l44 -133c-96,-15 -170,-63 -222,-143 -52,-81 -78,-178 -78,-290 0,-127 34,-231 102,-314 69,-83 160,-124 273,-124 184,0 293,96 328,290l-164 22c-14,-104 -65,-156 -154,-156 -64,0 -111,28 -140,84 -29,57 -44,125 -44,205 0,85 16,150 46,196 30,46 72,70 127,70 83,0 138,-54 165,-161l164 16c-41,201 -153,304 -335,309zm-726 -444c-246,0 -369,58 -369,175 0,35 13,65 38,90 24,25 62,37 112,37 72,0 127,-23 163,-69 37,-46 56,-98 56,-156l0 -77zm210 428l-181 0c-16,-51 -26,-108 -29,-170 -51,125 -146,187 -285,187 -84,0 -151,-24 -202,-74 -51,-49 -76,-110 -76,-185 0,-193 169,-290 509,-290 13,0 31,1 54,1l0 -63c0,-88 -60,-131 -179,-131 -115,0 -180,43 -196,131l-162 -24c9,-70 45,-128 108,-173 64,-45 155,-68 275,-68 65,0 118,5 160,16 41,11 75,29 104,55 28,26 48,54 59,84 10,30 16,82 16,154l0 380c0,55 8,111 25,170zm-1029 -309l163 16c-21,106 -62,184 -122,234 -61,51 -134,76 -219,76 -116,0 -206,-42 -268,-127 -63,-84 -94,-188 -94,-311 0,-127 34,-231 103,-314 68,-83 159,-124 273,-124 183,0 292,96 327,290l-163 22c-14,-104 -66,-156 -154,-156 -65,0 -111,28 -140,84 -30,57 -44,125 -44,205 0,85 15,150 45,196 30,46 73,70 127,70 83,0 139,-54 166,-161zm-714 309l-190 0 0 -842 190 0 0 842zm0 -940l-190 0 0 -197 190 0 0 197zm-416 940l-190 0 0 -526c0,-55 -13,-97 -39,-125 -25,-28 -56,-42 -92,-42 -50,0 -93,21 -130,65 -37,43 -56,108 -56,195l0 433 -190 0 0 -842 174 0 0 195c60,-141 145,-212 254,-212 74,0 137,23 190,70 52,47 79,129 79,246l0 543zm-925 0l-177 0 0 -182c-47,133 -136,199 -265,199 -77,0 -138,-24 -183,-71 -45,-47 -67,-114 -67,-199l0 -589 194 0 0 549c0,60 13,100 40,119 26,18 53,28 78,28 41,0 83,-19 126,-56 43,-36 64,-115 64,-236l0 -404 190 0 0 842zm-921 0l-199 0 0 -524c0,-109 -48,-163 -145,-163 -56,0 -101,20 -134,61 -34,41 -50,103 -50,184l0 442 -202 0 0 -524c0,-111 -45,-166 -136,-166 -55,0 -101,22 -138,67 -38,44 -57,105 -57,181l0 442 -196 0 0 -842 185 0 0 180c60,-132 153,-197 280,-197 124,0 205,65 242,197 68,-132 161,-197 281,-197 81,0 146,25 196,76 49,50 73,113 73,188l0 595zm-1822 -139c128,0 192,-96 192,-286 0,-86 -16,-154 -46,-204 -31,-49 -78,-74 -141,-74 -66,0 -114,25 -146,77 -31,51 -47,119 -47,204 0,92 17,162 50,210 34,49 80,73 138,73zm-7 156c-124,0 -219,-45 -284,-134 -66,-89 -99,-192 -99,-307 0,-125 36,-228 109,-311 72,-83 168,-124 287,-124 113,0 205,40 278,121 72,80 108,185 108,314 0,133 -37,239 -113,320 -75,81 -170,121 -286,121zm-638 -326l164 16c-22,106 -62,184 -123,234 -60,51 -134,76 -219,76 -116,0 -205,-42 -268,-127 -62,-84 -93,-188 -93,-311 0,-127 34,-231 102,-314 68,-83 159,-124 273,-124 183,0 293,96 328,290l-164 22c-14,-104 -66,-156 -154,-156 -64,0 -111,28 -140,84 -29,57 -44,125 -44,205 0,85 15,150 46,196 30,46 72,70 126,70 84,0 139,-54 166,-161z"/>
  </g>
  <g>
   <polygon class="fil2 str0" points="16111,6291 15367,7712 15249,7712 15990,6291 "/>
   <polygon id="1" class="fil3" points="16111,6291 15367,7712 15249,7712 15990,6291 "/>
  </g>
  <g>
   <path class="fil2 str0" d="M26076 7428l-190 0 0 -842 172 0 0 201c24,-78 58,-135 101,-171 42,-36 86,-55 131,-55 6,0 15,1 25,1l0 204c-96,0 -160,31 -192,93 -31,61 -47,121 -47,179l0 390zm-756 -139c127,0 191,-96 191,-286 0,-86 -15,-154 -45,-204 -31,-49 -78,-74 -141,-74 -66,0 -114,25 -146,77 -31,51 -47,119 -47,204 0,92 16,162 50,210 33,49 80,73 138,73zm-7 156c-124,0 -219,-45 -285,-134 -65,-89 -98,-192 -98,-307 0,-125 36,-228 109,-311 72,-83 168,-124 287,-124 112,0 205,40 278,121 72,80 108,185 108,314 0,133 -37,239 -113,320 -75,81 -170,121 -286,121zm-557 -17l-190 0 0 -842 190 0 0 842zm0 -940l-190 0 0 -197 190 0 0 197zm-565 940l-190 0 0 -842 172 0 0 201c24,-78 58,-135 101,-171 42,-36 86,-55 131,-55 6,0 15,1 25,1l0 204c-96,0 -160,31 -192,93 -31,61 -47,121 -47,179l0 390zm-561 -520c-1,-61 -19,-110 -55,-148 -36,-39 -80,-58 -133,-58 -52,0 -95,18 -130,54 -35,36 -56,86 -62,152l380 0zm12 252l171 23c-22,76 -65,139 -130,188 -64,50 -145,74 -242,74 -117,0 -211,-39 -282,-117 -71,-79 -106,-185 -106,-319 0,-127 36,-232 107,-315 72,-83 169,-125 292,-125 120,0 212,41 278,123 65,82 98,188 98,317l-1 22 -577 0c0,57 5,102 16,137 11,34 33,64 65,90 32,25 72,38 121,38 93,0 157,-45 190,-136zm-671 120l0 148c-57,12 -101,18 -132,18 -51,0 -95,-10 -131,-30 -37,-21 -64,-48 -81,-84 -17,-35 -25,-89 -25,-162l0 -436 -105 0 0 -148 116 0 17 -219 156 -14 0 233 169 0 0 148 -169 0 0 411c0,52 10,88 29,107 19,20 55,29 108,29 15,0 31,-1 48,-1zm-504 148l-216 0 -179 -307 -195 307 -163 0 280 -433 -242 -409 217 0 138 248 158 -248 159 0 -238 365 281 477zm-989 -520c-1,-61 -19,-110 -55,-148 -36,-39 -80,-58 -133,-58 -52,0 -96,18 -131,54 -35,36 -55,86 -61,152l380 0zm11 252l172 23c-22,76 -66,139 -130,188 -65,50 -145,74 -242,74 -117,0 -211,-39 -282,-117 -71,-79 -107,-185 -107,-319 0,-127 36,-232 108,-315 72,-83 169,-125 291,-125 120,0 213,41 279,123 65,82 98,188 98,317l-1 22 -577 0c0,57 5,102 16,137 11,34 32,64 64,90 33,25 73,38 121,38 94,0 158,-45 190,-136zm-1373 -160c-246,0 -368,58 -368,175 0,35 12,65 37,90 25,25 62,37 112,37 72,0 127,-23 164,-69 36,-46 55,-98 55,-156l0 -77zm210 428l-181 0c-16,-51 -26,-108 -29,-170 -51,125 -146,187 -285,187 -84,0 -151,-24 -202,-74 -51,-49 -76,-110 -76,-185 0,-193 170,-290 509,-290 13,0 31,1 54,1l0 -63c0,-88 -60,-131 -179,-131 -115,0 -180,43 -196,131l-161 -24c8,-70 44,-128 108,-173 63,-45 154,-68 274,-68 66,0 118,5 160,16 41,11 75,29 104,55 28,26 48,54 59,84 10,30 16,82 16,154l0 380c0,55 8,111 25,170zm-948 0l-190 0 0 -842 190 0 0 842zm0 -940l-190 0 0 -197 190 0 0 197zm-607 443c0,-68 -16,-121 -48,-159 -33,-38 -75,-57 -126,-57 -56,0 -100,24 -132,73 -32,49 -48,122 -48,219 0,188 59,282 177,282 47,0 88,-21 124,-61 36,-40 53,-91 53,-154l0 -143zm190 497l-177 0 0 -170c-49,125 -132,187 -248,187 -103,0 -183,-43 -238,-129 -54,-86 -82,-193 -82,-321 0,-118 29,-222 86,-310 57,-89 138,-133 244,-133 108,0 183,50 225,148l0 -409 190 0 0 1137zm-798 -1239l55 125 -347 147 -35 -90 327 -182zm-121 1239l-190 0 0 -842 190 0 0 842zm-418 0l-199 0 0 -524c0,-109 -48,-163 -145,-163 -56,0 -101,20 -134,61 -34,41 -51,103 -51,184l0 442 -201 0 0 -524c0,-111 -45,-166 -136,-166 -55,0 -101,22 -139,67 -37,44 -56,105 -56,181l0 442 -196 0 0 -842 185 0 0 180c60,-132 153,-197 280,-197 124,0 205,65 242,197 67,-132 161,-197 280,-197 81,0 147,25 196,76 50,50 74,113 74,188l0 595z"/>
   <path id="1" class="fil3" d="M26076 7428l-190 0 0 -842 172 0 0 201c24,-78 58,-135 101,-171 42,-36 86,-55 131,-55 6,0 15,1 25,1l0 204c-96,0 -160,31 -192,93 -31,61 -47,121 -47,179l0 390zm-756 -139c127,0 191,-96 191,-286 0,-86 -15,-154 -45,-204 -31,-49 -78,-74 -141,-74 -66,0 -114,25 -146,77 -31,51 -47,119 -47,204 0,92 16,162 50,210 33,49 80,73 138,73zm-7 156c-124,0 -219,-45 -285,-134 -65,-89 -98,-192 -98,-307 0,-125 36,-228 109,-311 72,-83 168,-124 287,-124 112,0 205,40 278,121 72,80 108,185 108,314 0,133 -37,239 -113,320 -75,81 -170,121 -286,121zm-557 -17l-190 0 0 -842 190 0 0 842zm0 -940l-190 0 0 -197 190 0 0 197zm-565 940l-190 0 0 -842 172 0 0 201c24,-78 58,-135 101,-171 42,-36 86,-55 131,-55 6,0 15,1 25,1l0 204c-96,0 -160,31 -192,93 -31,61 -47,121 -47,179l0 390zm-561 -520c-1,-61 -19,-110 -55,-148 -36,-39 -80,-58 -133,-58 -52,0 -95,18 -130,54 -35,36 -56,86 -62,152l380 0zm12 252l171 23c-22,76 -65,139 -130,188 -64,50 -145,74 -242,74 -117,0 -211,-39 -282,-117 -71,-79 -106,-185 -106,-319 0,-127 36,-232 107,-315 72,-83 169,-125 292,-125 120,0 212,41 278,123 65,82 98,188 98,317l-1 22 -577 0c0,57 5,102 16,137 11,34 33,64 65,90 32,25 72,38 121,38 93,0 157,-45 190,-136zm-671 120l0 148c-57,12 -101,18 -132,18 -51,0 -95,-10 -131,-30 -37,-21 -64,-48 -81,-84 -17,-35 -25,-89 -25,-162l0 -436 -105 0 0 -148 116 0 17 -219 156 -14 0 233 169 0 0 148 -169 0 0 411c0,52 10,88 29,107 19,20 55,29 108,29 15,0 31,-1 48,-1zm-504 148l-216 0 -179 -307 -195 307 -163 0 280 -433 -242 -409 217 0 138 248 158 -248 159 0 -238 365 281 477zm-989 -520c-1,-61 -19,-110 -55,-148 -36,-39 -80,-58 -133,-58 -52,0 -96,18 -131,54 -35,36 -55,86 -61,152l380 0zm11 252l172 23c-22,76 -66,139 -130,188 -65,50 -145,74 -242,74 -117,0 -211,-39 -282,-117 -71,-79 -107,-185 -107,-319 0,-127 36,-232 108,-315 72,-83 169,-125 291,-125 120,0 213,41 279,123 65,82 98,188 98,317l-1 22 -577 0c0,57 5,102 16,137 11,34 32,64 64,90 33,25 73,38 121,38 94,0 158,-45 190,-136zm-1373 -160c-246,0 -368,58 -368,175 0,35 12,65 37,90 25,25 62,37 112,37 72,0 127,-23 164,-69 36,-46 55,-98 55,-156l0 -77zm210 428l-181 0c-16,-51 -26,-108 -29,-170 -51,125 -146,187 -285,187 -84,0 -151,-24 -202,-74 -51,-49 -76,-110 -76,-185 0,-193 170,-290 509,-290 13,0 31,1 54,1l0 -63c0,-88 -60,-131 -179,-131 -115,0 -180,43 -196,131l-161 -24c8,-70 44,-128 108,-173 63,-45 154,-68 274,-68 66,0 118,5 160,16 41,11 75,29 104,55 28,26 48,54 59,84 10,30 16,82 16,154l0 380c0,55 8,111 25,170zm-948 0l-190 0 0 -842 190 0 0 842zm0 -940l-190 0 0 -197 190 0 0 197zm-607 443c0,-68 -16,-121 -48,-159 -33,-38 -75,-57 -126,-57 -56,0 -100,24 -132,73 -32,49 -48,122 -48,219 0,188 59,282 177,282 47,0 88,-21 124,-61 36,-40 53,-91 53,-154l0 -143zm190 497l-177 0 0 -170c-49,125 -132,187 -248,187 -103,0 -183,-43 -238,-129 -54,-86 -82,-193 -82,-321 0,-118 29,-222 86,-310 57,-89 138,-133 244,-133 108,0 183,50 225,148l0 -409 190 0 0 1137zm-798 -1239l55 125 -347 147 -35 -90 327 -182zm-121 1239l-190 0 0 -842 190 0 0 842zm-418 0l-199 0 0 -524c0,-109 -48,-163 -145,-163 -56,0 -101,20 -134,61 -34,41 -51,103 -51,184l0 442 -201 0 0 -524c0,-111 -45,-166 -136,-166 -55,0 -101,22 -139,67 -37,44 -56,105 -56,181l0 442 -196 0 0 -842 185 0 0 180c60,-132 153,-197 280,-197 124,0 205,65 242,197 67,-132 161,-197 280,-197 81,0 147,25 196,76 50,50 74,113 74,188l0 595z"/>
  </g>
  <path class="fil4" d="M3548 171c-254,-3 -473,54 -621,150 14,-38 31,-76 52,-114 -936,-9 -1872,-18 -2808,-27 58,817 121,1634 184,2450 515,-228 1006,-308 1444,-277 520,35 1008,229 1363,562 -311,-159 -663,-246 -935,-233 -645,30 -1338,446 -1256,1136 41,337 265,637 589,841 557,351 1547,447 2096,-132 -27,110 -65,222 -116,336 1167,-118 2334,-237 3501,-352 -541,-974 -1075,-1951 -1600,-2932 -686,194 -1415,80 -1925,-203 184,57 385,89 585,85 596,-11 905,-330 717,-688 -176,-334 -730,-596 -1270,-602z"/>
  <path class="fil5" d="M2663 325c-356,-3 -720,-6 -1088,-10 -375,-3 -757,-6 -1144,-10 28,278 57,573 89,886 34,331 70,685 108,1062 433,-124 867,-158 1269,-118 402,41 777,157 1093,335 328,185 611,448 807,785 195,338 302,750 276,1234 450,-41 891,-83 1319,-122 421,-39 835,-78 1239,-114 -252,-476 -487,-920 -705,-1335 -205,-389 -399,-754 -580,-1098 -421,71 -823,55 -1182,-23 -359,-77 -677,-215 -930,-385 -484,-327 -695,-752 -571,-1087z"/>
  <path class="fil5" d="M3633 332c-396,-3 -662,192 -571,446 93,267 536,491 971,485 426,-6 656,-231 526,-488 -122,-244 -530,-440 -926,-443z"/>
  <path class="fil5" d="M2274 2928c-596,31 -1052,432 -978,918 80,520 717,922 1396,859 657,-61 1048,-534 894,-1023 -142,-457 -716,-785 -1312,-754z"/>
  <path class="fil4" d="M7261 4598l56 -475c149,61 287,109 416,143 129,33 239,50 328,50 124,0 218,-13 284,-40 65,-27 101,-68 108,-122 5,-45 -13,-85 -56,-120 -43,-36 -144,-84 -303,-143 -17,-7 -44,-16 -80,-29 -453,-170 -664,-388 -633,-653 24,-203 131,-366 320,-489 189,-123 427,-184 715,-184 154,0 299,14 433,43 135,28 264,71 387,128l-56 470c-154,-75 -292,-130 -416,-164 -123,-35 -239,-52 -347,-52 -93,0 -167,15 -220,43 -54,29 -84,69 -90,122 -9,69 121,154 391,254 109,40 196,72 259,97 172,68 294,148 365,242 72,95 99,213 82,352 -26,220 -134,390 -324,509 -190,119 -447,177 -772,177 -161,0 -313,-13 -455,-39 -142,-26 -272,-67 -392,-120zm3785 -153c-136,107 -273,186 -411,235 -137,48 -292,73 -464,73 -270,0 -470,-71 -599,-213 -129,-142 -178,-346 -146,-611l160 -1350 778 0 -149 1258c-18,151 -3,262 45,332 48,70 132,104 252,104 108,0 212,-28 313,-84 101,-56 195,-140 281,-251l161 -1359 778 0 -253 2133 -778 0 32 -267zm1950 -1241l-108 914c60,44 126,77 195,99 69,22 141,34 214,34 190,0 346,-52 468,-157 121,-104 193,-247 215,-429 21,-179 -16,-322 -112,-431 -95,-109 -232,-163 -408,-163 -77,0 -153,10 -231,33 -77,21 -154,54 -233,100zm-1078 2576l377 -3179 745 0 -21 175c113,-76 229,-133 348,-169 118,-36 247,-54 389,-54 344,0 613,103 804,309 191,207 268,476 228,807 -39,331 -179,598 -419,803 -240,205 -533,307 -878,307 -135,0 -257,-16 -366,-49 -109,-33 -207,-84 -292,-153l-142 1203 -773 0zm5420 -1280c-179,95 -365,165 -557,211 -192,45 -393,68 -606,68 -424,0 -745,-100 -963,-302 -217,-200 -304,-479 -262,-835 39,-328 188,-591 447,-789 260,-197 586,-296 977,-296 387,0 680,107 878,322 198,213 275,507 231,883l-3 22 -1746 0 -1 10c-20,169 31,303 153,401 122,99 299,148 531,148 157,0 316,-24 478,-72 161,-49 327,-120 496,-215l-53 444zm-1560 -1042l958 -2c2,-139 -33,-246 -106,-325 -73,-77 -175,-116 -305,-116 -134,0 -248,39 -346,116 -97,79 -164,187 -201,327zm1879 1276l253 -2133 778 0 -68 571c158,-216 303,-371 436,-465 133,-93 270,-140 414,-140 41,0 84,4 126,13l-74 671c-22,-11 -44,-21 -65,-29 -63,-24 -126,-36 -190,-36 -147,0 -286,56 -417,169 -130,112 -232,266 -306,461l-109 918 -778 0zm1934 0l374 -3149 778 0 -374 3149 -778 0zm2736 -279c-136,108 -272,186 -411,235 -137,49 -292,73 -464,73 -270,0 -470,-71 -599,-213 -129,-141 -177,-345 -146,-610l160 -1351 778 0 -149 1258c-18,152 -3,263 45,332 48,70 132,105 252,105 108,0 212,-29 313,-85 102,-56 195,-140 281,-251l162 -1359 778 0 -254 2133 -778 0 32 -267zm823 267l1114 -1082 -838 -1051 937 0 432 594 581 -594 939 0 -1080 1046 889 1087 -952 0 -463 -636 -619 636 -940 0z"/>
 </g>
</svg>
