<?xml version="1.0" encoding="UTF-8"?>
<!DOCTYPE svg PUBLIC "-//W3C//DTD SVG 1.1//EN" "http://www.w3.org/Graphics/SVG/1.1/DTD/svg11.dtd">
<!-- Creator: CorelDRAW X7 -->
<svg xmlns="http://www.w3.org/2000/svg" xml:space="preserve" width="251.962mm" height="74.6225mm" version="1.1" style="shape-rendering:geometricPrecision; text-rendering:geometricPrecision; image-rendering:optimizeQuality; fill-rule:evenodd; clip-rule:evenodd"
viewBox="0 0 25196 7462"
 xmlns:xlink="http://www.w3.org/1999/xlink">
 <defs>
  <style type="text/css">
   <![CDATA[
    .str0 {stroke:#373435;stroke-width:7.62}
    .fil1 {fill:#FEFEFE}
    .fil2 {fill:#373435}
    .fil6 {fill:#FFF212}
    .fil4 {fill:#00AFEF}
    .fil5 {fill:#00A859}
    .fil0 {fill:#0098DA}
    .fil3 {fill:url(#id0)}
   ]]>
  </style>
  <radialGradient id="id0" gradientUnits="userSpaceOnUse" gradientTransform="matrix(1.02329 -1.71733 1.71733 1.02329 -6519 24754)" cx="14463.4" cy="3600.13" r="2703.7" fx="14463.4" fy="3600.13">
   <stop offset="0" style="stop-opacity:1; stop-color:#FEFEFE"/>
   <stop offset="0.4" style="stop-opacity:1; stop-color:#7FD6F6"/>
   <stop offset="1" style="stop-opacity:1; stop-color:#00AFEF"/>
  </radialGradient>
 </defs>
 <g id="Camada_x0020_1">
  <metadata id="CorelCorpID_0Corel-Layer"/>
  <path class="fil0" d="M1750 391l21696 0c963,0 1750,787 1750,1749l0 1999c0,963 -787,1750 -1750,1750l-21696 0c-963,0 -1750,-787 -1750,-1750l0 -1999c0,-962 787,-1749 1750,-1749z"/>
  <path class="fil1" d="M1750 638l21696 0c827,0 1503,676 1503,1502l0 1999c0,827 -676,1503 -1503,1503l-21696 0c-827,0 -1503,-676 -1503,-1503l0 -1999c0,-826 676,-1502 1503,-1502z"/>
  <path class="fil0" d="M1750 885l21696 0c691,0 1256,565 1256,1255l0 1999c0,691 -565,1256 -1256,1256l-21696 0c-691,0 -1256,-565 -1256,-1256l0 -1999c0,-690 565,-1255 1256,-1255z"/>
  <path class="fil1" d="M22121 4872l0 -2340 -660 0 0 -1137 2503 0 0 1137 -659 0 0 2340 -1184 0zm-3726 0l0 -3477 1491 0c431,0 762,100 990,301 228,201 342,491 342,869 0,247 -58,451 -172,611 -116,160 -270,253 -465,280l880 1416 -1328 0 -576 -1148 0 1148 -1162 0zm1162 -2582l0 679 184 0c113,0 199,-29 260,-87 60,-57 91,-140 91,-248 0,-111 -31,-196 -91,-255 -61,-59 -147,-89 -260,-89l-184 0z"/>
  <path class="fil2 str0" d="M16043 4c1607,0 2918,1311 2918,2918 0,1607 -1311,2918 -2918,2918 -1607,0 -2918,-1311 -2918,-2918 0,-1607 1311,-2918 2918,-2918z"/>
  <path class="fil3" d="M18104 997l-56 -45c-4,17 -14,35 -28,46 -162,-22 -133,-248 -272,-323 -19,-10 -34,-26 -48,-45l-18 -9 -146 -116c-185,-53 -385,-150 -592,-201 -234,-20 -460,115 -693,118 -187,77 -256,354 -503,288 -98,5 -200,-36 -302,12l276 176c63,-16 136,-60 193,-95 -24,-21 -39,-59 -28,-89l93 67c159,-42 358,-157 484,-20 20,30 -6,54 -24,75 -61,11 -146,53 -195,-17 -51,-17 -104,12 -148,25 172,119 352,209 548,286 53,-22 88,-71 140,-83 7,52 -47,71 -62,110 304,122 615,232 930,234 -17,-184 -45,-391 -190,-530 -17,-18 31,-55 -13,-56 -8,-52 46,-50 76,-65 67,25 134,43 152,114 69,181 15,365 90,546 117,15 242,-74 309,-159 16,-19 36,1 51,7 20,52 68,121 9,173 -99,86 -236,83 -354,103 -10,176 -78,370 -135,553l-37 40c-38,-24 -13,-59 -26,-88 6,-173 111,-353 74,-524 -326,-62 -670,-152 -990,-290 -226,216 -359,515 -578,743l-122 201 11 16c177,84 372,136 551,186 85,-37 188,24 275,34 106,13 220,44 335,33 33,5 54,40 53,74 -8,37 -32,67 -68,58 -160,-126 -348,-52 -520,-144l-71 18c-213,-61 -425,-109 -634,-188 -85,75 -125,168 -172,268 -185,236 -308,549 -409,844 527,295 1140,459 1709,610 55,-68 91,-178 187,-183 70,11 104,58 120,119 -7,53 -69,60 -98,98 61,13 141,31 203,42 -18,35 -65,35 -104,40 -51,-2 -100,-8 -154,6 -186,295 -356,583 -624,797 94,6 198,-29 296,-66 25,27 35,70 35,105 -105,140 -317,134 -478,96 -91,66 -175,165 -305,156 -119,56 -247,133 -374,135 -9,-9 1,-15 -1,-23 211,-56 343,-198 524,-285l3 -7c-412,-150 -791,-315 -1161,-529 -32,97 44,209 72,306 3,36 -29,63 -55,80 -30,21 -66,-2 -91,-21 -96,-135 -134,-317 -112,-479 -55,-52 -147,-82 -154,-169 19,-17 50,-28 75,-1 27,32 38,81 81,97 37,-109 36,-238 67,-352 36,-174 88,-339 143,-505 -152,-112 -345,-175 -481,-305 -20,-39 0,-79 -2,-119 86,-59 146,63 204,106 93,80 196,141 317,192 147,-423 360,-779 607,-1115 -296,-148 -587,-305 -841,-506 -42,18 -57,72 -90,101 23,43 130,27 129,103 -4,55 -75,68 -111,72 -49,11 -110,-69 -153,-14 -108,125 -196,266 -291,401 29,60 4,125 -18,178l-61 63c104,123 299,174 305,369 -16,100 -64,200 -26,298 194,169 259,448 242,685 -115,198 -170,436 -163,660 -10,216 198,430 124,639 -107,48 -227,-51 -322,-100 -121,-85 -167,-232 -264,-348 -126,-141 -290,-250 -325,-470 -160,-235 -222,-515 -395,-743 -9,-8 -26,-22 -41,-15 96,438 339,840 638,1150 135,107 145,323 271,445 63,63 113,138 198,182 -9,-126 139,-11 211,-51 105,-95 141,58 209,92 195,152 443,245 684,257 520,184 1054,3 1561,-185 212,-117 434,-236 606,-398 -327,161 -692,339 -1057,235 -41,-15 -70,-56 -71,-100 46,-153 243,-192 354,-291 92,-88 216,-160 220,-301 -94,-243 128,-420 215,-619 -1,-28 5,-57 -17,-85 -229,-131 -543,-266 -540,-586 0,-22 -35,-57 7,-71 51,-13 65,-49 86,-91 145,-177 398,-187 601,-249 179,-11 362,14 543,-47 80,9 138,97 222,72 83,-13 164,-17 244,-34 71,-91 72,-236 6,-350 -30,-51 -61,-92 -117,-108 -16,56 45,170 -51,183 -112,-62 -183,-163 -284,-235 -28,-16 -60,-18 -85,-15 11,75 45,147 20,221 -49,4 -88,63 -134,41 -9,-23 21,-61 24,-82 -37,-53 -71,-113 -83,-179 -94,-13 -211,29 -264,110 51,29 24,88 19,135 -37,90 -46,227 -136,267 -46,5 -29,-41 -22,-65 31,-94 78,-173 81,-268 -67,88 -102,220 -221,254 -105,-61 -113,-178 -125,-283 41,-273 356,-361 588,-434 76,-26 -21,-82 1,-128 -16,-75 24,-148 88,-188 81,-44 172,-64 263,-69 -39,-61 -37,-137 -34,-205 29,-63 103,-84 161,-87 -58,-115 -78,-283 -222,-308 -32,-19 -34,-59 -22,-92zm497 1750c-112,41 -241,44 -354,29 -161,-51 -321,9 -478,-79 -29,-28 -43,-68 -45,-108 14,-32 55,-81 86,-47 30,98 165,87 243,121 187,54 373,23 548,84zm-946 -2101c-2,38 -36,50 -66,58 -87,-37 -174,-36 -255,3 50,76 54,170 11,251 -104,86 -259,138 -397,133 -110,-41 -212,-97 -299,-169 -65,-49 -9,-166 -110,-185 -70,-24 -127,-69 -143,-142 32,-55 101,-48 152,-66 239,-45 509,4 729,132 95,-43 202,-52 296,-91 42,6 74,38 82,76z"/>
  <path class="fil1" d="M14240 854c-160,164 -417,382 -303,647l30 90c-60,10 -122,38 -173,81 -32,44 -27,103 -29,154 54,173 288,237 224,439 -29,58 -48,127 -94,172 -19,-8 -7,-40 -23,-58 -104,-128 -190,-299 -188,-461 -18,-58 -102,-70 -150,-73 -126,105 54,242 82,363 73,75 115,186 197,257 -99,19 -213,100 -300,163 -40,78 2,163 4,243 -29,134 -87,238 -121,366 -13,-57 -17,-118 -43,-167 4,-11 13,25 30,12 45,-13 23,-61 26,-89 -95,-505 -52,-1057 230,-1538 118,-162 231,-324 365,-471 139,18 35,-139 174,-121 20,-8 39,-13 62,-9z"/>
  <path class="fil4" d="M17010 4064c-136,321 -361,586 -608,821 -51,20 -112,-28 -159,16 -388,-121 -786,-318 -1136,-529 1,-288 124,-584 182,-873 551,277 1152,434 1721,565z"/>
  <path class="fil5" d="M16578 1176c-137,89 -204,241 -314,362 -153,172 -283,366 -430,548 -288,-141 -560,-313 -798,-520 61,-69 153,-118 188,-196 3,-21 -21,-25 -32,-22 -86,34 -173,88 -239,152 -124,-69 -250,-166 -324,-292 26,-23 9,-63 -2,-85 -80,-23 -180,-73 -244,-8 -54,110 57,209 120,277 93,87 221,147 329,225l-88 97c-136,-117 -197,-315 -387,-377 -61,56 43,107 56,164 -3,139 94,286 213,351 -175,176 -351,373 -405,636 1,10 5,19 10,31 -70,-36 -41,-126 -55,-193 4,-137 4,-312 -138,-387 -18,-24 -15,-51 -12,-72 104,-22 251,9 303,-112 21,-145 -115,-223 -201,-295 -50,-103 27,-204 88,-273 120,-129 308,-164 469,-108l45 31c-36,43 -39,104 -37,156 8,65 74,73 119,85 199,-31 382,-54 582,56 146,38 322,16 433,-95 44,-58 107,-152 63,-225 -28,-50 -62,-98 -113,-127 82,-8 162,-57 241,-84 184,109 381,220 560,300z"/>
  <path class="fil6" d="M14638 2951c-6,-195 -201,-246 -305,-369l61 -63c22,-53 47,-118 18,-178 95,-135 183,-276 291,-401 43,-55 104,25 153,14 36,-4 107,-17 111,-72 1,-76 -106,-60 -129,-103 33,-29 48,-83 90,-101 254,201 545,358 841,506 -247,336 -460,692 -607,1115 -347,-118 -417,-387 -506,-306l-18 -42z"/>
  <path class="fil1" d="M12417 2361l0 580 184 0c112,0 199,-26 259,-75 60,-50 90,-121 90,-213 0,-92 -31,-163 -92,-215 -62,-51 -147,-77 -257,-77l-184 0zm-1191 2511l0 -3477 1416 0c498,0 862,101 1092,304 231,202 346,523 346,963 0,411 -104,711 -310,899 -208,189 -537,284 -987,284l-371 0 0 1027 -1186 0zm-2073 -2511l0 580 184 0c112,0 199,-26 259,-75 60,-50 90,-121 90,-213 0,-92 -31,-163 -92,-215 -62,-51 -147,-77 -257,-77l-184 0zm-1191 2511l0 -3477 1416 0c498,0 862,101 1092,304 231,202 346,523 346,963 0,411 -103,711 -310,899 -208,189 -536,284 -987,284l-371 0 0 1027 -1186 0zm-3641 -1592l0 -1885 1184 0 0 1894c0,221 24,372 74,455 50,83 134,125 255,125 118,0 202,-43 253,-128 52,-86 77,-236 77,-452l0 -1894 1184 0 0 1885c0,247 -15,450 -46,611 -31,159 -80,293 -148,401 -132,216 -312,383 -540,498 -228,116 -488,174 -780,174 -295,0 -556,-58 -784,-174 -228,-115 -408,-282 -540,-498 -66,-106 -114,-238 -144,-397 -30,-158 -45,-364 -45,-615zm-3080 1295l378 -974c170,125 321,217 454,274 133,58 257,87 372,87 82,0 146,-16 192,-49 47,-32 70,-76 70,-132 0,-96 -116,-170 -349,-220 -76,-18 -134,-31 -176,-41 -246,-63 -434,-176 -565,-337 -131,-161 -196,-362 -196,-603 0,-374 127,-678 380,-912 254,-235 587,-352 998,-352 190,0 375,26 558,79 183,51 368,131 554,237l-360 910c-114,-89 -228,-157 -343,-204 -115,-46 -226,-70 -335,-70 -82,0 -146,15 -191,44 -45,29 -68,71 -68,123 0,98 165,184 494,258 52,13 93,23 121,29 227,54 405,164 536,330 130,167 195,368 195,604 0,384 -131,698 -394,942 -264,244 -607,366 -1028,366 -216,0 -432,-33 -648,-97 -217,-65 -433,-162 -649,-292z"/>
  <path class="fil0" d="M1782 1832c557,-483 1210,-541 1992,-155l-114 137c-567,-426 -1407,-361 -1878,18z"/>
  <path class="fil0" d="M3519 4492c-557,483 -1331,461 -2112,75l254 -693 -69 628c567,426 1456,370 1927,-10z"/>
  <path class="fil0" d="M2744 3978c25,-153 305,-408 -392,-503 -696,-94 -1020,-823 -715,-1440 -178,722 114,1208 776,1347 662,140 416,466 331,596z"/>
  <path class="fil0" d="M19595 3007c510,124 917,-245 447,-617 273,342 84,643 -447,617z"/>
  <path class="fil0" d="M5339 1512l-927 0 0 2228c155,814 701,1105 1426,1159 -725,-119 -1164,-500 -1319,-1141l0 -2139 820 -107z"/>
  <path class="fil0" d="M7157 1470l-907 24 -26 2091c-88,414 -340,359 -554,337 403,200 618,21 673,-307l24 -2022 790 -123z"/>
  <path class="fil0" d="M9168 3007c510,124 953,-228 483,-599 273,341 48,625 -483,599z"/>
  <path class="fil0" d="M10715 2560c-17,-667 -381,-1075 -1214,-1065l-1417 -1 0 3298 891 0 -793 -99 -17 -3108c963,-23 2317,-319 2550,975z"/>
  <path class="fil0" d="M12448 3007c510,124 916,-245 447,-617 273,342 84,643 -447,617z"/>
  <path class="fil0" d="M13959 2560c-17,-667 -381,-1075 -1214,-1065l-1417 -1 0 3298 891 0 -793 -99 -17 -3108c963,-23 2317,-319 2550,975z"/>
  <g>
   <path class="fil0" d="M21106 2560c-17,-667 -381,-1075 -1214,-1065l-1417 -1 0 23c28,40 55,81 82,123l-1 -55c963,-23 2317,-319 2550,975zm-2630 150c0,0 0,0 0,0 0,0 0,0 0,0zm4 -7c0,-1 1,-2 1,-2 0,0 -1,1 -1,2zm1 -3c0,0 1,-1 1,-2l-1 2zm5 -20c0,-1 0,-2 0,-2l0 2zm0 -4c1,-11 0,-22 -1,-33 1,11 2,22 1,33zm-1 -34c0,-1 0,-3 0,-5 0,2 0,4 0,5zm0 -8c-1,-3 -1,-6 -2,-9 1,3 1,6 2,9zm-2 -13c0,-3 -1,-6 -1,-9 0,3 1,6 1,9zm-1 -9c-1,-5 -1,-10 -2,-15 1,5 1,10 2,15zm-2 -22c0,-6 -1,-12 0,-18 -1,6 0,12 0,18zm10 -33c1,0 3,1 4,1l-4 -1zm50 315c-3,-1 -6,-2 -8,-2 2,0 5,1 8,2zm-8 -2c-3,-1 -6,-2 -8,-3 0,0 0,0 0,0 0,0 0,0 0,0 -3,-1 -5,-2 -8,-2l16 5zm-18 -6c-2,-1 -4,-1 -6,-2 2,1 4,1 6,2zm-7 -2c-2,-1 -5,-1 -7,-2 2,1 5,1 7,2zm-8 -2c-2,-1 -4,-1 -7,-2 0,0 0,0 -1,0 0,0 0,0 0,0 -2,-1 -5,-2 -8,-2 0,0 0,0 0,0 -3,-1 -5,-2 -8,-2l24 6zm-24 1641l0 291 891 0 -793 -99 -2 -374c-30,62 -62,123 -96,182zm96 -182l-7 -1308c0,0 0,0 0,0 -7,1 -15,2 -22,4 7,-2 15,-3 22,-4l7 1308zm-30 -1304c-6,1 -12,2 -18,2 6,0 12,-1 18,-2zm-22 3c0,0 -1,0 -2,0l2 0zm-14 2c-2,0 -5,0 -8,1 3,-1 6,-1 8,-1zm-9 1c-3,0 -6,1 -10,1 4,0 7,-1 10,-1zm-13 1c0,1 -1,1 -2,1 1,0 2,-1 2,-1zm-3 1c-1,0 -3,0 -4,0l4 0z"/>
  </g>
  <path class="fil0" d="M19705 3776l517 1016 1016 -18 -927 -107c0,0 -614,-907 -606,-891z"/>
  <polygon class="fil0" points="23844,1476 21548,1485 21551,2446 22087,2440 21651,2374 21636,1582 "/>
  <polygon class="fil0" points="22202,2599 22202,4790 23223,4799 22287,4687 "/>
  <path class="fil1" d="M13652 5162l-21 4 -21 4 -11 2 -1 2 -23 52 -23 52 -23 53 -22 53 -22 52 -22 54 -22 53 -22 54 -21 53 -21 54 -21 55 -21 54 -21 55 -20 55 -20 56 -20 55 -20 56 -20 56 -19 57 -19 56 -19 57 -19 57 -19 57 -18 58 -19 58 -18 58 -18 58 -17 59 -11 37 8 -1 11 -1 12 -1 14 -1 52 -4 50 -3 49 -1 46 -1 44 0 43 2 40 2 39 4 37 5 35 7 34 7 12 4 3 -12 4 -15 4 -16 5 -15 5 -17 4 -17 6 -17 9 -31 10 -31 11 -31 10 -31 11 -30 11 -31 12 -30 12 -30 12 -30 12 -30 13 -29 13 -29 14 -29 14 -29 14 -29 14 -29 11 -20 11 -20 12 -19 12 -17 13 -17 14 -16 15 -15 18 -13 18 -11 18 -9 19 -7 19 -6 20 -4 19 -3 20 -2 21 0 19 0 19 2 19 3 19 5 18 5 18 7 17 8 17 9 17 10 16 12 16 15 15 17 13 20 10 23 6 24 1 12 14 -17 21 -25 20 -23 21 -22 20 -20 20 -19 19 -18 19 -16 20 -15 19 -13 20 -12 20 -11 21 -9 23 -7 24 -5 23 -2 27 1 25 3 24 5 24 6 24 8 23 10 23 11 23 14 21 15 20 16 18 19 16 21 14 24 11 26 7 28 0 0 12 -3 12 -3 13 -3 12 -3 14 -2 14 -3 14 -2 14 -2 16 -2 5 -16 13 -38 13 -38 14 -37 13 -37 14 -37 14 -36 14 -36 15 -35 14 -35 15 -34 15 -34 15 -33 15 -33 16 -33 16 -31 15 -32 17 -31 16 -31 16 -30 17 -30 17 -29 17 -29 17 -29 18 -28 17 -27 18 -27 18 -27 18 -26 19 -26 19 -25 37 -48 37 -46 37 -43 36 -39 37 -38 37 -34 37 -31 37 -29 37 -26 37 -22 38 -20 39 -17 39 -13 39 -10 40 -6 40 -2 19 1 19 3 18 5 17 7 17 8 15 9 15 10 13 12 14 12 12 14 11 14 11 14 10 16 10 15 9 17 0 0 4 3 6 6 7 7 7 6 7 7 8 7 24 23 23 22 20 21 18 21 16 20 14 22 13 28 6 35 -2 29 -6 23 -9 20 -11 18 -13 17 -14 13 -14 12 -15 11 -15 9 -15 7 -15 7 -16 6 -16 5 -17 3 -18 2 -19 1 -25 -2 -27 -6 -25 -9 -23 -13 -20 -15 -19 -16 -17 -18 -12 -17 -8 -9 -4 -4 -3 -3 0 0 -3 0 -4 1 -7 2 -9 3 -10 6 -12 7 -13 10 -14 12 -16 14 -17 17 -17 18 -18 22 -19 23 -20 26 -20 28 -21 30 -21 33 -22 34 -22 37 -23 39 -23 42 -24 43 -24 46 -25 47 -25 50 -25 52 -26 54 -26 57 -27 58 -27 60 -23 52 27 1 27 2 26 3 24 4 23 6 23 7 22 10 16 10 4 -5 21 -17 22 -17 21 -15 22 -14 23 -12 24 -11 24 -9 25 -7 25 -5 26 -4 25 -1 17 1 16 1 15 2 16 3 15 3 15 5 14 5 16 7 16 8 13 8 13 10 9 7 0 0 11 -1 10 -1 10 0 12 0 33 2 34 6 34 10 32 14 30 18 27 21 25 24 22 27 11 15 9 15 9 15 8 16 7 17 7 16 4 12 3 -4 8 -13 9 -15 9 -16 10 -17 10 -19 6 -11 5 -11 5 -12 -10 -9 -10 -12 -10 -13 -8 -14 -7 -14 -5 -16 -4 -15 -2 -16 -1 -17 3 -29 8 -31 12 -28 15 -26 19 -24 20 -21 23 -20 24 -18 26 -18 28 -15 29 -14 30 -11 30 -8 31 -6 31 -4 31 -1 19 1 18 1 18 3 19 5 18 6 17 7 17 10 15 9 15 11 14 14 14 15 12 18 9 19 7 21 4 21 2 19 -1 11 0 8 -1 3 6 -5 8 -7 9 -7 8 -7 9 -6 9 -7 10 -6 22 -15 20 -6 6 -1 5 -2 6 -1 6 -2 6 -1 6 -1 6 -1 5 -1 6 -1 5 -1 6 -1 6 0 5 0 4 -1 7 0 20 1 21 2 20 4 21 5 19 7 20 8 18 9 19 10 19 11 17 13 17 15 16 17 14 21 12 23 7 27 3 25 -1 20 -3 17 -4 17 -6 15 -7 15 -8 14 -9 13 -9 12 -11 11 -10 10 -11 10 -12 10 -12 10 -13 9 -11 8 -7 9 -16 23 -16 23 -15 23 -15 23 -14 22 -14 22 -13 23 -12 22 -12 21 -12 22 -11 21 -10 21 -10 21 -9 20 -9 20 -8 20 -7 20 -7 20 -7 19 -6 19 -5 18 -5 18 -4 17 -4 18 -3 16 -3 16 -2 16 -2 16 -1 15 0 10 14 -10 17 -14 19 -18 9 -9 10 -11 10 -10 10 -12 11 -12 10 -13 11 -14 10 -14 11 -15 11 -16 12 -16 11 -17 11 -18 12 -18 12 -19 12 -21 3 -5 3 -5 3 -5 3 -5 7 -11 4 -8 4 -7 8 -14 8 -15 9 -13 9 -13 9 -12 10 -12 0 -1 4 -10 6 -16 5 -15 6 -15 5 -14 5 -14 5 -14 5 -14 5 -13 4 -13 5 -13 4 -12 5 -13 4 -12 4 -12 12 -33 12 -31 12 -28 11 -25 11 -23 12 -21 13 -21 16 -19 17 -16 18 -14 19 -11 20 -9 21 -7 22 -4 21 -3 21 -1 25 1 24 3 24 6 24 7 22 10 22 11 21 14 20 15 19 17 17 17 15 20 14 21 11 24 9 25 5 26 0 3 18 -18 19 -18 18 -18 19 -16 18 -14 19 -14 19 -12 19 -11 19 -10 21 -8 21 -7 23 -4 22 -2 21 1 20 3 19 5 19 6 19 9 17 11 16 12 14 14 13 15 11 15 10 17 8 17 7 18 6 18 4 19 2 10 1 -2 13 -16 12 -16 12 -16 12 -15 11 -15 12 -14 22 -28 22 -25 22 -25 21 -23 20 -21 20 -19 19 -19 19 -17 19 -15 19 -14 19 -13 20 -11 21 -10 22 -8 24 -5 25 -2 17 1 17 2 15 4 15 5 16 6 14 8 13 9 10 8 10 8 11 11 10 11 9 11 8 12 8 12 4 7 1 0 8 7 8 8 7 8 7 7 7 8 7 10 7 10 6 10 5 10 5 11 4 12 3 13 2 14 1 15 -1 16 -2 14 -4 13 -4 12 -4 11 -5 10 -5 9 -5 9 -6 9 -7 10 -7 11 -9 11 -9 13 -10 13 -12 14 -11 15 -13 15 -11 16 -12 16 -11 16 -11 17 -11 16 -11 18 -11 17 -10 18 -10 18 -10 18 -10 19 -10 19 -9 20 -9 19 -9 20 -8 20 -9 19 -7 18 -7 18 -6 17 -6 15 -5 15 -4 14 -4 13 -1 6 2 -2 7 -8 8 -8 8 -9 9 -11 9 -11 10 -13 11 -13 11 -15 12 -15 12 -17 13 -17 13 -18 14 -19 14 -21 10 -13 8 -12 9 -13 9 -13 8 -14 9 -14 8 -14 9 -15 5 -9 5 -9 5 -8 5 -8 5 -7 4 -7 5 -6 1 -2 8 -14 11 -18 12 -19 12 -18 12 -19 13 -19 13 -18 12 -18 15 -21 15 -22 16 -22 16 -20 17 -21 16 -20 17 -19 17 -18 17 -18 17 -18 18 -17 17 -16 18 -16 19 -16 18 -14 19 -15 19 -13 19 -13 19 -12 18 -11 19 -10 20 -10 19 -9 19 -8 19 -7 20 -6 19 -6 20 -4 20 -4 19 -3 20 -1 20 -1 21 1 20 2 11 1 8 -15 10 -11 8 -9 8 -6 7 -5 5 -4 3 -1 20 -15 14 -7 9 -5 10 -7 12 -8 13 -9 15 -11 16 -12 17 -13 18 -14 17 -14 16 -14 17 -15 15 -14 16 -15 15 -14 4 -4 -11 -19 -11 -25 -6 -27 -3 -32 7 -39 20 -37 26 -26 27 -19 27 -13 28 -10 29 -8 31 -7 9 -2 9 -2 10 -1 10 -2 11 -1 11 -2 12 -2 12 -1 13 -2 14 -1 14 -2 15 -1 15 -2 16 -1 17 -2 17 -2 18 -1 18 -2 19 -1 20 -2 41 -3 21 -2 23 -2 22 -1 24 -2 24 -2 24 -1 26 -2 14 -1 1 -2 7 -17 6 -16 6 -15 6 -13 6 -13 5 -12 7 -11 6 -11 6 -11 7 -10 7 -9 7 -9 9 -10 17 -18 21 -18 23 -16 25 -12 26 -10 26 -7 27 -4 26 -1 20 1 19 1 19 2 18 3 18 5 17 5 17 7 18 8 18 10 16 12 16 14 14 16 13 20 10 22 6 24 4 46 -13 24 3 0 14 -1 13 0 14 -1 13 0 13 0 13 -1 13 0 13 -1 12 0 13 0 12 0 12 -1 12 0 12 0 11 0 12 0 11 0 12 0 11 0 11 0 27 0 25 0 25 1 24 0 23 1 23 1 21 2 20 1 20 2 19 3 18 2 18 3 16 3 17 3 15 4 16 4 29 10 27 14 27 16 25 22 21 27 16 30 9 33 3 34 -2 23 -5 22 -11 22 -13 19 -16 16 -16 11 -17 9 -16 7 -17 5 -17 3 -17 2 -17 2 -19 1 -20 1 -22 0 -17 1 10 8 14 17 13 18 10 20 7 20 5 21 3 20 1 21 -2 30 -7 30 -10 29 -14 27 -17 24 -19 23 -21 21 -24 19 -26 17 -26 15 -26 13 8 13 8 19 5 19 3 18 1 23 -2 20 -5 15 -4 11 -4 12 -6 12 -5 14 -7 15 -8 16 -5 11 -4 10 -5 10 -4 10 -4 9 -4 8 -4 9 -3 6 -29 68 -23 52 -21 50 -20 47 -18 44 -17 42 -15 39 -14 36 -12 34 -11 31 -9 28 -7 25 -6 22 -4 17 10 -5 18 -13 22 -16 24 -20 12 -11 13 -11 12 -11 13 -12 12 -12 13 -13 12 -13 13 -14 12 -14 13 -15 13 -15 13 -15 12 -16 13 -17 13 -17 11 -15 2 -3 2 -3 2 -3 2 -3 0 -1 5 -14 5 -14 5 -14 6 -14 5 -15 6 -14 6 -15 6 -14 7 -15 6 -14 7 -15 7 -15 7 -15 8 -15 7 -15 19 -35 18 -34 20 -33 19 -33 20 -31 20 -31 21 -29 22 -29 21 -28 22 -26 23 -26 23 -25 24 -24 24 -23 24 -22 26 -22 16 -12 16 -10 16 -10 16 -10 17 -8 17 -7 17 -7 17 -6 18 -5 18 -4 19 -4 18 -2 19 -3 20 -1 20 -1 20 0 16 0 15 1 16 1 15 2 15 3 15 3 15 3 14 4 14 4 15 5 14 6 15 6 14 7 14 6 14 7 7 2 25 7 24 9 24 11 22 14 22 16 19 18 18 19 15 21 14 23 12 24 9 25 7 25 5 26 3 27 1 26 -1 21 -1 20 0 7 12 -16 16 -21 17 -20 17 -19 17 -18 17 -18 17 -18 18 -17 17 -16 18 -16 19 -16 18 -14 19 -15 19 -13 19 -13 18 -12 19 -11 19 -10 19 -10 19 -9 20 -8 19 -7 19 -6 20 -6 20 -4 19 -4 20 -3 20 -1 20 -1 21 1 20 2 20 3 21 4 19 5 20 6 18 7 20 9 18 10 18 11 17 12 16 13 16 14 4 4 7 -2 9 -1 9 -2 9 -1 8 -1 8 -1 9 0 8 -1 8 0 8 0 9 -1 24 1 24 2 24 3 23 4 22 5 22 7 22 9 21 11 20 12 18 14 18 16 15 18 14 22 11 24 6 26 2 29 -3 25 -6 22 -7 20 -9 19 -10 21 -12 22 -13 23 -15 26 -13 21 -12 19 -11 18 -10 18 -10 16 -8 15 -9 14 -7 13 -10 18 -10 19 -9 18 -10 18 -9 18 -9 18 -8 17 -8 17 -8 17 -8 17 -7 16 -7 16 -7 16 -5 13 13 -15 14 -16 15 -17 16 -18 17 -19 17 -20 19 -22 6 -7 7 -8 6 -8 8 -9 7 -9 8 -10 8 -11 9 -11 11 -14 11 -13 12 -13 12 -12 15 -11 17 -12 25 -10 29 -5 26 2 21 4 18 8 17 8 15 10 13 11 11 11 12 12 9 13 9 12 7 13 8 14 6 15 5 16 3 18 2 22 -4 28 -8 24 -9 21 -10 21 -12 21 -14 23 -17 24 -17 26 -10 13 -10 14 -10 14 -10 14 -11 14 -11 14 -12 15 -11 14 -12 14 -12 14 -12 15 -13 14 -13 15 -13 14 -13 15 -14 15 -22 22 -21 22 -22 20 -21 18 -22 18 -21 15 -22 15 -22 13 -22 11 -22 10 -23 8 -24 7 -23 5 -24 4 -24 2 -25 1 -32 -1 -31 -4 -31 -6 -30 -10 -29 -13 -27 -16 -25 -19 -23 -22 -20 -24 -17 -27 -7 -12 -7 8 -18 16 -18 16 -18 16 -18 14 -19 14 -19 14 -19 13 -19 12 -19 11 -20 11 -19 10 -20 9 -20 8 -20 7 -20 7 -20 6 -20 5 -21 4 -20 3 -21 2 -20 1 -22 1 -32 -1 -33 -4 -33 -8 -31 -10 -30 -13 -28 -16 -27 -20 -24 -21 -16 -17 -3 -4 -13 9 -24 15 -24 14 -24 13 -24 13 -24 11 -24 11 -24 10 -24 9 -25 9 -24 7 -25 7 -25 6 -24 6 -25 4 -25 4 -25 3 -25 2 -26 1 -25 0 -26 0 -26 -1 -25 -2 -25 -3 -25 -4 -24 -4 -24 -6 -23 -6 -23 -8 -22 -8 -22 -9 -21 -10 -20 -12 -20 -12 -19 -13 -19 -14 -16 -14 -16 -15 -15 -16 -14 -16 -14 -18 -12 -18 -6 -10 -15 14 -24 20 -23 17 -17 11 -16 11 -17 10 -17 9 -18 9 -17 8 -18 7 -18 6 -18 6 -18 5 -19 5 -18 3 -19 3 -19 2 -19 1 -19 0 -19 0 -19 -1 -19 -3 -19 -3 -18 -4 -19 -5 -18 -6 -17 -7 -17 -8 -17 -9 -16 -10 -15 -11 -15 -12 -14 -13 -13 -13 -13 -15 -18 -23 -8 -12 -3 3 -23 21 -24 19 -25 18 -26 17 -26 15 -27 14 -14 6 -14 6 -14 6 -14 5 -14 4 -15 5 -14 4 -15 3 -14 3 -15 3 -15 2 -15 2 -15 1 -15 1 -15 1 -16 0 -36 -1 -36 -6 -35 -9 -34 -13 -33 -16 -30 -21 -28 -24 -24 -26 -12 -15 -11 -15 -10 -16 -9 -16 -8 -17 -8 -17 -1 -2 -19 19 -21 22 -22 20 -21 18 -22 18 -21 15 -21 15 -22 13 -23 11 -22 10 -23 8 -23 7 -24 5 -24 4 -24 2 -25 1 -32 -1 -31 -4 -31 -6 -30 -10 -29 -13 -27 -16 -25 -19 -23 -22 -20 -24 -17 -27 -6 -12 -8 8 -18 16 -18 16 -18 16 -18 14 -18 14 -19 14 -20 13 -19 12 -19 11 -20 11 -19 10 -20 9 -20 8 -20 7 -20 7 -20 6 -20 5 -20 4 -21 3 -20 2 -21 1 -21 1 -33 -1 -33 -4 -32 -8 -32 -10 -30 -13 -28 -16 -27 -20 -25 -22 -20 -23 -18 -24 -1 -2 -24 15 -26 14 -26 11 -28 10 -28 7 -28 5 -28 1 -19 0 -18 -2 -18 -3 -18 -5 -18 -5 -17 -7 -17 -7 -16 -9 -16 -8 -16 -11 -15 -11 -15 -12 -15 -12 -14 -14 -15 -14 -7 -8 -5 -4 -12 -11 -12 -11 -11 -11 -10 -12 -10 -13 -9 -12 -8 -15 -8 -15 -6 -15 -5 -15 0 -1 -17 23 -26 35 -26 31 -25 30 -25 27 -24 24 -25 22 -25 20 -25 17 -27 15 -29 12 -31 8 -30 3 -26 -1 -22 -2 -22 -4 -22 -5 -21 -8 -21 -10 -19 -11 -19 -14 -17 -16 -16 -18 -13 -20 -11 -21 -8 -22 -6 -23 -3 -18 0 0 -17 28 -18 26 -17 25 -18 23 -17 21 -17 20 -17 19 -18 17 -18 16 -19 14 -20 13 -22 11 -24 9 -25 6 -24 2 -34 -1 -30 -2 -29 -4 -27 -6 -28 -8 -26 -10 -25 -14 -24 -17 -21 -20 -15 -18 -3 2 -16 11 -15 9 -16 9 -15 8 -16 8 -17 7 -16 6 -17 6 -17 5 -17 4 -17 4 -17 3 -18 2 -18 2 -17 1 -18 0 -19 0 -19 -1 -19 -2 -18 -2 -18 -3 -18 -4 -18 -4 -17 -5 -17 -6 -16 -7 -17 -8 -15 -8 -15 -10 -15 -10 -14 -11 -14 -12 -24 -24 -22 -28 -19 -31 -15 -32 -11 -34 -8 -34 -4 -36 -2 -35 1 -19 0 -17 1 -17 2 -18 1 -17 3 -18 2 -18 3 -19 4 -18 3 -19 5 -19 4 -19 5 -20 5 -19 6 -20 6 -20 6 -20 0 -1 -31 23 -39 25 -39 22 -40 20 -39 17 -38 14 -37 11 -6 1 -7 18 -14 36 -15 34 -15 34 -16 33 -17 31 -17 31 -18 30 -19 28 -19 28 -19 26 -21 26 -21 24 -21 24 -23 22 -23 21 -23 20 -24 19 -25 17 -26 16 -26 15 -26 14 -27 12 -28 10 -28 10 -28 8 -29 6 -30 5 -29 4 -30 2 -30 0 -23 0 -22 -1 -21 -2 -22 -3 -21 -3 -21 -5 -20 -5 -20 -6 -19 -8 -20 -8 -18 -9 -19 -10 -17 -10 -17 -12 -17 -13 -15 -13 -15 -15 -14 -15 -14 -16 -12 -16 -11 -18 -11 -18 -9 -18 -9 -19 -7 -20 -6 -20 -5 -20 -5 -21 -3 -21 -2 -21 -2 -21 0 -22 0 -19 1 -20 2 -20 3 -20 3 -20 3 -21 5 -21 5 -21 5 -21 6 -21 7 -22 7 -22 8 -23 9 -22 9 -23 10 -23 9 -23 11 -24 11 -23 11 -23 12 -23 2 -3 -11 1 -24 0 -25 1 -27 0 -10 0 -1 2 -6 16 -6 16 -6 16 -6 17 -6 17 -6 16 -6 17 -5 17 -6 17 -6 17 -5 17 -5 17 -6 18 -5 17 -5 18 -5 18 -5 17 -5 18 -4 18 -5 18 -5 18 -4 18 -5 19 -4 18 -4 19 -4 18 -5 19 -4 19 -7 31 -8 31 -9 29 -11 28 -11 27 -14 25 -15 25 -17 22 -19 21 -21 19 -23 17 -25 14 -26 11 -28 8 -28 5 -27 1 -21 0 -19 -2 -19 -2 -18 -4 -18 -5 -19 -6 -18 -8 -17 -10 -17 -13 -15 -15 -1 -1 -4 2 -14 10 -15 8 -16 8 -15 8 -15 6 -16 7 -17 5 -17 5 -17 4 -17 3 -17 2 -18 1 -18 1 -36 -2 -36 -5 -35 -9 -34 -12 -33 -17 -30 -20 -28 -24 -23 -25 -12 -15 -10 -15 -10 -16 -9 -16 -8 -17 -7 -17 -7 -17 -5 -18 -5 -18 -4 -18 -4 -19 -3 -19 -2 -20 -1 -20 -1 -8 -10 16 -24 36 -22 34 -23 32 -22 30 -21 28 -21 26 -20 23 -21 22 -20 20 -20 19 -21 16 -22 15 -23 13 -25 11 -27 7 -27 2 -31 -1 -27 -2 -27 -5 -26 -7 -22 -8 -2 1 -24 6 -20 2 -17 1 -18 0 -22 0 -25 0 -29 -1 -32 -1 -20 0 -20 -1 -21 0 -20 0 -21 -1 -20 0 -21 0 -20 0 -21 0 -20 0 -21 0 -20 0 -41 0 -21 0 -21 1 -20 0 -21 0 -41 1 -21 1 -21 0 -21 1 -21 0 -20 1 -21 1 -21 0 -21 1 -4 0 -1 2 -12 18 -13 15 -15 13 -16 11 -18 10 -16 6 -16 6 -16 4 -16 3 -17 2 -17 1 -16 0 -31 0 -30 -2 -28 -3 -27 -5 -26 -6 -26 -8 -24 -11 -22 -11 -12 -8 -10 -7 -3 -3 -8 1 -28 2 -28 3 -29 2 -28 3 -28 3 -29 3 -28 2 -28 3 -29 4 -28 3 -29 3 -28 3 -29 4 -28 3 -29 4 -29 3 -28 4 -29 4 -29 4 -28 4 -29 4 -29 4 -29 4 -29 4 -29 5 -29 4 -29 5 -29 4 -29 5 -14 2 -6 3 0 1 -6 4 -6 4 -6 4 -6 4 -7 3 -8 5 -17 7 -20 5 -22 2 -22 -1 -21 -4 -19 -7 -17 -9 -16 -11 -14 -12 -12 -11 -10 -12 -10 -13 -8 -13 -9 -14 -7 -14 -7 -15 -12 -28 -10 -26 -9 -26 -7 -26 -6 -26 -4 -25 -1 -25 0 -26 3 -26 6 -25 9 -26 13 -24 17 -22 19 -20 22 -16 23 -13 19 -8 18 -6 19 -6 21 -5 24 -6 25 -5 28 -5 30 -5 33 -6 36 -5 38 -5 41 -6 44 -6 46 -6 50 -6 52 -6 16 -2 17 -1 17 -2 17 -2 18 -2 17 -2 18 -2 17 -2 18 -2 19 -2 18 -1 18 -2 19 -2 18 -2 19 -2 19 -2 19 -2 20 -1 19 -2 20 -2 19 -2 20 -2 20 -2 21 -1 20 -2 20 -2 21 -2 21 -2 15 -1 4 -16 6 -18 5 -19 6 -19 6 -20 6 -20 6 -20 6 -21 7 -21 7 -22 7 -22 7 -23 9 -30 10 -30 9 -30 10 -31 10 -31 10 -32 11 -32 11 -33 10 -33 11 -33 12 -34 11 -34 11 -35 12 -35 12 -35 12 -36 13 -36 12 -37 13 -37 13 -38 13 -38 13 -38 13 -39 14 -39 14 -40 14 -40 14 -41 14 -40 14 -42 15 -42 15 -42 15 -43 3 -8 3 -9 4 -9 4 -10 3 -11 5 -13 4 -13 5 -14 3 -7 -12 2 -33 9 -33 9 -33 8 -33 9 -34 9 -33 10 -33 9 -34 10 -33 9 -19 6 -2 1 -4 4 -5 4 -5 5 -5 4 -6 4 -7 5 -15 9 -19 7 -21 5 -22 1 -20 -1 -19 -5 -17 -6 -17 -9 -14 -10 -12 -9 -11 -10 -10 -11 -9 -11 -9 -12 -9 -12 -7 -12 -14 -23 -11 -23 -11 -22 -9 -23 -8 -22 -6 -22 -4 -23 -3 -23 0 -24 2 -25 7 -25 9 -24 13 -23 16 -20 18 -17 20 -15 16 -10 16 -8 17 -7 18 -7 19 -7 22 -7 24 -8 25 -7 29 -8 30 -9 32 -9 35 -9 38 -10 39 -9 42 -11 44 -11 26 -6 25 -6 27 -6 26 -6 27 -6 28 -6 27 -7 29 -6 28 -6 29 -7 30 -6 30 -7 30 -6 31 -7 31 -6 4 -1 17 -14 22 -16 24 -13 25 -11 26 -9 27 -5 27 -2 17 1 16 2 16 4 15 4 14 5 4 2 29 -6 16 -3 16 -3 16 -4 17 -3 16 -3 16 -3 17 -4 16 -3 17 -3 17 -3 16 -4 18 -3 7 -1 6 -2 7 -1 8 -1 9 -2 9 -2 11 -2 11 -3 56 -10 53 -10 51 -7 48 -6 46 -3 44 -2 42 0 40 2 38 4 36 7 34 10 33 13 32 17 29 21 26 25 20 29 11 20 7 18 5 19 4 18 3 19 2 19 1 20 0 20 -1 21 -3 21 -3 22 -6 21 -9 21 -12 22 -18 21 -26 22 -26 10 -18 4 -15 3 -16 2 -19 2 -22 3 -26 2 -27 2 -20 2 -21 3 -21 2 -21 2 -20 2 -21 3 -21 2 -21 2 -21 3 -21 3 -21 2 -21 3 -21 3 -21 2 -21 3 -21 3 -21 3 -21 3 -21 3 -21 4 -21 3 -21 3 -21 3 -21 4 -21 3 -21 4 -22 3zm1099 1230l-3 6 -8 16 -7 17 -8 18 -8 19 -8 20 -8 21 -9 21 -8 22 -5 15 -6 16 -5 16 -5 16 -5 15 -5 16 -5 16 -5 15 -4 15 -5 16 -4 15 -4 15 -4 15 -4 15 -4 15 -3 14 -7 28 -5 26 -2 9 20 -22 21 -23 22 -26 24 -29 25 -30 27 -32 17 -21 15 -19 13 -17 11 -16 10 -14 9 -12 7 -12 7 -11 7 -11 6 -11 6 -11 7 -12 7 -13 8 -13 9 -15 4 -7 -5 -1 -21 -7 -19 -9 -20 -11 -18 -13 -18 -15 -17 -19 -10 -16zm5804 -595l-2 8 -2 7 -2 6 -3 7 -4 8 -5 8 -6 7 -6 7 -6 7 -8 6 -6 4 -5 4 -4 2 -2 1 -14 10 -23 15 -23 15 -23 14 -24 15 -24 14 -25 15 -24 14 -26 15 -25 14 -23 12 -16 9 16 6 21 11 20 12 18 14 18 16 16 18 13 22 11 24 6 26 3 29 -4 25 -6 22 -7 20 -9 19 -10 21 -12 22 -13 23 -15 26 -13 21 -12 19 -11 18 -10 18 -9 16 -9 15 -8 14 -8 13 -10 18 -10 19 -9 18 -10 18 -9 18 -8 18 -9 17 -8 17 -8 17 -8 17 -7 16 -7 16 -7 16 -7 16 -4 10 11 -10 13 -15 13 -15 14 -16 15 -18 15 -18 15 -20 16 -21 16 -22 15 -20 13 -17 12 -16 11 -14 9 -12 9 -11 7 -10 7 -10 7 -11 6 -12 8 -13 8 -16 8 -19 10 -22 11 -26 7 -18 7 -18 7 -19 8 -20 7 -20 8 -21 7 -21 8 -22 8 -22 8 -23 8 -23 8 -24 8 -23 9 -25 8 -24 8 -25 9 -25 9 -25 8 -26 9 -26 9 -25 9 -27 10 -26 9 -26 9 -26 10 -26 3 -9 -3 0 -13 1 -3 0 -2 13zm2799 566l-1 1 -19 13 -21 17 -10 9 -10 10 -11 11 -11 11 -11 11 -11 12 -11 13 -11 13 -12 14 -11 14 -11 15 -12 15 -11 16 -12 17 -11 17 -12 17 -11 18 -11 17 -10 17 -11 17 -10 17 -9 17 -9 16 -9 17 -9 16 -9 17 -8 16 -8 15 -7 16 -8 16 -7 15 -6 15 -6 15 -2 3 12 -11 19 -18 19 -20 20 -22 19 -23 21 -24 15 -19 15 -20 15 -19 15 -20 14 -20 14 -19 14 -20 14 -20 13 -20 13 -20 12 -20 13 -20 12 -21 11 -20 12 -20 11 -20 11 -21 10 -19 9 -18 9 -17 7 -15zm-791 336l-19 10 -39 12 -39 3 -23 0 -20 -3 -20 -4 -20 -6 -19 -7 -18 -9 -18 -11 -17 -12 -15 -13 -15 -15 -13 -16 -12 -18 -9 -19 -8 -22 -5 -22 -1 -22 1 -26 4 -25 1 -4 -12 18 -15 24 -15 24 -14 25 -14 25 -14 26 -13 26 -13 27 -12 27 -11 26 -11 25 -10 24 -8 24 -8 23 -8 22 -6 21 -5 21 -5 19 -4 19 -3 18 -3 16 -1 16 -1 15 -1 14 1 15 1 14 2 11 2 9 2 7 2 5 2 3 1 2 1 0 1 1 0 0 2 1 4 1 6 2 8 1 11 0 10 0 11 -1 11 -1 11 -1 12 -2 11 -3 12 -3 12 -3 13 -4 12 -5 13 -5 13 -6 13 -6 14 -6 13 -8 14 -7 15 -9 14 -9 15 -10 15 -10 15 -11 16 -12 16 -12 16 -14 16 -13 17 -15 17 -15 17 -16 18 -16 17 -18 18 -17 19 -20 2 -7 5 -18 6 -17 6 -18 6 -18 4 -12zm-1237 -971l-17 2 -27 2 -27 1 -26 2 -24 2 -24 2 -23 1 -22 2 -22 1 -20 1 -10 1 -9 19 -11 25 -11 26 -12 25 -11 26 -11 26 -11 26 -11 25 -11 26 -11 26 -10 26 -11 26 -10 25 -11 26 -10 25 -10 25 -10 26 -9 24 -10 25 -9 25 -9 24 -9 24 -8 23 -9 24 -8 22 -8 23 -7 22 -7 22 -7 21 -7 21 -13 41 -12 39 -11 38 -10 36 -9 35 -8 33 -8 32 -7 30 -6 28 -5 27 -4 25 -3 24 -3 22 -2 19 -1 19 0 16 0 0 3 -2 11 -7 13 -9 15 -11 15 -14 16 -14 16 -17 17 -18 18 -20 17 -22 19 -24 18 -26 7 -8 6 -10 7 -10 6 -10 7 -11 7 -10 6 -11 7 -11 6 -11 7 -11 6 -11 7 -12 6 -12 6 -12 7 -12 1 -2 1 -5 4 -16 4 -17 5 -16 4 -17 5 -17 5 -17 5 -17 9 -28 9 -26 9 -26 9 -25 9 -24 9 -23 9 -22 9 -21 10 -20 9 -19 10 -19 10 -17 11 -17 10 -16 12 -15 10 -13 11 -13 14 -15 16 -13 17 -11 17 -11 18 -9 18 -8 1 -1 -6 -5 -16 -19 -12 -21 -11 -23 -7 -24 -4 -24 -1 -25 2 -32 9 -33 14 -31 18 -28 21 -24 24 -21 25 -18zm-5556 1252l0 9 1 5 1 -1 6 -1 6 -3 8 -4 9 -5 10 -7 11 -9 12 -11 13 -12 14 -15 14 -16 14 -19 15 -20 15 -22 16 -24 16 -25 14 -24 13 -25 12 -23 11 -24 10 -23 9 -23 8 -23 7 -22 6 -22 5 -22 4 -22 3 -21 3 -21 1 -21 0 -18 -6 3 -9 5 -10 7 -12 9 -13 11 -13 13 -14 15 -15 16 -16 19 -16 20 -16 22 -17 24 -17 24 -15 24 -14 24 -13 23 -12 23 -10 23 -10 22 -8 23 -8 21 -6 22 -5 21 -4 20 -4 21 -2 20 -2 20 0 19zm3980 -617l-2 1 -19 13 -20 17 -10 9 -11 10 -11 11 -11 11 -11 11 -11 12 -11 13 -11 13 -11 14 -12 14 -11 15 -12 15 -11 16 -12 17 -11 17 -12 17 -11 18 -11 17 -10 17 -10 17 -10 17 -10 17 -9 16 -9 17 -9 16 -9 17 -8 16 -7 15 -8 16 -7 16 -7 15 -7 15 -6 15 -2 3 12 -11 19 -18 19 -20 20 -22 20 -23 20 -24 15 -19 15 -20 15 -19 15 -20 15 -20 14 -19 13 -20 14 -20 13 -20 13 -20 12 -20 13 -20 12 -21 11 -20 12 -20 11 -20 11 -21 10 -19 9 -18 9 -17 8 -15z"/>
  <path class="fil2" d="M15271 6402c-74,175 -132,366 -176,572 -31,156 -95,234 -191,234 -40,0 -70,-7 -90,-20 -21,-14 -31,-34 -31,-60 0,-19 5,-48 14,-86 -32,34 -64,65 -98,94 -31,24 -62,43 -93,56 -32,13 -64,20 -97,20 -76,0 -136,-26 -178,-78 -43,-52 -64,-125 -64,-219 0,-43 5,-98 17,-165 11,-67 29,-146 53,-237 -79,105 -168,237 -268,395 -123,192 -215,287 -276,287 -57,0 -104,-14 -140,-44 -1,0 -2,-1 -3,-2 -7,15 -16,25 -27,30 -7,4 -56,4 -146,1 -220,-5 -443,-2 -669,9 1,8 2,15 2,21 0,22 -9,37 -28,49 -19,11 -45,17 -78,17 -73,0 -127,-11 -163,-33 -15,-9 -27,-21 -36,-35 -302,24 -610,62 -924,114l-24 12c-1,1 -2,1 -4,2 -10,8 -20,15 -28,19 -17,8 -33,6 -49,-6 -17,-14 -32,-34 -46,-65 -29,-66 -42,-119 -40,-159 2,-41 21,-70 56,-88 44,-21 207,-49 489,-81 176,-20 378,-40 607,-59 24,-83 54,-185 92,-306 98,-313 228,-696 389,-1152 8,-19 18,-49 32,-89 23,-68 46,-130 69,-185 -177,41 -356,88 -536,141l-20 13c-1,0 -2,1 -4,2 -7,8 -15,15 -22,19 -13,9 -27,9 -43,0 -15,-10 -31,-26 -46,-51 -32,-55 -49,-100 -51,-135 -2,-36 11,-63 39,-82 36,-24 174,-65 414,-122 133,-32 284,-66 453,-101 40,-41 80,-61 120,-61 19,0 42,7 68,22 82,-17 169,-34 259,-52 15,-2 38,-7 70,-13 293,-61 467,-47 520,43 13,20 19,53 18,97 -1,44 -11,72 -29,84 -5,4 -47,9 -125,16 -225,22 -452,54 -681,96 -251,554 -467,1151 -649,1789 36,-3 73,-5 110,-8 18,-1 45,-3 82,-6 276,-23 458,-2 543,64 12,-59 32,-134 58,-223 49,-162 111,-316 186,-462 25,-51 50,-84 73,-100 23,-16 55,-24 96,-24 34,0 66,8 95,25 29,17 44,36 44,59 0,5 -10,24 -30,57 -125,213 -214,440 -264,682 199,-316 354,-543 466,-679 111,-137 196,-205 255,-205 47,0 93,13 135,40 41,27 63,58 63,93 0,21 -16,41 -46,61 -30,20 -46,30 -47,30 -7,8 -22,36 -42,81 -22,44 -44,99 -68,162 -31,89 -57,175 -77,256 -19,82 -29,144 -29,183 0,26 4,46 13,61 8,15 20,23 35,23 47,0 137,-98 285,-277 102,-124 106,-155 156,-233 25,-38 34,-86 52,-132l-13 0c-55,0 -99,-8 -131,-24 -32,-16 -48,-37 -48,-63 0,-20 20,-37 61,-51 42,-14 107,-26 197,-36 131,-413 293,-747 484,-1002 191,-255 365,-382 523,-382 22,0 44,9 66,28 22,20 42,49 62,89 13,12 30,28 51,48 68,61 101,102 101,122 0,18 -12,36 -36,52 -26,16 -50,24 -74,24 -33,0 -63,-19 -90,-57 -27,-37 -58,-56 -94,-56 -170,0 -407,354 -710,1061l-27 62c9,0 23,0 42,2 18,1 32,2 41,2 92,0 152,5 183,17 31,12 47,35 47,70 0,38 -20,64 -57,78 -38,13 -130,20 -279,20l-51 0zm5155 -650c11,2 19,5 24,9 5,5 6,9 5,15 0,3 -2,6 -4,9 -3,3 -6,5 -11,7l-17 12c-57,38 -119,75 -185,113 -66,36 -116,62 -150,76l-17 10c-16,6 -30,10 -42,13 -13,2 -25,1 -38,-2l-82 -17c-11,-2 -18,-5 -22,-9 -4,-4 -5,-9 -3,-15 0,-2 2,-4 7,-6 4,-3 8,-5 10,-7l14 -10c25,-13 63,-40 114,-79 51,-39 97,-81 139,-124l10 -10c10,-12 21,-19 32,-22 11,-4 24,-4 37,-1l179 38zm3064 537c0,-17 -6,-31 -18,-42 -12,-11 -28,-16 -49,-16 -51,0 -110,29 -176,86 -66,57 -132,136 -198,237 -63,97 -112,190 -150,277 -38,87 -56,153 -56,198 2,18 5,30 10,36 5,6 14,7 26,6 30,0 72,-21 127,-65 55,-43 110,-100 168,-170 88,-109 162,-221 224,-335 62,-114 92,-185 92,-212zm-3751 585c-75,113 -156,200 -245,261 -89,61 -175,92 -260,92 -69,0 -125,-22 -168,-64 -40,-40 -61,-90 -64,-150 -28,29 -55,53 -81,72 -56,41 -108,62 -156,62 -30,0 -60,-8 -91,-25 -31,-17 -61,-42 -93,-77 -26,-19 -44,-40 -57,-62 -11,-21 -17,-47 -17,-75 0,-56 56,-219 171,-489l13 -32c-75,104 -164,239 -267,404 -152,240 -267,360 -346,360 -44,0 -78,-11 -104,-32 -25,-21 -38,-50 -38,-87 0,-38 28,-161 85,-369 12,-45 22,-81 30,-107 -92,117 -187,258 -285,422 -92,153 -167,230 -225,230 -72,0 -123,-13 -155,-39 -31,-26 -47,-67 -47,-124 0,-7 1,-16 3,-27 -44,49 -84,86 -119,111 -64,44 -133,66 -208,66 -85,0 -152,-22 -199,-66 -49,-43 -73,-104 -73,-181 0,-76 16,-165 46,-265 31,-101 79,-217 143,-348l-123 -32c-2,5 -3,11 -4,16 -53,208 -319,343 -452,357 -66,193 -151,339 -256,440 -105,101 -226,151 -362,151 -102,0 -183,-27 -244,-82 -60,-55 -91,-130 -91,-225 0,-83 25,-183 75,-299 49,-117 115,-229 197,-335 46,-61 93,-106 139,-136 45,-30 91,-45 138,-45 30,0 56,5 79,16 23,11 42,27 55,49l9 -2c28,-4 53,-6 72,-6 65,0 117,27 157,82 41,54 62,126 63,216 117,-29 157,-105 213,-207 18,-35 35,-74 50,-123 -29,-15 -49,-29 -61,-41 -12,-12 -17,-26 -17,-43 0,-39 26,-78 80,-116 54,-39 114,-58 177,-58 33,0 61,8 82,24 23,15 33,34 33,56 0,11 -2,25 -5,42 -4,18 -10,38 -17,60l153 37c9,-14 21,-28 37,-41 16,-15 35,-30 57,-44 13,-4 25,-7 36,-9 10,-2 19,-3 25,-3 36,0 72,11 108,32 36,21 53,43 53,67 0,18 -7,36 -22,53 -15,18 -40,38 -74,60 -96,131 -168,255 -217,372 -49,118 -73,223 -73,316 0,30 6,54 18,73 12,19 27,29 45,29 47,0 100,-30 161,-89 60,-59 123,-145 189,-256 8,-12 18,-29 29,-50 20,-35 37,-59 52,-72 32,-87 59,-161 80,-223 32,-88 58,-144 78,-165 20,-22 48,-33 84,-33 42,0 81,15 118,44 35,29 53,61 53,97 0,20 -17,45 -50,76 -34,31 -59,58 -73,82 -22,30 -54,104 -97,218 -44,115 -87,245 -130,391 206,-314 362,-532 467,-655 105,-123 185,-184 241,-184 28,0 51,9 69,28 18,20 30,47 36,83l-36 56c-37,85 -70,174 -99,267 -28,92 -52,189 -72,290 189,-300 342,-523 458,-667 118,-145 203,-217 256,-217 19,0 36,7 51,20 16,13 32,33 46,60 18,14 32,27 41,40 9,13 14,25 14,36 0,11 -6,25 -16,41 -9,16 -30,44 -63,85 -71,89 -131,191 -181,305 -50,114 -76,197 -76,249 0,27 6,48 16,62 10,14 27,21 47,21 35,0 71,-17 109,-52 39,-36 98,-110 177,-222 25,-34 50,-73 75,-117 13,-22 23,-39 31,-50 27,-46 58,-93 92,-141 77,-113 160,-203 249,-268 89,-66 171,-98 248,-98 41,0 78,8 113,25 34,18 68,46 103,84 30,-7 54,-12 72,-15 18,-2 35,-3 52,-3 54,0 98,9 133,28 34,20 51,42 51,70 0,17 -20,60 -61,127 -34,56 -61,102 -81,138 -57,103 -102,198 -135,284 -33,84 -49,144 -49,179 0,19 3,32 9,39 6,7 16,11 32,11 22,0 54,-19 95,-56 41,-38 121,-107 210,-230 88,-122 106,-117 169,-273 79,-193 168,-494 275,-763 -83,5 -157,9 -223,11 -65,3 -115,3 -145,3 -65,0 -114,-8 -150,-26 -35,-17 -53,-41 -53,-72 0,-28 38,-50 112,-64 75,-15 259,-32 551,-50 49,-130 60,-154 90,-189 30,-35 69,-52 116,-52 39,0 72,7 98,21 27,14 40,31 40,51 -50,93 -53,107 -68,157 77,-5 150,-9 219,-11 69,-2 133,-3 190,-3 141,0 239,8 297,26 56,17 85,47 85,88 0,15 -9,26 -27,32 -18,6 -58,9 -119,9 -69,0 -186,6 -350,18 -164,11 -288,20 -374,25 -121,265 -246,570 -317,796 -72,226 -107,391 -107,495 0,34 7,62 21,81 14,20 33,30 58,30 37,0 80,-20 130,-61 49,-41 101,-99 154,-174 39,-55 77,-118 112,-189 10,-41 21,-83 35,-127 44,-145 90,-243 135,-297 18,-23 46,-41 85,-55 39,-13 82,-20 131,-20 26,0 48,5 63,15 16,11 24,26 24,46 0,7 -11,33 -32,78 -13,29 -24,54 -33,74l-29 68c-128,287 -191,467 -191,541 0,29 6,50 19,64 13,13 32,20 60,20 38,0 95,-31 168,-93 73,-61 146,-142 218,-241 4,-7 10,-15 16,-25 23,-69 53,-141 92,-217 92,-181 198,-320 319,-418 31,-24 64,-41 99,-52 34,-11 74,-16 121,-16 33,0 63,4 93,13 29,8 60,22 93,41 49,7 88,28 117,63 28,34 43,79 43,133 0,85 -27,174 -82,265 -53,92 -109,137 -168,137 -33,0 -63,-10 -89,-30 -26,-21 -39,-43 -39,-68 0,-39 17,-99 52,-183 34,-83 56,-146 67,-188l-17 -2c-22,0 -44,7 -67,19 -23,12 -45,30 -66,54 -107,112 -196,245 -267,397 -71,153 -107,277 -107,374 0,58 13,101 36,131 24,29 61,43 111,43 79,0 162,-25 248,-75 86,-50 180,-128 282,-233 7,-7 13,-14 20,-21 10,-41 23,-83 40,-127 41,-102 101,-209 180,-319 77,-113 159,-203 248,-268 89,-66 172,-98 249,-98 41,0 78,8 113,25 33,18 68,46 102,84 31,-7 55,-12 73,-15 18,-2 35,-3 52,-3 53,0 98,9 132,28 35,20 52,42 52,70 0,17 -20,60 -61,127 -34,56 -61,102 -81,138 -57,103 -102,198 -135,284 -33,84 -49,144 -49,179 0,19 3,32 9,39 6,7 16,11 31,11 23,0 55,-19 96,-56 41,-38 111,-115 210,-230 18,-21 39,-46 63,-77 25,-34 44,-50 56,-50 16,0 33,10 49,29 17,20 25,38 25,54 0,20 -24,64 -72,132 -48,69 -107,141 -177,217 -55,58 -104,99 -148,123 -44,24 -90,36 -138,36 -66,0 -117,-20 -153,-58 -36,-39 -54,-94 -54,-166 0,-20 0,-35 1,-47 1,-10 2,-20 4,-28 -75,113 -157,200 -245,261 -89,61 -175,92 -261,92 -69,0 -125,-22 -168,-64 -28,-29 -47,-63 -56,-102 -53,45 -109,84 -167,115 -114,61 -229,91 -346,91 -125,0 -225,-29 -300,-90 -70,-56 -107,-132 -110,-227 -60,75 -116,131 -169,168 -72,51 -148,77 -227,77 -80,0 -142,-28 -190,-83 -36,-43 -58,-98 -67,-165 -23,29 -47,57 -73,85 -48,54 -102,96 -162,125 -60,28 -123,42 -189,42 -74,0 -135,-27 -179,-80 -46,-54 -68,-127 -68,-219 0,-17 1,-35 2,-55 -40,55 -88,111 -142,169 -55,58 -104,99 -147,123 -45,24 -91,36 -138,36 -66,0 -118,-20 -154,-58 -36,-39 -54,-94 -54,-166 0,-20 0,-35 1,-47 1,-10 3,-20 4,-28zm-4071 106c0,39 8,68 24,88 15,19 40,28 73,28 79,0 164,-72 256,-216 93,-145 139,-283 139,-417 0,-33 -8,-59 -23,-77 -15,-19 -35,-28 -60,-28 -75,0 -162,71 -261,213 -99,143 -148,279 -148,409zm4218 -691c0,-17 -7,-31 -19,-42 -12,-11 -28,-16 -49,-16 -51,0 -110,29 -176,86 -66,57 -131,136 -197,237 -63,97 -113,190 -151,277 -37,87 -56,153 -56,198 2,18 5,30 10,36 6,6 14,7 26,6 30,0 72,-21 127,-65 55,-43 110,-100 168,-170 88,-109 162,-221 224,-335 62,-114 93,-185 93,-212zm1584 -261c-46,0 -83,-11 -112,-30 -28,-20 -43,-47 -43,-82 0,-45 29,-83 88,-114 59,-30 119,-45 182,-45 40,0 71,8 91,24 20,16 30,40 30,70 0,45 -24,85 -72,122 -50,36 -104,55 -164,55z"/>
 </g>
</svg>
