<?xml version="1.0" encoding="UTF-8"?>
<!DOCTYPE svg PUBLIC "-//W3C//DTD SVG 1.1//EN" "http://www.w3.org/Graphics/SVG/1.1/DTD/svg11.dtd">
<!-- Creator: CorelDRAW X7 -->
<svg xmlns="http://www.w3.org/2000/svg" xml:space="preserve" width="160.303mm" height="97.5019mm" version="1.1" style="shape-rendering:geometricPrecision; text-rendering:geometricPrecision; image-rendering:optimizeQuality; fill-rule:evenodd; clip-rule:evenodd"
viewBox="0 0 15076 9170"
 xmlns:xlink="http://www.w3.org/1999/xlink">
 <defs>
  <style type="text/css">
   <![CDATA[
    .fil0 {fill:#324F9E}
    .fil1 {fill:#324F9E;fill-rule:nonzero}
   ]]>
  </style>
 </defs>
 <g id="Camada_x0020_1">
  <metadata id="CorelCorpID_0Corel-Layer"/>
  <path class="fil0" d="M7603 413c81,2 160,8 239,16 -81,-107 -169,-166 -260,-166 -506,0 -649,1656 -682,2267 -347,19 -2267,140 -2267,655 0,91 58,178 163,259 -7,-72 -11,-144 -13,-217 334,-250 1128,-441 2108,-501 -23,649 28,3347 691,3347 91,0 179,-58 260,-166 -78,9 -158,14 -239,16 -484,-627 -551,-2383 -516,-3206 829,-35 2567,32 3206,510 -1,73 -6,145 -13,217 106,-81 163,-168 163,-259 0,-633 -2709,-687 -3346,-664 39,-640 164,-1663 506,-2108zm265 19c1181,141 2133,1029 2369,2178 298,128 469,278 469,439 0,154 -156,298 -429,421 -139,1272 -1141,2283 -2409,2434 -124,275 -268,432 -422,432 -160,0 -310,-169 -437,-463 -1172,-228 -2079,-1199 -2210,-2403 -273,-123 -429,-267 -429,-421 0,-161 172,-311 469,-439 223,-1084 1082,-1935 2170,-2146 127,-294 277,-464 437,-464 154,0 298,158 422,432z"/>
  <path class="fil1" d="M2609 7563c107,0 153,23 153,47 0,19 -25,33 -68,47l-2426 634c-162,42 -268,231 -268,425 0,251 183,454 409,454l2813 0c111,0 204,-104 204,-227 0,-123 -93,-227 -204,-227l-2405 0c-123,0 -183,-14 -183,-33 0,-14 39,-33 102,-52l2388 -629c175,-47 302,-227 302,-439 0,-251 -183,-454 -408,-454l-2814 0c-110,0 -204,104 -204,227 0,123 94,227 204,227l2405 0zm4465 0c111,0 204,-104 204,-227 0,-123 -93,-227 -204,-227l-2439 0c-489,0 -783,553 -783,1030 0,468 277,1031 741,1031l2481 0c111,0 204,-104 204,-227 0,-123 -93,-227 -204,-227l-2345 0c-392,0 -477,-350 -477,-577 0,-226 85,-576 477,-576l2345 0zm-179 350l-2119 0c-111,0 -205,104 -205,226 0,123 94,227 205,227l2119 0c111,0 205,-104 205,-227 0,-122 -94,-226 -205,-226zm1218 226l0 -803c0,-123 -94,-227 -205,-227 -110,0 -204,104 -204,227l0 803c0,468 277,1003 741,1031l1941 0c489,0 783,-553 783,-1031l0 -803c0,-123 -94,-227 -204,-227 -111,0 -205,104 -205,227l0 803c0,227 -85,577 -476,577l-1695 0c-391,0 -476,-350 -476,-577zm4048 227l2362 0c85,0 157,81 157,180 0,95 -72,170 -157,170l-2596 0c-111,0 -205,104 -205,227 0,123 94,227 205,227l2579 0c315,0 570,-274 570,-624 0,-350 -255,-633 -570,-633l-2354 0c-85,0 -162,-81 -162,-175 0,-100 77,-175 162,-175l2592 0c111,0 205,-104 205,-227 0,-123 -94,-227 -205,-227l-2583 0c-315,0 -566,279 -566,629 0,349 251,628 566,628z"/>
 </g>
</svg>
