<?xml version="1.0" encoding="UTF-8" standalone="no"?>
<!-- Generator: Adobe Illustrator 16.0.0, SVG Export Plug-In . SVG Version: 6.00 Build 0)  -->

<svg
   xmlns:dc="http://purl.org/dc/elements/1.1/"
   xmlns:cc="http://creativecommons.org/ns#"
   xmlns:rdf="http://www.w3.org/1999/02/22-rdf-syntax-ns#"
   xmlns:svg="http://www.w3.org/2000/svg"
   xmlns="http://www.w3.org/2000/svg"
   xmlns:sodipodi="http://sodipodi.sourceforge.net/DTD/sodipodi-0.dtd"
   xmlns:inkscape="http://www.inkscape.org/namespaces/inkscape"
   version="1.1"
   id="Layer_1"
   x="0px"
   y="0px"
   width="185px"
   height="188px"
   viewBox="0 0 185 188"
   enable-background="new 0 0 185 188"
   xml:space="preserve"
   inkscape:version="0.48.4 r9939"
   sodipodi:docname="logos.svg"><metadata
   id="metadata253"><rdf:RDF><cc:Work
       rdf:about=""><dc:format>image/svg+xml</dc:format><dc:type
         rdf:resource="http://purl.org/dc/dcmitype/StillImage" /></cc:Work></rdf:RDF></metadata><defs
   id="defs251" /><sodipodi:namedview
   pagecolor="#ffffff"
   bordercolor="#666666"
   borderopacity="1"
   objecttolerance="10"
   gridtolerance="10"
   guidetolerance="10"
   inkscape:pageopacity="0"
   inkscape:pageshadow="2"
   inkscape:window-width="1600"
   inkscape:window-height="837"
   id="namedview249"
   showgrid="false"
   inkscape:zoom="2.5106383"
   inkscape:cx="162.20524"
   inkscape:cy="100.45569"
   inkscape:window-x="-8"
   inkscape:window-y="-8"
   inkscape:window-maximized="1"
   inkscape:current-layer="g3" />
<g
   id="g3">
	<line
   fill="none"
   x1="-34.089"
   y1="-8097.5"
   x2="-34.089"
   y2="8285.5"
   id="line5" />
	<line
   fill="none"
   x1="0.828"
   y1="-8097.5"
   x2="0.828"
   y2="8285.5"
   id="line7" />
	<line
   fill="none"
   x1="183.5"
   y1="-8097.5"
   x2="183.5"
   y2="8285.5"
   id="line9" />
	
		<radialGradient
   id="SVGID_1_"
   cx="3.5396"
   cy="1012.3828"
   r="20.1136"
   gradientTransform="matrix(0.498 0 0 0.498 15.8475 -328.3509)"
   gradientUnits="userSpaceOnUse">
		<stop
   offset="0"
   style="stop-color:#FFCF4F"
   id="stop12" />
		<stop
   offset="1"
   style="stop-color:#F4C236"
   id="stop14" />
	</radialGradient>
	<path
   fill="url(#SVGID_1_)"
   d="M8.896,186.984h6.791c1.607,0,3.604-1.128,4.432-2.511l5.72-9.521   c0.677-1.396,0.653-3.426-0.119-4.713l-3.378-5.592L8.896,186.984z"
   id="path16" />
	
		<radialGradient
   id="SVGID_2_"
   cx="-8.5117"
   cy="1002.1709"
   r="27.6567"
   gradientTransform="matrix(0.498 0 0 0.498 15.8475 -328.3509)"
   gradientUnits="userSpaceOnUse">
		<stop
   offset="0"
   style="stop-color:#08A960"
   id="stop19" />
		<stop
   offset="1"
   style="stop-color:#07914B"
   id="stop21" />
	</radialGradient>
	<path
   fill="url(#SVGID_2_)"
   d="M16.197,159.498l-15.102,25.25c-0.583,1.247,0.023,2.236,1.521,2.236h6.281l13.446-22.335   l-6.146-10.173C17.025,155.854,17.025,158.114,16.197,159.498"
   id="path23" />
	
		<radialGradient
   id="SVGID_3_"
   cx="0.9395"
   cy="962.4893"
   r="40.5378"
   gradientTransform="matrix(0.498 0 0 0.498 15.8475 -328.3509)"
   gradientUnits="userSpaceOnUse">
		<stop
   offset="0"
   style="stop-color:#567FC0"
   id="stop26" />
		<stop
   offset="1"
   style="stop-color:#557FC0"
   id="stop28" />
	</radialGradient>
	<path
   fill="url(#SVGID_3_)"
   d="M2.616,126.984c-1.613,0-2.254,1.133-1.424,2.511l24.529,40.745   c0.772,1.288,0.795,3.317,0.119,4.713l5.963-9.925L8.9,126.984H2.616z"
   id="path30" />
	
		<radialGradient
   id="SVGID_4_"
   cx="13.0034"
   cy="952.5254"
   r="33.0574"
   gradientTransform="matrix(0.498 0 0 0.498 15.8475 -328.3509)"
   gradientUnits="userSpaceOnUse">
		<stop
   offset="0"
   style="stop-color:#E14C40"
   id="stop33" />
		<stop
   offset="1"
   style="stop-color:#CD392D"
   id="stop35" />
	</radialGradient>
	<path
   fill="url(#SVGID_4_)"
   d="M8.9,126.984l22.903,38.045l3.321-5.529c0.83-1.386,0.83-3.646,0-5.022l-15.004-24.981   c-0.829-1.379-2.825-2.512-4.432-2.512H8.9z"
   id="path37" />
	
	<g
   id="g63">
		<path
   fill="#E6E6E5"
   d="M52.911,144.801h5.613v7.086c-1.524,0.527-3.199,0.791-5.026,0.791c-2.004,0-3.554-0.588-4.647-1.763    c-1.094-1.175-1.641-2.851-1.641-5.026c0-2.122,0.599-3.773,1.797-4.955c1.198-1.181,2.876-1.771,5.035-1.771    c0.818,0,1.59,0.078,2.317,0.233c0.727,0.156,1.359,0.354,1.899,0.594l-1.112,2.788c-0.937-0.468-1.966-0.701-3.086-0.701    c-1.026,0-1.819,0.337-2.379,1.011c-0.561,0.675-0.841,1.639-0.841,2.892c0,1.229,0.253,2.166,0.761,2.81    c0.507,0.645,1.238,0.967,2.192,0.967c0.522,0,1.002-0.051,1.441-0.152v-2.06h-2.322V144.801z"
   id="path65" />
		<path
   fill="#E6E6E5"
   d="M71.303,145.646c0,2.194-0.598,3.885-1.792,5.072c-1.195,1.187-2.875,1.78-5.039,1.78h-4.208v-13.147    h4.501c2.087,0,3.699,0.54,4.834,1.619C70.735,142.049,71.303,143.607,71.303,145.646z M67.656,145.771    c0-1.205-0.236-2.098-0.707-2.68c-0.472-0.581-1.188-0.872-2.148-0.872h-1.023v7.364h0.783c1.067,0,1.851-0.313,2.349-0.939    C67.407,148.019,67.656,147.061,67.656,145.771z"
   id="path67" />
		<path
   fill="#E6E6E5"
   d="M77.944,144.801h5.613v7.086c-1.524,0.527-3.199,0.791-5.026,0.791c-2.004,0-3.554-0.588-4.647-1.763    c-1.094-1.175-1.641-2.851-1.641-5.026c0-2.122,0.599-3.773,1.797-4.955c1.198-1.181,2.876-1.771,5.035-1.771    c0.818,0,1.59,0.078,2.317,0.233c0.727,0.156,1.359,0.354,1.899,0.594l-1.112,2.788c-0.937-0.468-1.966-0.701-3.086-0.701    c-1.026,0-1.819,0.337-2.379,1.011c-0.561,0.675-0.841,1.639-0.841,2.892c0,1.229,0.253,2.166,0.761,2.81    c0.507,0.645,1.238,0.967,2.192,0.967c0.522,0,1.002-0.051,1.441-0.152v-2.06h-2.322V144.801z"
   id="path69" />
		<path
   fill="#E6E6E5"
   d="M100.158,145.646c0,2.194-0.598,3.885-1.793,5.072c-1.195,1.187-2.875,1.78-5.039,1.78h-4.208v-13.147    h4.501c2.088,0,3.699,0.54,4.836,1.619C99.59,142.049,100.158,143.607,100.158,145.646z M96.51,145.771    c0-1.205-0.234-2.098-0.707-2.68c-0.471-0.581-1.188-0.872-2.146-0.872h-1.023v7.364h0.783c1.066,0,1.85-0.313,2.348-0.939    C96.262,148.019,96.51,147.061,96.51,145.771z"
   id="path71" />
		<path
   fill="#E6E6E5"
   d="M106.238,152.678c-1.678,0-2.982-0.451-3.91-1.354s-1.393-2.187-1.393-3.854    c0-1.72,0.432-3.04,1.291-3.961c0.859-0.92,2.088-1.38,3.682-1.38c1.52,0,2.691,0.4,3.52,1.2c0.826,0.801,1.24,1.953,1.24,3.458    v1.564h-6.219c0.023,0.569,0.23,1.016,0.619,1.34c0.389,0.323,0.918,0.485,1.588,0.485c0.611,0,1.172-0.059,1.686-0.176    c0.514-0.116,1.068-0.315,1.668-0.598v2.527c-0.547,0.281-1.109,0.477-1.689,0.584    C107.738,152.624,107.045,152.678,106.238,152.678z M106.033,144.521c-0.408,0-0.752,0.131-1.027,0.392s-0.438,0.67-0.484,1.228    h2.988c-0.012-0.492-0.15-0.885-0.414-1.179C106.832,144.669,106.479,144.521,106.033,144.521z"
   id="path73" />
		<path
   fill="#E6E6E5"
   d="M114.365,152.498l-3.844-10.188h3.629l1.709,6.024c0.006,0.03,0.018,0.081,0.035,0.153    s0.035,0.157,0.053,0.256c0.02,0.1,0.035,0.204,0.049,0.315c0.016,0.11,0.023,0.214,0.023,0.31h0.063    c0-0.312,0.053-0.65,0.16-1.016l1.787-6.043h3.621l-3.844,10.188H114.365z"
   id="path75" />
		<path
   fill="#E6E6E5"
   d="M125.605,152.498h-3.461v-13.147h7.686v2.851h-4.225v2.51h3.896v2.85h-3.896V152.498z"
   id="path77" />
		<path
   fill="#E6E6E5"
   d="M135.715,152.678c-1.678,0-2.98-0.451-3.908-1.354c-0.93-0.902-1.393-2.187-1.393-3.854    c0-1.72,0.43-3.04,1.289-3.961c0.861-0.92,2.088-1.38,3.684-1.38c1.518,0,2.689,0.4,3.518,1.2c0.828,0.801,1.24,1.953,1.24,3.458    v1.564h-6.217c0.023,0.569,0.23,1.016,0.617,1.34c0.389,0.323,0.918,0.485,1.588,0.485c0.611,0,1.174-0.059,1.686-0.176    c0.514-0.116,1.07-0.315,1.668-0.598v2.527c-0.545,0.281-1.107,0.477-1.689,0.584    C137.215,152.624,136.521,152.678,135.715,152.678z M135.512,144.521c-0.41,0-0.752,0.131-1.027,0.392    c-0.277,0.261-0.438,0.67-0.486,1.228h2.99c-0.014-0.492-0.15-0.885-0.414-1.179C136.311,144.669,135.955,144.521,135.512,144.521    z"
   id="path79" />
		<path
   fill="#E6E6E5"
   d="M148.984,149.368c0,1.092-0.369,1.916-1.104,2.474c-0.736,0.557-1.791,0.836-3.166,0.836    c-0.748,0-1.396-0.041-1.949-0.121c-0.551-0.081-1.115-0.229-1.689-0.445v-2.814c0.539,0.239,1.131,0.438,1.773,0.593    c0.645,0.156,1.219,0.234,1.723,0.234c0.752,0,1.129-0.174,1.129-0.521c0-0.18-0.105-0.341-0.316-0.481    c-0.209-0.141-0.822-0.415-1.836-0.822c-0.926-0.384-1.572-0.82-1.939-1.309s-0.551-1.107-0.551-1.857    c0-0.947,0.361-1.685,1.084-2.212c0.725-0.527,1.746-0.791,3.07-0.791c0.664,0,1.287,0.073,1.871,0.22    c0.584,0.147,1.191,0.361,1.82,0.644l-0.943,2.266c-0.463-0.21-0.951-0.388-1.469-0.535c-0.516-0.146-0.936-0.22-1.262-0.22    c-0.57,0-0.855,0.141-0.855,0.422c0,0.175,0.1,0.323,0.299,0.445c0.199,0.123,0.773,0.373,1.721,0.751    c0.707,0.294,1.232,0.582,1.58,0.863c0.346,0.282,0.602,0.613,0.764,0.994C148.902,148.36,148.984,148.823,148.984,149.368z"
   id="path81" />
		<path
   fill="#E6E6E5"
   d="M154.939,149.899c0.469,0,1.029-0.117,1.682-0.352v2.563c-0.469,0.204-0.914,0.349-1.338,0.436    c-0.426,0.087-0.922,0.131-1.49,0.131c-1.168,0-2.012-0.289-2.527-0.868c-0.516-0.578-0.773-1.467-0.773-2.666v-4.199h-1.219    v-1.43l1.549-1.106l0.898-2.14h2.275v2.041h2.475v2.635h-2.475v3.966C153.996,149.569,154.311,149.899,154.939,149.899z"
   id="path83" />
		
		
	</g>
</g>
<g
   id="g89">
	
		<radialGradient
   id="SVGID_5_"
   cx="3.5391"
   cy="885.9043"
   r="20.1156"
   gradientTransform="matrix(0.498 0 0 0.498 15.8475 -328.3509)"
   gradientUnits="userSpaceOnUse">
		<stop
   offset="0"
   style="stop-color:#CCCCCC"
   id="stop92" />
		<stop
   offset="1"
   style="stop-color:#C0C0C0"
   id="stop94" />
	</radialGradient>
	<path
   fill="url(#SVGID_5_)"
   d="M8.896,124h6.791c1.607,0,3.604-1.131,4.432-2.514l5.72-9.523c0.677-1.395,0.653-3.426-0.119-4.713   l-3.378-5.59L8.896,124z"
   id="path96" />
	
		<radialGradient
   id="SVGID_6_"
   cx="-8.5127"
   cy="875.6914"
   r="27.6595"
   gradientTransform="matrix(0.498 0 0 0.498 15.8475 -328.3509)"
   gradientUnits="userSpaceOnUse">
		<stop
   offset="0"
   style="stop-color:#A0A0A0"
   id="stop99" />
		<stop
   offset="1"
   style="stop-color:#7B7B7B"
   id="stop101" />
	</radialGradient>
	<path
   fill="url(#SVGID_6_)"
   d="M16.195,96.506L1.094,121.76C0.51,123.008,1.117,124,2.615,124h6.281l13.446-22.338l-6.146-10.175   C17.025,92.865,17.025,95.123,16.195,96.506"
   id="path103" />
	
		<radialGradient
   id="SVGID_7_"
   cx="0.9385"
   cy="836.0088"
   r="40.5343"
   gradientTransform="matrix(0.498 0 0 0.498 15.8475 -328.3509)"
   gradientUnits="userSpaceOnUse">
		<stop
   offset="0"
   style="stop-color:#848484"
   id="stop106" />
		<stop
   offset="1"
   style="stop-color:#838383"
   id="stop108" />
	</radialGradient>
	<path
   fill="url(#SVGID_7_)"
   d="M2.615,64c-1.613,0-2.254,1.129-1.424,2.507L25.72,107.25c0.772,1.289,0.795,3.316,0.119,4.713   l5.963-9.922L8.9,64H2.615z"
   id="path110" />
	
		<radialGradient
   id="SVGID_8_"
   cx="13.0029"
   cy="826.0469"
   r="33.0549"
   gradientTransform="matrix(0.498 0 0 0.498 15.8475 -328.3509)"
   gradientUnits="userSpaceOnUse">
		<stop
   offset="0"
   style="stop-color:#626262"
   id="stop113" />
		<stop
   offset="1"
   style="stop-color:#474747"
   id="stop115" />
	</radialGradient>
	<path
   fill="url(#SVGID_8_)"
   d="M8.9,64l22.903,38.041l3.321-5.531c0.83-1.385,0.83-3.646,0-5.022L20.12,66.51   C19.292,65.13,17.294,64,15.688,64H8.9z"
   id="path117" />
	
	<g
   id="g143">
		<path
   fill="#4E4E4E"
   d="M52.911,81.815h5.613v7.086c-1.524,0.527-3.199,0.791-5.026,0.791c-2.004,0-3.554-0.588-4.647-1.763    c-1.094-1.175-1.641-2.851-1.641-5.026c0-2.122,0.599-3.773,1.797-4.955c1.198-1.181,2.876-1.771,5.035-1.771    c0.818,0,1.59,0.078,2.317,0.233c0.727,0.156,1.359,0.354,1.899,0.594l-1.112,2.788c-0.937-0.468-1.966-0.701-3.086-0.701    c-1.026,0-1.819,0.337-2.379,1.011c-0.561,0.675-0.841,1.639-0.841,2.892c0,1.229,0.253,2.166,0.761,2.81    c0.507,0.645,1.238,0.967,2.192,0.967c0.522,0,1.002-0.051,1.441-0.152v-2.06h-2.322V81.815z"
   id="path145" />
		<path
   fill="#4E4E4E"
   d="M71.303,82.66c0,2.194-0.598,3.885-1.792,5.072c-1.195,1.187-2.875,1.78-5.039,1.78h-4.208V76.365h4.501    c2.087,0,3.699,0.54,4.834,1.619C70.735,79.063,71.303,80.622,71.303,82.66z M67.656,82.786c0-1.205-0.236-2.098-0.707-2.68    c-0.472-0.581-1.188-0.872-2.148-0.872h-1.023v7.364h0.783c1.067,0,1.851-0.313,2.349-0.939    C67.407,85.033,67.656,84.075,67.656,82.786z"
   id="path147" />
		<path
   fill="#4E4E4E"
   d="M77.944,81.815h5.613v7.086c-1.524,0.527-3.199,0.791-5.026,0.791c-2.004,0-3.554-0.588-4.647-1.763    c-1.094-1.175-1.641-2.851-1.641-5.026c0-2.122,0.599-3.773,1.797-4.955c1.198-1.181,2.876-1.771,5.035-1.771    c0.818,0,1.59,0.078,2.317,0.233c0.727,0.156,1.359,0.354,1.899,0.594l-1.112,2.788c-0.937-0.468-1.966-0.701-3.086-0.701    c-1.026,0-1.819,0.337-2.379,1.011c-0.561,0.675-0.841,1.639-0.841,2.892c0,1.229,0.253,2.166,0.761,2.81    c0.507,0.645,1.238,0.967,2.192,0.967c0.522,0,1.002-0.051,1.441-0.152v-2.06h-2.322V81.815z"
   id="path149" />
		<path
   fill="#4E4E4E"
   d="M100.158,82.66c0,2.194-0.598,3.885-1.793,5.072c-1.195,1.187-2.875,1.78-5.039,1.78h-4.208V76.365h4.501    c2.088,0,3.699,0.54,4.836,1.619C99.59,79.063,100.158,80.622,100.158,82.66z M96.51,82.786c0-1.205-0.234-2.098-0.707-2.68    c-0.471-0.581-1.188-0.872-2.146-0.872h-1.023v7.364h0.783c1.066,0,1.85-0.313,2.348-0.939    C96.262,85.033,96.51,84.075,96.51,82.786z"
   id="path151" />
		<path
   fill="#4E4E4E"
   d="M106.238,89.692c-1.678,0-2.982-0.451-3.91-1.354s-1.393-2.187-1.393-3.854c0-1.72,0.432-3.04,1.291-3.961    c0.859-0.92,2.088-1.38,3.682-1.38c1.52,0,2.691,0.4,3.52,1.2c0.826,0.801,1.24,1.953,1.24,3.458v1.564h-6.219    c0.023,0.569,0.23,1.016,0.619,1.34c0.389,0.323,0.918,0.485,1.588,0.485c0.611,0,1.172-0.059,1.686-0.176    c0.514-0.116,1.068-0.315,1.668-0.598v2.527c-0.547,0.281-1.109,0.477-1.689,0.584C107.738,89.639,107.045,89.692,106.238,89.692z     M106.033,81.536c-0.408,0-0.752,0.131-1.027,0.392s-0.438,0.67-0.484,1.228h2.988c-0.012-0.492-0.15-0.885-0.414-1.179    C106.832,81.684,106.479,81.536,106.033,81.536z"
   id="path153" />
		<path
   fill="#4E4E4E"
   d="M114.365,89.513l-3.844-10.188h3.629l1.709,6.024c0.006,0.03,0.018,0.081,0.035,0.153    s0.035,0.157,0.053,0.256c0.02,0.1,0.035,0.204,0.049,0.315c0.016,0.11,0.023,0.214,0.023,0.31h0.063    c0-0.312,0.053-0.65,0.16-1.016l1.787-6.043h3.621l-3.844,10.188H114.365z"
   id="path155" />
		<path
   fill="#4E4E4E"
   d="M125.605,89.513h-3.461V76.365h7.686v2.851h-4.225v2.51h3.896v2.85h-3.896V89.513z"
   id="path157" />
		<path
   fill="#4E4E4E"
   d="M135.715,89.692c-1.678,0-2.98-0.451-3.908-1.354c-0.93-0.902-1.393-2.187-1.393-3.854    c0-1.72,0.43-3.04,1.289-3.961c0.861-0.92,2.088-1.38,3.684-1.38c1.518,0,2.689,0.4,3.518,1.2c0.828,0.801,1.24,1.953,1.24,3.458    v1.564h-6.217c0.023,0.569,0.23,1.016,0.617,1.34c0.389,0.323,0.918,0.485,1.588,0.485c0.611,0,1.174-0.059,1.686-0.176    c0.514-0.116,1.07-0.315,1.668-0.598v2.527c-0.545,0.281-1.107,0.477-1.689,0.584C137.215,89.639,136.521,89.692,135.715,89.692z     M135.512,81.536c-0.41,0-0.752,0.131-1.027,0.392c-0.277,0.261-0.438,0.67-0.486,1.228h2.99c-0.014-0.492-0.15-0.885-0.414-1.179    C136.311,81.684,135.955,81.536,135.512,81.536z"
   id="path159" />
		<path
   fill="#4E4E4E"
   d="M148.984,86.383c0,1.092-0.369,1.916-1.104,2.474c-0.736,0.557-1.791,0.836-3.166,0.836    c-0.748,0-1.396-0.041-1.949-0.121c-0.551-0.081-1.115-0.229-1.689-0.445v-2.814c0.539,0.239,1.131,0.438,1.773,0.593    c0.645,0.156,1.219,0.234,1.723,0.234c0.752,0,1.129-0.174,1.129-0.521c0-0.18-0.105-0.341-0.316-0.481    c-0.209-0.141-0.822-0.415-1.836-0.822c-0.926-0.384-1.572-0.82-1.939-1.309s-0.551-1.107-0.551-1.857    c0-0.947,0.361-1.685,1.084-2.212c0.725-0.527,1.746-0.791,3.07-0.791c0.664,0,1.287,0.073,1.871,0.22    c0.584,0.147,1.191,0.361,1.82,0.644l-0.943,2.266c-0.463-0.21-0.951-0.388-1.469-0.535c-0.516-0.146-0.936-0.22-1.262-0.22    c-0.57,0-0.855,0.141-0.855,0.422c0,0.175,0.1,0.323,0.299,0.445c0.199,0.123,0.773,0.373,1.721,0.751    c0.707,0.294,1.232,0.582,1.58,0.863c0.346,0.282,0.602,0.613,0.764,0.994C148.902,85.375,148.984,85.838,148.984,86.383z"
   id="path161" />
		<path
   fill="#4E4E4E"
   d="M154.939,86.914c0.469,0,1.029-0.117,1.682-0.352v2.563c-0.469,0.204-0.914,0.349-1.338,0.436    c-0.426,0.087-0.922,0.131-1.49,0.131c-1.168,0-2.012-0.289-2.527-0.868c-0.516-0.578-0.773-1.467-0.773-2.666v-4.199h-1.219    v-1.43l1.549-1.106l0.898-2.14h2.275v2.041h2.475v2.635h-2.475v3.966C153.996,86.584,154.311,86.914,154.939,86.914z"
   id="path163" />
		
		
	</g>
</g>
<g
   id="g169">
	
		<radialGradient
   id="SVGID_9_"
   cx="3.5664"
   cy="759.0137"
   r="20.1134"
   gradientTransform="matrix(0.498 0 0 0.498 15.8475 -328.3509)"
   gradientUnits="userSpaceOnUse">
		<stop
   offset="0"
   style="stop-color:#FFCF4F"
   id="stop172" />
		<stop
   offset="1"
   style="stop-color:#F4C236"
   id="stop174" />
	</radialGradient>
	<path
   fill="url(#SVGID_9_)"
   d="M8.91,60.806h6.791c1.607,0,3.604-1.128,4.432-2.511l5.72-9.521   c0.677-1.396,0.653-3.426-0.119-4.713l-3.378-5.592L8.91,60.806z"
   id="path176" />
	
		<radialGradient
   id="SVGID_10_"
   cx="-8.4854"
   cy="748.8008"
   r="27.6572"
   gradientTransform="matrix(0.498 0 0 0.498 15.8475 -328.3509)"
   gradientUnits="userSpaceOnUse">
		<stop
   offset="0"
   style="stop-color:#08A960"
   id="stop179" />
		<stop
   offset="1"
   style="stop-color:#07914B"
   id="stop181" />
	</radialGradient>
	<path
   fill="url(#SVGID_10_)"
   d="M16.209,33.32L1.108,58.569c-0.584,1.248,0.023,2.237,1.521,2.237H8.91l13.446-22.335L16.21,28.298   C17.039,29.676,17.039,31.936,16.209,33.32"
   id="path183" />
	
		<radialGradient
   id="SVGID_11_"
   cx="0.9658"
   cy="709.1191"
   r="40.5378"
   gradientTransform="matrix(0.498 0 0 0.498 15.8475 -328.3509)"
   gradientUnits="userSpaceOnUse">
		<stop
   offset="0"
   style="stop-color:#567FC0"
   id="stop186" />
		<stop
   offset="1"
   style="stop-color:#557FC0"
   id="stop188" />
	</radialGradient>
	<path
   fill="url(#SVGID_11_)"
   d="M2.629,0.806c-1.614,0-2.254,1.133-1.424,2.511l24.529,40.745c0.772,1.288,0.795,3.317,0.119,4.713   l5.963-9.925L8.914,0.806H2.629z"
   id="path190" />
	
		<radialGradient
   id="SVGID_12_"
   cx="13.0303"
   cy="699.1543"
   r="33.0577"
   gradientTransform="matrix(0.498 0 0 0.498 15.8475 -328.3509)"
   gradientUnits="userSpaceOnUse">
		<stop
   offset="0"
   style="stop-color:#E14C40"
   id="stop193" />
		<stop
   offset="1"
   style="stop-color:#CD392D"
   id="stop195" />
	</radialGradient>
	<path
   fill="url(#SVGID_12_)"
   d="M8.914,0.806l22.903,38.045l3.321-5.53c0.83-1.385,0.83-3.645,0-5.022L20.133,3.317   c-0.828-1.378-2.825-2.511-4.432-2.511H8.914z"
   id="path197" />
	
	<g
   id="g223">
		<path
   fill="#4E4E4E"
   d="M52.912,18.621h5.613v7.086c-1.524,0.527-3.199,0.791-5.026,0.791c-2.004,0-3.554-0.587-4.647-1.762    c-1.094-1.175-1.641-2.851-1.641-5.027c0-2.122,0.599-3.773,1.797-4.955c1.198-1.181,2.876-1.771,5.035-1.771    c0.818,0,1.59,0.078,2.317,0.233c0.727,0.156,1.359,0.354,1.899,0.594l-1.112,2.788c-0.937-0.468-1.966-0.701-3.086-0.701    c-1.026,0-1.819,0.337-2.379,1.011c-0.561,0.675-0.841,1.638-0.841,2.891c0,1.229,0.253,2.166,0.761,2.81    c0.507,0.645,1.238,0.967,2.192,0.967c0.522,0,1.002-0.051,1.441-0.153v-2.059h-2.322V18.621z"
   id="path225" />
		<path
   fill="#4E4E4E"
   d="M71.303,19.466c0,2.194-0.598,3.885-1.792,5.072s-2.875,1.78-5.039,1.78h-4.208V13.171h4.501    c2.087,0,3.699,0.54,4.834,1.619C70.735,15.869,71.303,17.428,71.303,19.466z M67.656,19.592c0-1.205-0.236-2.098-0.707-2.68    c-0.472-0.582-1.188-0.873-2.148-0.873h-1.023v7.365h0.783c1.067,0,1.851-0.313,2.349-0.939S67.656,20.881,67.656,19.592z"
   id="path227" />
		<path
   fill="#4E4E4E"
   d="M77.944,18.621h5.613v7.086c-1.524,0.527-3.199,0.791-5.026,0.791c-2.004,0-3.554-0.587-4.647-1.762    c-1.094-1.175-1.641-2.851-1.641-5.027c0-2.122,0.599-3.773,1.797-4.955c1.198-1.181,2.876-1.771,5.035-1.771    c0.818,0,1.59,0.078,2.317,0.233c0.727,0.156,1.359,0.354,1.899,0.594l-1.112,2.788c-0.937-0.468-1.966-0.701-3.086-0.701    c-1.026,0-1.819,0.337-2.379,1.011c-0.561,0.675-0.841,1.638-0.841,2.891c0,1.229,0.253,2.166,0.761,2.81    c0.507,0.645,1.238,0.967,2.192,0.967c0.522,0,1.002-0.051,1.441-0.153v-2.059h-2.322V18.621z"
   id="path229" />
		<path
   fill="#4E4E4E"
   d="M100.158,19.466c0,2.194-0.598,3.885-1.793,5.072s-2.875,1.78-5.039,1.78h-4.208V13.171h4.5    c2.088,0,3.699,0.54,4.836,1.619C99.59,15.869,100.158,17.428,100.158,19.466z M96.51,19.592c0-1.205-0.234-2.098-0.707-2.68    c-0.471-0.582-1.188-0.873-2.146-0.873h-1.023v7.365h0.783c1.066,0,1.85-0.313,2.348-0.939S96.51,20.881,96.51,19.592z"
   id="path231" />
		<path
   fill="#4E4E4E"
   d="M106.238,26.498c-1.678,0-2.982-0.451-3.91-1.353s-1.393-2.187-1.393-3.854    c0-1.72,0.432-3.041,1.291-3.961s2.088-1.38,3.682-1.38c1.52,0,2.691,0.4,3.52,1.201c0.826,0.8,1.24,1.953,1.24,3.458v1.564    h-6.219c0.023,0.57,0.23,1.016,0.619,1.34s0.918,0.486,1.588,0.486c0.611,0,1.172-0.059,1.686-0.176    c0.514-0.117,1.068-0.316,1.668-0.598v2.527c-0.547,0.282-1.109,0.477-1.689,0.584C107.738,26.444,107.045,26.498,106.238,26.498z     M106.033,18.342c-0.408,0-0.752,0.13-1.027,0.391s-0.438,0.67-0.484,1.228h2.988c-0.012-0.492-0.15-0.884-0.414-1.178    C106.832,18.489,106.479,18.342,106.033,18.342z"
   id="path233" />
		<path
   fill="#4E4E4E"
   d="M114.365,26.318l-3.844-10.188h3.629l1.709,6.025c0.006,0.03,0.018,0.081,0.035,0.153    c0.018,0.072,0.035,0.158,0.053,0.256c0.02,0.099,0.035,0.204,0.049,0.315c0.016,0.111,0.023,0.214,0.023,0.31h0.063    c0-0.312,0.053-0.65,0.16-1.016l1.787-6.043h3.621l-3.844,10.188H114.365z"
   id="path235" />
		<path
   fill="#4E4E4E"
   d="M125.605,26.318h-3.461V13.171h7.686v2.851h-4.225v2.509h3.896v2.85h-3.896V26.318z"
   id="path237" />
		<path
   fill="#4E4E4E"
   d="M135.715,26.498c-1.678,0-2.98-0.451-3.908-1.353c-0.93-0.902-1.393-2.187-1.393-3.854    c0-1.72,0.43-3.041,1.289-3.961c0.861-0.92,2.088-1.38,3.684-1.38c1.518,0,2.689,0.4,3.518,1.201s1.24,1.953,1.24,3.458v1.564    h-6.217c0.023,0.57,0.23,1.016,0.617,1.34c0.389,0.324,0.918,0.486,1.588,0.486c0.611,0,1.174-0.059,1.686-0.176    c0.514-0.117,1.07-0.316,1.668-0.598v2.527c-0.545,0.282-1.107,0.477-1.689,0.584S136.521,26.498,135.715,26.498z M135.512,18.342    c-0.41,0-0.752,0.13-1.027,0.391c-0.277,0.261-0.438,0.67-0.486,1.228h2.99c-0.014-0.492-0.15-0.884-0.414-1.178    C136.311,18.489,135.955,18.342,135.512,18.342z"
   id="path239" />
		<path
   fill="#4E4E4E"
   d="M148.984,23.189c0,1.091-0.369,1.916-1.104,2.473c-0.736,0.557-1.791,0.836-3.166,0.836    c-0.748,0-1.396-0.041-1.949-0.121c-0.551-0.081-1.115-0.229-1.689-0.445v-2.814c0.539,0.24,1.131,0.438,1.773,0.593    c0.645,0.156,1.219,0.234,1.723,0.234c0.752,0,1.129-0.174,1.129-0.521c0-0.18-0.105-0.34-0.316-0.481    c-0.209-0.141-0.822-0.415-1.836-0.823c-0.926-0.384-1.572-0.82-1.939-1.309c-0.367-0.488-0.551-1.107-0.551-1.857    c0-0.947,0.361-1.685,1.084-2.212c0.725-0.528,1.746-0.792,3.07-0.792c0.664,0,1.287,0.074,1.871,0.22    c0.584,0.147,1.191,0.361,1.82,0.643l-0.943,2.266c-0.463-0.21-0.951-0.388-1.469-0.535c-0.516-0.147-0.936-0.22-1.262-0.22    c-0.57,0-0.855,0.141-0.855,0.422c0,0.174,0.1,0.323,0.299,0.445c0.199,0.123,0.773,0.373,1.721,0.751    c0.707,0.294,1.232,0.582,1.58,0.863c0.346,0.282,0.602,0.613,0.764,0.994C148.902,22.181,148.984,22.644,148.984,23.189z"
   id="path241" />
		<path
   fill="#4E4E4E"
   d="M154.939,23.72c0.469,0,1.029-0.117,1.682-0.351v2.563c-0.469,0.204-0.914,0.349-1.338,0.436    c-0.426,0.087-0.922,0.13-1.49,0.13c-1.168,0-2.012-0.289-2.527-0.868s-0.773-1.467-0.773-2.666v-4.2h-1.219v-1.43l1.549-1.106    l0.898-2.14h2.275v2.041h2.475v2.635h-2.475v3.966C153.996,23.39,154.311,23.72,154.939,23.72z"
   id="path243" />
		
		
	<text
   xml:space="preserve"
   style="font-size:40px;font-style:normal;font-variant:normal;font-weight:normal;font-stretch:normal;line-height:125%;letter-spacing:0px;word-spacing:0px;fill:#4e4e4e;fill-opacity:1;stroke:none;font-family:Open Sans;-inkscape-font-specification:Open Sans"
   x="46.601692"
   y="43.813557"
   id="text3230"
   sodipodi:linespacing="125%"><tspan
     sodipodi:role="line"
     id="tspan3232"
     x="46.601692"
     y="43.813557"
     style="font-size:18px;font-style:normal;font-variant:normal;font-weight:normal;font-stretch:normal;fill:#4e4e4e;fill-opacity:1;font-family:Open Sans;-inkscape-font-specification:Open Sans">Nordeste <tspan
   style="font-weight:bold;-inkscape-font-specification:Open Sans Bold"
   id="tspan4002">2014</tspan></tspan></text>
<text
   xml:space="preserve"
   style="font-size:40px;font-style:normal;font-variant:normal;font-weight:normal;font-stretch:normal;line-height:125%;letter-spacing:0px;word-spacing:0px;fill:#e6e6e5;fill-opacity:1;stroke:none;font-family:Open Sans;-inkscape-font-specification:Open Sans"
   x="46.955456"
   y="170.45338"
   id="text3230-1"
   sodipodi:linespacing="125%"><tspan
     sodipodi:role="line"
     id="tspan3232-7"
     x="46.955456"
     y="170.45338"
     style="font-size:18px;font-style:normal;font-variant:normal;font-weight:normal;font-stretch:normal;fill:#e6e6e5;fill-opacity:1;font-family:Open Sans;-inkscape-font-specification:Open Sans">Nordeste <tspan
   style="font-weight:bold;-inkscape-font-specification:Open Sans Bold;fill:#e6e6e5;fill-opacity:1"
   id="tspan4002-4">2014</tspan></tspan></text>
<text
   xml:space="preserve"
   style="font-size:40px;font-style:normal;font-variant:normal;font-weight:normal;font-stretch:normal;line-height:125%;letter-spacing:0px;word-spacing:0px;fill:#4e4e4e;fill-opacity:1;stroke:none;font-family:Open Sans;-inkscape-font-specification:Open Sans"
   x="46.557152"
   y="106.7161"
   id="text3230-0"
   sodipodi:linespacing="125%"><tspan
     sodipodi:role="line"
     id="tspan3232-9"
     x="46.557152"
     y="106.7161"
     style="font-size:18px;font-style:normal;font-variant:normal;font-weight:normal;font-stretch:normal;fill:#4e4e4e;fill-opacity:1;font-family:Open Sans;-inkscape-font-specification:Open Sans">Nordeste <tspan
   style="font-weight:bold;-inkscape-font-specification:Open Sans Bold"
   id="tspan4002-48">2014</tspan></tspan></text>
</g>
</g>
</svg>